<svg width="38" height="51" viewBox="0 0 38 51" fill="none" xmlns="http://www.w3.org/2000/svg">
<path d="M19.2642 50.7342L9.4748 43.0425C3.80313 38.6139 0.617676 32.0099 0.617676 24.8621V8.62404L1.31692 8.54634C6.13395 8.15788 18.4873 5.74936 18.4873 0H20.0412C20.0412 5.74936 32.3945 8.15788 37.2116 8.54634L37.9108 8.62404V24.8621C37.9108 32.0099 34.7254 38.6139 29.0537 43.0425L19.2642 50.7342ZM2.17156 10.0225V24.8621C2.17156 31.5438 5.20162 37.6816 10.4071 41.7994L19.2642 48.7142L28.1214 41.7994C33.3269 37.6816 36.3569 31.5438 36.3569 24.8621V10.0225C33.4046 9.71176 22.2943 8.08018 19.2642 2.87468C16.2342 8.08018 5.12393 9.71176 2.17156 10.0225Z" fill="#FF5200"/>
<path d="M19.2642 46.7718L11.4171 40.634C6.52242 36.7493 3.72543 31.0776 3.72543 24.8621V11.421L4.34699 11.3433C5.97856 11.1103 8.46477 10.6441 10.951 9.86716C14.2918 8.85714 16.9334 7.53634 18.7204 5.90476L19.2642 5.4386L19.8081 5.90476C21.5951 7.45864 24.159 8.85714 27.5775 9.86716C30.0637 10.6441 32.5499 11.1103 34.1815 11.3433L34.8031 11.421V24.8621C34.8031 30.9999 32.0061 36.7493 27.1113 40.5563L19.2642 46.7718ZM5.27931 12.7418V24.8621C5.27931 30.5338 7.84322 35.817 12.3495 39.3132L19.2642 44.7518L26.179 39.3132C30.6853 35.8947 33.2492 30.6115 33.2492 24.8621V12.7418C31.6176 12.4311 29.3645 12.0426 27.0336 11.3433C23.7705 10.3333 21.1289 9.09022 19.2642 7.53634C17.3219 9.09022 14.758 10.3333 11.4948 11.3433C9.16402 11.9649 6.91089 12.4311 5.27931 12.7418Z" fill="#FF5200"/>
<path d="M17.7104 30.6115L12.5049 25.406L13.5926 24.3183L17.7104 28.436L27.6552 18.4912L28.7429 19.5789L17.7104 30.6115Z" fill="#FF5200"/>
</svg>
