<svg width="50" height="53" viewBox="0 0 50 53" fill="none" xmlns="http://www.w3.org/2000/svg">
<path d="M19.6271 23.6653H13.0881C12.8713 23.6653 12.6634 23.5791 12.5102 23.4259C12.3569 23.2726 12.2708 23.0647 12.2708 22.8479C12.2708 22.6311 12.3569 22.4232 12.5102 22.2699C12.6634 22.1166 12.8713 22.0305 13.0881 22.0305H19.6271C19.8439 22.0305 20.0518 22.1166 20.2051 22.2699C20.3583 22.4232 20.4445 22.6311 20.4445 22.8479C20.4445 23.0647 20.3583 23.2726 20.2051 23.4259C20.0518 23.5791 19.8439 23.6653 19.6271 23.6653Z" fill="#FF5200"/>
<path d="M35.9745 23.6653H29.4355C29.2188 23.6653 29.0109 23.5791 28.8576 23.4259C28.7043 23.2726 28.6182 23.0647 28.6182 22.8479C28.6182 22.6311 28.7043 22.4232 28.8576 22.2699C29.0109 22.1166 29.2188 22.0305 29.4355 22.0305H35.9745C36.1913 22.0305 36.3992 22.1166 36.5525 22.2699C36.7058 22.4232 36.7919 22.6311 36.7919 22.8479C36.7919 23.0647 36.7058 23.2726 36.5525 23.4259C36.3992 23.5791 36.1913 23.6653 35.9745 23.6653Z" fill="#FF5200"/>
<path d="M16.3577 27.7521C17.2605 27.7521 17.9924 27.0203 17.9924 26.1174C17.9924 25.2146 17.2605 24.4827 16.3577 24.4827C15.4549 24.4827 14.723 25.2146 14.723 26.1174C14.723 27.0203 15.4549 27.7521 16.3577 27.7521Z" fill="#FF5200"/>
<path d="M32.7051 27.7521C33.6079 27.7521 34.3398 27.0203 34.3398 26.1174C34.3398 25.2146 33.6079 24.4827 32.7051 24.4827C31.8022 24.4827 31.0703 25.2146 31.0703 26.1174C31.0703 27.0203 31.8022 27.7521 32.7051 27.7521Z" fill="#FF5200"/>
<path d="M29.4356 34.2911V35.9259C29.4356 37.2265 28.9189 38.4739 27.9991 39.3937C27.0794 40.3134 25.832 40.8301 24.5313 40.8301C23.2307 40.8301 21.9832 40.3134 21.0635 39.3937C20.1438 38.4739 19.6271 37.2265 19.6271 35.9259V34.2911H29.4356ZM29.4356 32.6564H19.6271C19.1936 32.6564 18.7777 32.8286 18.4712 33.1352C18.1646 33.4417 17.9924 33.8576 17.9924 34.2911V35.9259C17.9924 37.6601 18.6813 39.3233 19.9076 40.5496C21.1339 41.7759 22.7971 42.4648 24.5313 42.4648C26.2656 42.4648 27.9288 41.7759 29.1551 40.5496C30.3814 39.3233 31.0703 37.6601 31.0703 35.9259V34.2911C31.0703 33.8576 30.8981 33.4417 30.5915 33.1352C30.2849 32.8286 29.8691 32.6564 29.4356 32.6564Z" fill="#FF5200"/>
<path d="M47.4178 21.2132V27.7521H42.5135V21.2132H47.4178ZM47.4178 19.5784H42.5135C42.08 19.5784 41.6642 19.7507 41.3576 20.0572C41.051 20.3638 40.8788 20.7796 40.8788 21.2132V27.7521C40.8788 28.1857 41.051 28.6015 41.3576 28.9081C41.6642 29.2146 42.08 29.3869 42.5135 29.3869H47.4178C47.8513 29.3869 48.2671 29.2146 48.5737 28.9081C48.8803 28.6015 49.0525 28.1857 49.0525 27.7521V21.2132C49.0525 20.7796 48.8803 20.3638 48.5737 20.0572C48.2671 19.7507 47.8513 19.5784 47.4178 19.5784Z" fill="#FF5200"/>
<path d="M6.54918 21.2132V27.7521C5.68206 27.7521 4.85046 27.4077 4.23731 26.7945C3.62416 26.1814 3.2797 25.3498 3.2797 24.4827C3.2797 23.6155 3.62416 22.7839 4.23731 22.1708C4.85046 21.5576 5.68206 21.2132 6.54918 21.2132ZM6.54918 19.5784C5.2485 19.5784 4.00109 20.0951 3.08137 21.0148C2.16165 21.9346 1.64496 23.182 1.64496 24.4827C1.64496 25.7833 2.16165 27.0307 3.08137 27.9505C4.00109 28.8702 5.2485 29.3869 6.54918 29.3869C6.98274 29.3869 7.39855 29.2146 7.70512 28.9081C8.01169 28.6015 8.18393 28.1857 8.18393 27.7521V21.2132C8.18393 20.7796 8.01169 20.3638 7.70512 20.0572C7.39855 19.7507 6.98274 19.5784 6.54918 19.5784Z" fill="#FF5200"/>
<path d="M46.6003 29.3869C46.6003 29.1701 46.5142 28.9622 46.3609 28.8089C46.2076 28.6556 45.9997 28.5695 45.783 28.5695C45.6755 28.5778 45.5707 28.6072 45.4747 28.6561C45.3786 28.705 45.2932 28.7724 45.2233 28.8545C45.1534 28.9365 45.1005 29.0316 45.0674 29.1342C45.0344 29.2368 45.022 29.3449 45.031 29.4523C45.2699 34.2162 43.6859 38.8923 40.6008 42.5302C39.8627 43.3092 39.0465 44.0104 38.1651 44.6227C39.5641 43.2089 40.6687 41.5317 41.4151 39.6881C42.1615 37.8446 42.5349 35.8713 42.5135 33.8824V10.4893C42.5135 9.53611 42.3257 8.59228 41.961 7.71167C41.5962 6.83106 41.0616 6.03091 40.3876 5.35692C39.7136 4.68293 38.9135 4.14829 38.0328 3.78353C37.1522 3.41877 36.2084 3.23103 35.2552 3.23103H29.1413C28.7977 2.28426 28.1709 1.46626 27.3461 0.888185C26.5213 0.31011 25.5385 0 24.5313 0C23.5241 0 22.5414 0.31011 21.7166 0.888185C20.8918 1.46626 20.265 2.28426 19.9214 3.23103H13.8074C12.2996 3.2354 10.8308 3.71029 9.60586 4.58945C8.38091 5.4686 7.46091 6.70818 6.9742 8.13525H1.64494C1.41284 8.13555 1.18345 8.18527 0.97205 8.2811C0.760649 8.37694 0.57208 8.51669 0.418889 8.69107C0.264621 8.86271 0.148446 9.06508 0.0780063 9.28485C0.00756661 9.50462 -0.0155412 9.73682 0.0102032 9.96616C0.500626 13.8242 2.88735 15.23 6.54917 16.1945V33.8824C6.55807 37.5355 7.8863 41.0625 10.2893 43.8139C12.6924 46.5654 16.0084 48.3562 19.6271 48.8567V50.6385C19.6271 51.0721 19.7993 51.4879 20.1059 51.7945C20.4125 52.101 20.8283 52.2733 21.2618 52.2733H27.8008C28.2344 52.2733 28.6502 52.101 28.9567 51.7945C29.2633 51.4879 29.4356 51.0721 29.4356 50.6385V49.4779C34.1031 49.0173 38.4575 46.9212 41.7288 43.5601C45.1095 39.6349 46.8534 34.5611 46.6003 29.3869ZM13.8074 4.86577H21.2618C21.2678 4.29006 21.4257 3.72614 21.7196 3.23103C22.0091 2.74315 22.4205 2.33899 22.9135 2.05827C23.4065 1.77756 23.964 1.62994 24.5313 1.62994C25.0986 1.62994 25.6562 1.77756 26.1492 2.05827C26.6421 2.33899 27.0536 2.74315 27.3431 3.23103C27.6369 3.72614 27.7948 4.29006 27.8008 4.86577H35.2552C36.7467 4.86577 38.177 5.45825 39.2317 6.51286C40.2863 7.56747 40.8787 8.99783 40.8787 10.4893V14.6742H32.705C32.7236 14.3177 32.625 13.965 32.4243 13.6698C32.2236 13.3746 31.9318 13.1532 31.5934 13.0395C30.5491 12.8326 29.5789 12.3509 28.7829 11.644C27.9869 10.9371 27.3939 10.0306 27.0652 9.01801C26.9222 8.74133 26.7031 8.51126 26.4338 8.35487C26.1644 8.19848 25.856 8.12229 25.5449 8.13525H8.72338C9.16833 7.16034 9.8841 6.33385 10.7855 5.7542C11.6868 5.17455 12.7358 4.86617 13.8074 4.86577ZM1.64494 9.77H25.5449C25.9782 10.9867 26.7119 12.0742 27.6779 12.9315C28.6439 13.7889 29.8108 14.3883 31.0703 14.6742H7.17037C6.94151 14.6742 6.76169 14.5598 6.54917 14.4944C3.27969 13.5953 1.98824 12.451 1.64494 9.77ZM27.8008 47.3691V50.6385H21.2618V45.7343H27.8008V47.3691ZM29.4356 47.2219V45.7343C29.4356 45.3008 29.2633 44.8849 28.9567 44.5784C28.6502 44.2718 28.2344 44.0996 27.8008 44.0996H21.2618C20.8283 44.0996 20.4125 44.2718 20.1059 44.5784C19.7993 44.8849 19.6271 45.3008 19.6271 45.7343V47.2056C16.4443 46.7143 13.5419 45.1017 11.4435 42.6586C9.34518 40.2155 8.18911 37.1029 8.18391 33.8824V16.309H40.8787V33.8824C40.8735 37.1029 39.7175 40.2155 37.6191 42.6586C35.5208 45.1017 32.6184 46.7143 29.4356 47.2056V47.2219Z" fill="#FF5200"/>
</svg>
