<svg width="59" height="43" viewBox="0 0 59 43" fill="none" xmlns="http://www.w3.org/2000/svg">
<path d="M57.9023 35.182V21.7435C57.9022 20.3777 57.5406 19.0363 56.8544 17.8554L53.8773 12.7051C53.3553 11.8008 52.6046 11.0498 51.7006 10.5272C50.7966 10.0047 49.7711 9.72909 48.727 9.72802H37.7238V5.67921C37.7238 4.4159 37.2219 3.20433 36.3286 2.31104C35.4353 1.41774 34.2237 0.915894 32.9604 0.915894H5.89887C4.63556 0.915894 3.424 1.41774 2.5307 2.31104C1.63741 3.20433 1.13556 4.4159 1.13556 5.67921V31.6095C1.13556 32.8728 1.63741 34.0844 2.5307 34.9777C3.424 35.8709 4.63556 36.3728 5.89887 36.3728H8.82831C9.10261 37.8999 9.90501 39.2821 11.0952 40.2775C12.2854 41.273 13.7876 41.8184 15.3392 41.8184C16.8907 41.8184 18.393 41.273 19.5831 40.2775C20.7733 39.2821 21.5757 37.8999 21.85 36.3728H40.2007C40.475 37.8999 41.2774 39.2821 42.4675 40.2775C43.6577 41.273 45.1599 41.8184 46.7115 41.8184C48.2631 41.8184 49.7653 41.273 50.9555 40.2775C52.1457 39.2821 52.9481 37.8999 53.2224 36.3728H57.9023V35.182ZM48.7151 12.1275C49.3416 12.1282 49.9569 12.2936 50.4993 12.6071C51.0416 12.9206 51.4921 13.3712 51.8053 13.9138L54.6871 18.8736H37.7238V12.1275H48.7151ZM8.82235 33.9971H5.89887C5.26722 33.9971 4.66143 33.7462 4.21479 33.2995C3.76814 32.8529 3.51722 32.2471 3.51722 31.6154V5.69111C3.51722 5.05946 3.76814 4.45368 4.21479 4.00703C4.66143 3.56038 5.26722 3.30946 5.89887 3.30946H32.9604C33.5921 3.30946 34.1979 3.56038 34.6445 4.00703C35.0912 4.45368 35.3421 5.05946 35.3421 5.69111V33.9911H21.85C21.5757 32.464 20.7733 31.0819 19.5831 30.0864C18.393 29.091 16.8907 28.5456 15.3392 28.5456C13.7876 28.5456 12.2854 29.091 11.0952 30.0864C9.90501 31.0819 9.10261 32.464 8.82831 33.9911L8.82235 33.9971ZM15.3362 39.4332C14.4963 39.4332 13.6753 39.1841 12.977 38.7173C12.2787 38.2506 11.7346 37.5872 11.4135 36.8111C11.0923 36.0351 11.0086 35.1812 11.1729 34.3575C11.3372 33.5338 11.7421 32.7774 12.3364 32.1839C12.9307 31.5905 13.6877 31.1866 14.5116 31.0235C15.3355 30.8603 16.1893 30.9453 16.9649 31.2675C17.7405 31.5897 18.4032 32.1348 18.8689 32.8337C19.3347 33.5326 19.5827 34.354 19.5815 35.1939C19.5783 36.3177 19.1297 37.3945 18.3339 38.1881C17.5381 38.9816 16.46 39.4273 15.3362 39.4273V39.4332ZM40.2007 33.9911H37.7238V21.2433H55.485C55.485 21.41 55.5207 21.5768 55.5207 21.7435V33.9911H53.2224C52.9481 32.464 52.1457 31.0819 50.9555 30.0864C49.7653 29.091 48.2631 28.5456 46.7115 28.5456C45.1599 28.5456 43.6577 29.091 42.4675 30.0864C41.2774 31.0819 40.475 32.464 40.2007 33.9911ZM46.7145 39.4273C45.8746 39.4284 45.0532 39.1805 44.3543 38.7147C43.6554 38.2489 43.1103 37.5863 42.7881 36.8107C42.4659 36.0351 42.381 35.1813 42.5441 34.3574C42.7072 33.5335 43.1111 32.7765 43.7046 32.1822C44.298 31.5879 45.0545 31.183 45.8781 31.0187C46.7018 30.8544 47.5557 30.9381 48.3318 31.2593C49.1079 31.5804 49.7712 32.1245 50.238 32.8228C50.7047 33.521 50.9538 34.3421 50.9538 35.182C50.9538 36.3079 50.5066 37.3877 49.7104 38.1838C48.9143 38.98 47.8345 39.4273 46.7085 39.4273H46.7145Z" fill="#FF5200" stroke="white" stroke-width="0.75"/>
<path d="M29.3046 16.8016C29.3046 14.8809 28.7351 13.0033 27.668 11.4063C26.6009 9.80932 25.0842 8.56461 23.3097 7.82959C21.5352 7.09457 19.5826 6.90226 17.6988 7.27696C15.8151 7.65167 14.0847 8.57658 12.7265 9.93471C11.3684 11.2928 10.4435 13.0232 10.0688 14.907C9.69409 16.7908 9.8864 18.7434 10.6214 20.5179C11.3564 22.2924 12.6011 23.8091 14.1981 24.8761C15.7951 25.9432 17.6727 26.5128 19.5934 26.5128C22.168 26.5096 24.6363 25.4855 26.4568 23.6649C28.2773 21.8444 29.3015 19.3762 29.3046 16.8016ZM12.2519 16.8016C12.2519 15.3524 12.6815 13.9358 13.4864 12.7307C14.2912 11.5257 15.4352 10.5862 16.7739 10.0311C18.1125 9.47599 19.5856 9.33015 21.007 9.612C22.4285 9.89385 23.7345 10.5907 24.7601 11.6146C25.7856 12.6385 26.4846 13.9434 26.7688 15.3644C27.0529 16.7854 26.9095 18.2587 26.3565 19.5982C25.8036 20.9377 24.866 22.0833 23.6622 22.8901C22.4585 23.6969 21.0425 24.1288 19.5934 24.1311C18.6301 24.1319 17.6761 23.9429 16.7858 23.575C15.8955 23.2071 15.0864 22.6674 14.4047 21.9868C13.723 21.3062 13.182 20.498 12.8126 19.6083C12.4432 18.7186 12.2527 17.7649 12.2519 16.8016Z" fill="#FF5200" stroke="white" stroke-width="0.75"/>
<path d="M23.7553 17.0873C23.7553 16.7715 23.6299 16.4686 23.4065 16.2453C23.1832 16.022 22.8803 15.8965 22.5645 15.8965H20.6949V13.1457C20.6949 12.8299 20.5694 12.527 20.3461 12.3037C20.1228 12.0803 19.8199 11.9549 19.5041 11.9549C19.1882 11.9549 18.8853 12.0803 18.662 12.3037C18.4387 12.527 18.3132 12.8299 18.3132 13.1457V17.0814C18.3132 17.3972 18.4387 17.7001 18.662 17.9234C18.8853 18.1467 19.1882 18.2722 19.5041 18.2722H22.5645C22.8793 18.2722 23.1813 18.1476 23.4044 17.9255C23.6276 17.7035 23.7537 17.4021 23.7553 17.0873Z" fill="#FF5200" stroke="white" stroke-width="0.75"/>
</svg>
