<svg width="54" height="41" viewBox="0 0 54 41" fill="none" xmlns="http://www.w3.org/2000/svg">
<path d="M26.8743 4.44622C26.8746 3.50662 26.5014 2.60543 25.837 1.94103C25.1726 1.27663 24.2715 0.903489 23.3319 0.903748H4.73388C3.79428 0.903489 2.89309 1.27663 2.22869 1.94103C1.56429 2.60543 1.19115 3.50662 1.19141 4.44622V16.8449C1.19115 17.7845 1.56429 18.6857 2.22869 19.3501C2.89309 20.0145 3.79428 20.3876 4.73388 20.3873" stroke="#FF5200" stroke-width="1.5" stroke-linecap="round" stroke-linejoin="round"/>
<path d="M49.0148 20.3873C49.9544 20.3876 50.8556 20.0145 51.52 19.3501C52.1844 18.6857 52.5575 17.7845 52.5573 16.8449V4.44622C52.5575 3.50662 52.1844 2.60543 51.52 1.94103C50.8556 1.27663 49.9544 0.903489 49.0148 0.903748H30.4168C29.4772 0.903489 28.576 1.27663 27.9116 1.94103C27.2472 2.60543 26.8741 3.50662 26.8743 4.44622V36.3285C26.8746 37.2681 26.5014 38.1693 25.837 38.8337C25.1726 39.4981 24.2715 39.8712 23.3319 39.8709H4.73388C3.79428 39.8712 2.89309 39.4981 2.22869 38.8337C1.56429 38.1693 1.19115 37.2681 1.19141 36.3285V23.9298C1.19115 22.9902 1.56429 22.089 2.22869 21.4246C2.89309 20.7602 3.79428 20.3871 4.73388 20.3873H49.0148ZM49.0148 20.3873C49.9544 20.3871 50.8556 20.7602 51.52 21.4246C52.1844 22.089 52.5575 22.9902 52.5573 23.9298V36.3285C52.5575 37.2681 52.1844 38.1693 51.52 38.8337C50.8556 39.4981 49.9544 39.8712 49.0148 39.8709H30.4168C29.4772 39.8712 28.576 39.4981 27.9116 38.8337C27.2472 38.1693 26.8741 37.2681 26.8743 36.3285" stroke="#FF5200" stroke-width="1.5" stroke-linecap="round" stroke-linejoin="round"/>
<path d="M48.1291 4.44623H39.2729C38.7838 4.44623 38.3873 4.84273 38.3873 5.33185V15.9593C38.3873 16.4484 38.7838 16.8449 39.2729 16.8449H48.1291C48.6182 16.8449 49.0147 16.4484 49.0147 15.9593V5.33185C49.0147 4.84273 48.6182 4.44623 48.1291 4.44623Z" stroke="#FF5200" stroke-width="1.5" stroke-linecap="round" stroke-linejoin="round"/>
<path d="M43.701 4.44623V5.33185" stroke="#FF5200" stroke-width="1.5" stroke-linecap="round" stroke-linejoin="round"/>
<path d="M41.0442 4.44623V5.33185" stroke="#FF5200" stroke-width="1.5" stroke-linecap="round" stroke-linejoin="round"/>
<path d="M46.3579 4.44623V5.33185" stroke="#FF5200" stroke-width="1.5" stroke-linecap="round" stroke-linejoin="round"/>
<path d="M43.701 15.9592V16.8448" stroke="#FF5200" stroke-width="1.5" stroke-linecap="round" stroke-linejoin="round"/>
<path d="M41.0442 15.9592V16.8448" stroke="#FF5200" stroke-width="1.5" stroke-linecap="round" stroke-linejoin="round"/>
<path d="M46.3579 15.9592V16.8448" stroke="#FF5200" stroke-width="1.5" stroke-linecap="round" stroke-linejoin="round"/>
<path d="M38.8302 10.6455H39.7158" stroke="#FF5200" stroke-width="1.5" stroke-linecap="round" stroke-linejoin="round"/>
<path d="M38.8302 13.3024H39.7158" stroke="#FF5200" stroke-width="1.5" stroke-linecap="round" stroke-linejoin="round"/>
<path d="M38.8302 7.98865H39.7158" stroke="#FF5200" stroke-width="1.5" stroke-linecap="round" stroke-linejoin="round"/>
<path d="M47.6863 10.6455H48.572" stroke="#FF5200" stroke-width="1.5" stroke-linecap="round" stroke-linejoin="round"/>
<path d="M47.6863 13.3024H48.572" stroke="#FF5200" stroke-width="1.5" stroke-linecap="round" stroke-linejoin="round"/>
<path d="M47.6863 7.98865H48.572" stroke="#FF5200" stroke-width="1.5" stroke-linecap="round" stroke-linejoin="round"/>
<path d="M4.73386 5.33179H8.27633" stroke="#FF5200" stroke-width="1.5" stroke-linecap="round" stroke-linejoin="round"/>
<path d="M4.73386 8.87427H17.1325" stroke="#FF5200" stroke-width="1.5" stroke-linecap="round" stroke-linejoin="round"/>
<path d="M4.73386 12.4167H14.4757" stroke="#FF5200" stroke-width="1.5" stroke-linecap="round" stroke-linejoin="round"/>
<path d="M4.73386 15.9592H10.0476" stroke="#FF5200" stroke-width="1.5" stroke-linecap="round" stroke-linejoin="round"/>
<path d="M33.1496 19.1218C34.706 17.5655 34.8462 15.1823 33.4628 13.7989C32.0793 12.4155 29.6962 12.5557 28.1398 14.112C26.5835 15.6684 26.4433 18.0515 27.8267 19.435C29.2101 20.8184 31.5933 20.6782 33.1496 19.1218Z" stroke="#FF5200" stroke-width="1.5" stroke-linecap="round" stroke-linejoin="round"/>
<path d="M25.9219 19.4349C27.3053 18.0515 27.1652 15.6683 25.6088 14.112C24.0525 12.5556 21.6693 12.4154 20.2859 13.7989C18.9025 15.1823 19.0426 17.5654 20.599 19.1218C22.1553 20.6781 24.5385 20.8183 25.9219 19.4349Z" stroke="#FF5200" stroke-width="1.5" stroke-linecap="round" stroke-linejoin="round"/>
<path d="M26.8743 18.6161C26.8743 18.6161 27.7599 23.3394 19.7894 23.9298" stroke="#FF5200" stroke-width="1.5" stroke-linecap="round" stroke-linejoin="round"/>
<path d="M26.8743 18.6161C26.8743 18.6161 25.9887 23.3394 33.9593 23.9298" stroke="#FF5200" stroke-width="1.5" stroke-linecap="round" stroke-linejoin="round"/>
</svg>
