<svg width="21" height="20" viewBox="0 0 21 20" fill="none" xmlns="http://www.w3.org/2000/svg">
<path d="M10.5 18.3334C10.5 18.3334 3.49999 14.5834 3.49999 8.50002C3.47664 7.61062 3.64044 6.72576 3.98175 5.89759C4.32307 5.06941 4.83498 4.31468 5.48733 3.67786C6.13968 3.04104 6.91927 2.53502 7.78016 2.18962C8.64105 1.84421 9.56582 1.66641 10.5 1.66669C11.4342 1.66641 12.3589 1.84421 13.2198 2.18962C14.0807 2.53502 14.8603 3.04104 15.5127 3.67786C16.165 4.31468 16.6769 5.06941 17.0182 5.89759C17.3595 6.72576 17.5233 7.61062 17.5 8.50002C17.5 14.5834 10.5 18.3334 10.5 18.3334Z" stroke="#FF5200" stroke-width="1.5" stroke-linecap="square"/>
<path d="M10.5 10.8333C11.9497 10.8333 13.125 9.71403 13.125 8.33331C13.125 6.9526 11.9497 5.83331 10.5 5.83331C9.05025 5.83331 7.875 6.9526 7.875 8.33331C7.875 9.71403 9.05025 10.8333 10.5 10.8333Z" stroke="#FF5200" stroke-width="1.5" stroke-linecap="square"/>
</svg>
