<svg width="27" height="13" viewBox="0 0 27 13" fill="none" xmlns="http://www.w3.org/2000/svg">
<path fill-rule="evenodd" clip-rule="evenodd" d="M19.0836 2.04865L19.6383 1.8513C22.1039 0.980922 23.3443 0.545731 24.2822 1.03152C25.22 1.51732 25.4873 2.81276 25.9461 5.36317L26.0116 5.73258C26.0886 6.0212 26.1009 6.32334 26.0477 6.61731C25.9946 6.91128 25.8772 7.18979 25.7041 7.43285C25.5477 7.63097 25.3291 7.7701 25.0839 7.82756C24.8401 7.88285 24.585 7.85618 24.3578 7.75166C24.0873 7.60371 23.8515 7.39936 23.6663 7.15235C23.481 6.90533 23.3506 6.62138 23.2838 6.31958L22.6182 4.07279L19.9055 4.70027C19.6126 4.79481 19.3034 4.82787 18.9972 4.7974C18.691 4.76693 18.3943 4.67358 18.1256 4.52316C17.9072 4.3768 17.7494 4.1555 17.6819 3.90074C17.6227 3.6581 17.6421 3.40283 17.7374 3.17205C17.8716 2.90115 18.0607 2.66133 18.2925 2.4679C18.5243 2.27447 18.7937 2.13168 19.0836 2.04865ZM21.9527 7.24056C20.8501 8.87593 19.3669 10.2168 17.6315 11.1471C15.9967 12.0156 14.184 12.493 12.335 12.5421C10.4859 12.5912 8.6506 12.2107 6.97233 11.4302C5.29405 10.6498 3.81825 9.4906 2.66017 8.04314C1.50209 6.59568 0.693089 4.89914 0.296334 3.08602V3.08602C0.110369 2.5485 0.110369 1.96376 0.296334 1.42623C0.355723 1.2943 0.446609 1.17911 0.560943 1.09084C0.675277 1.00258 0.809531 0.943966 0.951822 0.920197C1.18203 0.883876 1.41775 0.924786 1.62244 1.03659V1.03659C2.08472 1.30495 2.44083 1.72488 2.63088 2.22576C3.31679 3.85905 4.39543 5.29622 5.77028 6.40872C7.14514 7.52122 8.77333 8.27433 10.5092 8.6007C12.2451 8.92706 14.0345 8.8165 15.7174 8.27889C17.4003 7.74128 18.9241 6.7934 20.1526 5.52005C20.4655 5.204 20.8886 5.02253 21.3325 5.01401C21.5497 5.01541 21.7617 5.08049 21.9426 5.20124C22.1531 5.34536 22.2982 5.56736 22.3459 5.81861C22.4011 6.31469 22.2679 6.8134 21.9728 7.21526L21.9527 7.24056Z" fill="#FF5200"/>
</svg>
