<svg width="24" height="21" viewBox="0 0 24 21" fill="none" xmlns="http://www.w3.org/2000/svg">
<path d="M9.84236 18.795C10.3653 18.795 10.7893 18.4079 10.7893 17.9304C10.7893 17.4529 10.3653 17.0658 9.84236 17.0658C9.31938 17.0658 8.89542 17.4529 8.89542 17.9304C8.89542 18.4079 9.31938 18.795 9.84236 18.795Z" fill="white" stroke="white" stroke-width="1.5" stroke-linecap="square"/>
<path d="M17.4179 18.795C17.9409 18.795 18.3648 18.4079 18.3648 17.9304C18.3648 17.4529 17.9409 17.0658 17.4179 17.0658C16.8949 17.0658 16.4709 17.4529 16.4709 17.9304C16.4709 18.4079 16.8949 18.795 17.4179 18.795Z" fill="white" stroke="white" stroke-width="1.5" stroke-linecap="square"/>
<path d="M2.7403 2.36755H5.58113L8.13787 13.0886C8.22642 13.4851 8.46443 13.8406 8.81047 14.0934C9.15652 14.3462 9.58869 14.4801 10.0318 14.472H17.3232C17.7663 14.4801 18.1985 14.3462 18.5445 14.0934C18.8906 13.8406 19.1286 13.4851 19.2171 13.0886L20.7322 5.82596H7.09624" stroke="white" stroke-width="1.5" stroke-linecap="square"/>
</svg>
