<svg width="24" height="21" viewBox="0 0 24 21" fill="none" xmlns="http://www.w3.org/2000/svg">
<path d="M9.90034 18.795C10.4233 18.795 10.8473 18.4079 10.8473 17.9304C10.8473 17.4529 10.4233 17.0658 9.90034 17.0658C9.37736 17.0658 8.9534 17.4529 8.9534 17.9304C8.9534 18.4079 9.37736 18.795 9.90034 18.795Z" fill="black" stroke="black" stroke-width="1.5" stroke-linecap="square"/>
<path d="M17.4759 18.795C17.9989 18.795 18.4228 18.4079 18.4228 17.9304C18.4228 17.4529 17.9989 17.0658 17.4759 17.0658C16.9529 17.0658 16.5289 17.4529 16.5289 17.9304C16.5289 18.4079 16.9529 18.795 17.4759 18.795Z" fill="black" stroke="black" stroke-width="1.5" stroke-linecap="square"/>
<path d="M2.79827 2.36755H5.6391L8.19585 13.0886C8.28439 13.4851 8.5224 13.8406 8.86845 14.0934C9.2145 14.3462 9.64667 14.4801 10.0897 14.472H17.3812C17.8243 14.4801 18.2564 14.3462 18.6025 14.0934C18.9485 13.8406 19.1865 13.4851 19.2751 13.0886L20.7902 5.82596H7.15421" stroke="black" stroke-width="1.5" stroke-linecap="square"/>
</svg>
