<svg width="13" height="12" viewBox="0 0 13 12" fill="none" xmlns="http://www.w3.org/2000/svg">
<path d="M1.11776 1.62456L1.11831 1.62422L2.70649 0.656436C2.70655 0.656398 2.70661 0.656361 2.70667 0.656324C3.01594 0.467796 3.41429 0.514997 3.6709 0.771574C3.67091 0.771591 3.67093 0.771608 3.67095 0.771625L5.03594 2.13629L5.0367 2.13705C5.30749 2.40895 5.34347 2.8376 5.11824 3.15073L5.11811 3.15092L4.35302 4.21359C4.60085 5.38721 5.28314 6.28748 5.6156 6.62029C5.9444 6.94943 6.81108 7.60091 7.98435 7.84604L9.04719 7.08042L9.04746 7.08022C9.3606 6.85497 9.78927 6.89096 10.0612 7.16178L10.0619 7.16249L11.4265 8.5272C11.6818 8.78247 11.731 9.18103 11.5418 9.49101L1.11776 1.62456ZM1.11776 1.62456C0.941025 1.73257 0.813274 1.90611 0.763851 2.1093L1.24969 2.22747L0.764285 2.10753C0.70059 2.36531 0.182574 5.00361 3.51914 8.62665C3.52518 8.63337 3.53032 8.6388 3.53394 8.64255L3.53448 8.6431C3.54496 8.65433 3.56027 8.66973 3.58011 8.68654C7.19939 12.0149 9.83312 11.4966 10.0889 11.4344C10.2921 11.385 10.4656 11.2572 10.5736 11.0805L10.574 11.0799L11.5413 9.49192L1.11776 1.62456Z" stroke="#FF5200"/>
</svg>
