<svg width="24" height="24" viewBox="0 0 24 24" fill="none" xmlns="http://www.w3.org/2000/svg">
<path d="M4.88908 19.7C5.59616 17.28 6.92194 16.4 8.44658 16.4H15.6499C17.1746 16.4 18.5004 17.28 19.2074 19.7" stroke="black" stroke-width="1.5" stroke-linecap="square"/>
<path d="M12.0482 13.1C13.8787 13.1 15.3626 11.6225 15.3626 9.8C15.3626 7.97746 13.8787 6.5 12.0482 6.5C10.2177 6.5 8.73375 7.97746 8.73375 9.8C8.73375 11.6225 10.2177 13.1 12.0482 13.1Z" stroke="black" stroke-width="1.5" stroke-linecap="square"/>
<path d="M12.0481 23C18.1498 23 23.0962 18.0751 23.0962 12C23.0962 5.92487 18.1498 1 12.0481 1C5.94641 1 1 5.92487 1 12C1 18.0751 5.94641 23 12.0481 23Z" stroke="black" stroke-width="1.5" stroke-linecap="square"/>
</svg>
