<svg xmlns="http://www.w3.org/2000/svg" xmlns:xlink="http://www.w3.org/1999/xlink" width="59" height="553" viewBox="0 0 59 553"><svg width="47" height="47" fill="none" id="advantage-choice" y="0"><path d="M33.01 2.816l.153-.343-.153.343a1.22 1.22 0 1 1-.994 2.23 20.06 20.06 0 0 0-24.99 29.237A20.059 20.059 0 0 0 43.91 23.38v-1.958a1.221 1.221 0 0 1 2.442 0v1.959A22.5 22.5 0 1 1 6.749 8.75 22.501 22.501 0 0 1 33.01 2.815z" fill="#FF5200" stroke="#fff" stroke-width=".75"></path><path d="M23.238 25.196l.263.259.263-.259L44.276 5.017a1.22 1.22 0 1 1 1.712 1.74l-21.63 21.28a1.22 1.22 0 0 1-1.712 0l-6.489-6.377a1.22 1.22 0 0 1-.015-1.726l-.266-.262.266.262a1.221 1.221 0 0 1 1.727-.015l5.37 5.277z" fill="#FF5200" stroke="#fff" stroke-width=".75"></path></svg><svg width="59" height="43" fill="none" id="advantage-delivery" y="47"><path d="M57.902 35.182V21.743a7.74 7.74 0 0 0-1.048-3.888l-2.977-5.15a5.954 5.954 0 0 0-5.15-2.977H37.724V5.679A4.763 4.763 0 0 0 32.96.916H5.9a4.763 4.763 0 0 0-4.763 4.763v25.93A4.763 4.763 0 0 0 5.9 36.373h2.93a6.615 6.615 0 0 0 13.021 0H40.2a6.615 6.615 0 0 0 13.022 0h4.68v-1.191zm-9.187-23.055a3.573 3.573 0 0 1 3.09 1.787l2.882 4.96H37.724v-6.746h10.991zM8.822 33.998H5.9a2.381 2.381 0 0 1-2.382-2.382V5.691A2.382 2.382 0 0 1 5.9 3.31h27.06a2.382 2.382 0 0 1 2.382 2.382v28.3H21.85a6.615 6.615 0 0 0-13.022 0l-.006.006zm6.514 5.436a4.245 4.245 0 1 1 4.245-4.24 4.246 4.246 0 0 1-4.245 4.234v.006zm24.865-5.442h-2.477V21.243h17.761c0 .167.036.334.036.5v12.248h-2.299a6.615 6.615 0 0 0-13.021 0zm6.514 5.436a4.246 4.246 0 1 1 2.995-1.243 4.245 4.245 0 0 1-3.002 1.243h.007z" fill="#FF5200" stroke="#fff" stroke-width=".75"></path><path d="M29.305 16.802a9.711 9.711 0 1 0-9.712 9.71 9.723 9.723 0 0 0 9.712-9.71zm-17.053 0a7.33 7.33 0 1 1 14.659 0 7.33 7.33 0 0 1-14.66 0z" fill="#FF5200" stroke="#fff" stroke-width=".75"></path><path d="M23.755 17.087a1.19 1.19 0 0 0-1.19-1.19h-1.87v-2.751a1.19 1.19 0 0 0-2.382 0v3.935a1.19 1.19 0 0 0 1.191 1.191h3.06a1.19 1.19 0 0 0 1.191-1.185z" fill="#FF5200" stroke="#fff" stroke-width=".75"></path></svg><svg width="54" height="41" fill="none" id="advantage-gift" y="90"><path d="M26.874 4.446A3.541 3.541 0 0 0 23.332.904H4.734A3.541 3.541 0 0 0 1.19 4.446v12.399a3.542 3.542 0 0 0 3.543 3.542" stroke="#FF5200" stroke-width="1.5" stroke-linecap="round" stroke-linejoin="round"></path><path d="M49.015 20.387a3.541 3.541 0 0 0 3.542-3.542V4.446A3.542 3.542 0 0 0 49.015.904H30.417a3.542 3.542 0 0 0-3.543 3.542V36.33a3.541 3.541 0 0 1-3.542 3.542H4.734a3.541 3.541 0 0 1-3.543-3.543V23.93a3.542 3.542 0 0 1 3.543-3.543h44.28zm0 0a3.542 3.542 0 0 1 3.542 3.543v12.398a3.542 3.542 0 0 1-3.542 3.543H30.417a3.541 3.541 0 0 1-3.543-3.543" stroke="#FF5200" stroke-width="1.5" stroke-linecap="round" stroke-linejoin="round"></path><path d="M48.13 4.446h-8.857a.886.886 0 0 0-.886.886v10.627c0 .49.397.886.886.886h8.856c.49 0 .886-.397.886-.886V5.332a.886.886 0 0 0-.886-.886zm-4.429 0v.886m-2.657-.886v.886m5.314-.886v.886M43.701 15.96v.885m-2.657-.885v.885m5.314-.885v.885m-7.528-6.199h.886m-.886 2.656h.886m-.886-5.313h.886m7.97 2.657h.886m-.886 2.656h.886m-.886-5.313h.886M4.734 5.332h3.542M4.734 8.874h12.399M4.734 12.417h9.742M4.734 15.96h5.314m23.102 3.162c1.556-1.556 1.696-3.94.313-5.323-1.384-1.383-3.767-1.243-5.323.313-1.556 1.556-1.697 3.94-.313 5.323 1.383 1.383 3.766 1.243 5.323-.313z" stroke="#FF5200" stroke-width="1.5" stroke-linecap="round" stroke-linejoin="round"></path><path d="M25.922 19.435c1.383-1.383 1.243-3.767-.313-5.323-1.557-1.556-3.94-1.697-5.323-.313-1.384 1.383-1.243 3.766.313 5.323 1.556 1.556 3.94 1.696 5.323.313zm.952-.819s.886 4.723-7.085 5.314m7.085-5.314s-.885 4.723 7.085 5.314" stroke="#FF5200" stroke-width="1.5" stroke-linecap="round" stroke-linejoin="round"></path></svg><svg width="50" height="53" fill="none" id="advantage-staff" y="131"><path d="M19.627 23.665h-6.539a.817.817 0 0 1 0-1.634h6.54a.817.817 0 1 1 0 1.634zm16.347 0h-6.538a.818.818 0 0 1 0-1.634h6.538a.817.817 0 1 1 0 1.634zm-19.616 4.087a1.635 1.635 0 1 0 0-3.27 1.635 1.635 0 0 0 0 3.27zm16.347 0a1.635 1.635 0 1 0 0-3.27 1.635 1.635 0 0 0 0 3.27zm-3.269 6.539v1.635a4.904 4.904 0 0 1-9.809 0V34.29h9.809zm0-1.635h-9.809a1.635 1.635 0 0 0-1.635 1.635v1.635a6.539 6.539 0 1 0 13.078 0V34.29a1.635 1.635 0 0 0-1.634-1.635zm17.982-11.443v6.54h-4.904v-6.54h4.904zm0-1.635h-4.904a1.635 1.635 0 0 0-1.635 1.635v6.54a1.635 1.635 0 0 0 1.635 1.634h4.904a1.635 1.635 0 0 0 1.635-1.635v-6.539a1.635 1.635 0 0 0-1.635-1.635zM6.55 21.213v6.54a3.27 3.27 0 1 1 0-6.54zm0-1.635a4.904 4.904 0 0 0 0 9.809 1.635 1.635 0 0 0 1.634-1.635v-6.539a1.635 1.635 0 0 0-1.635-1.635z" fill="#FF5200"></path><path d="M46.6 29.387a.817.817 0 0 0-.817-.817.818.818 0 0 0-.752.882 18.767 18.767 0 0 1-4.43 13.078 15.677 15.677 0 0 1-2.436 2.093 15.04 15.04 0 0 0 4.349-10.74V10.488a7.26 7.26 0 0 0-7.259-7.258h-6.114a4.904 4.904 0 0 0-9.22 0h-6.114a7.242 7.242 0 0 0-6.833 4.904h-5.33a1.635 1.635 0 0 0-1.225.556A1.635 1.635 0 0 0 .01 9.966c.49 3.858 2.877 5.264 6.54 6.229v17.687a15.154 15.154 0 0 0 13.077 14.975v1.782a1.635 1.635 0 0 0 1.635 1.634H27.8a1.635 1.635 0 0 0 1.635-1.635v-1.16a19.879 19.879 0 0 0 12.293-5.918A20.205 20.205 0 0 0 46.6 29.387zM13.807 4.866h7.455a3.27 3.27 0 0 1 6.539 0h7.454a5.624 5.624 0 0 1 5.624 5.623v4.185h-8.174a1.635 1.635 0 0 0-1.112-1.634 5.984 5.984 0 0 1-4.528-4.022 1.635 1.635 0 0 0-1.52-.883H8.723a5.59 5.59 0 0 1 5.084-3.27zM1.645 9.77h23.9a7.665 7.665 0 0 0 5.525 4.904H7.17c-.228 0-.408-.114-.62-.18-3.27-.899-4.562-2.043-4.905-4.724zM27.8 47.37v3.269h-6.54v-4.905h6.54v1.635zm1.635-.148v-1.488A1.635 1.635 0 0 0 27.8 44.1h-6.54a1.635 1.635 0 0 0-1.634 1.634v1.472A13.503 13.503 0 0 1 8.184 33.882V16.31h32.695v17.573a13.503 13.503 0 0 1-11.443 13.324v.016z" fill="#FF5200"></path></svg><svg width="38" height="51" fill="none" id="advantage-warranty" y="184"><path d="M19.264 50.734l-9.79-7.692C3.805 38.614.619 32.01.619 24.862V8.624l.699-.078C6.134 8.158 18.487 5.75 18.487 0h1.554c0 5.75 12.354 8.158 17.17 8.546l.7.078v16.238c0 7.148-3.186 13.752-8.857 18.18l-9.79 7.692zM2.172 10.022v14.84c0 6.682 3.03 12.82 8.235 16.937l8.857 6.915 8.857-6.915c5.206-4.117 8.236-10.255 8.236-16.937v-14.84c-2.952-.31-14.063-1.942-17.093-7.147-3.03 5.205-14.14 6.837-17.092 7.148z" fill="#FF5200"></path><path d="M19.264 46.772l-7.847-6.138c-4.895-3.885-7.692-9.556-7.692-15.772V11.421l.622-.078c1.632-.233 4.118-.699 6.604-1.476 3.34-1.01 5.982-2.33 7.77-3.962l.543-.466.544.466c1.787 1.554 4.351 2.952 7.77 3.962 2.486.777 4.972 1.243 6.604 1.476l.621.078v13.441c0 6.138-2.797 11.887-7.692 15.694l-7.847 6.216zM5.28 12.742v12.12c0 5.672 2.564 10.955 7.07 14.451l6.915 5.439 6.915-5.439c4.506-3.418 7.07-8.702 7.07-14.45V12.741c-1.631-.31-3.885-.7-6.215-1.399-3.264-1.01-5.905-2.253-7.77-3.807-1.942 1.554-4.506 2.797-7.77 3.807a89.62 89.62 0 0 1-6.215 1.399z" fill="#FF5200"></path><path d="M17.71 30.611l-5.205-5.205 1.088-1.088 4.117 4.118 9.945-9.945 1.088 1.088L17.71 30.61z" fill="#FF5200"></path></svg><svg width="8" height="5" fill="none" id="arrow-down" y="235"><path d="M4 3.5l.48.576a.75.75 0 0 1-.96 0L4 3.5zM.52 1.576A.75.75 0 0 1 1.48.424L.52 1.576zm6-1.152a.75.75 0 0 1 .96 1.152L6.52.424zm-3 3.652l-3-2.5.96-1.152 3 2.5-.96 1.152zm0-1.152l3-2.5.96 1.152-3 2.5-.96-1.152z" fill="#000"></path></svg><svg width="8" height="5" fill="none" id="arrow-down-active" y="240"><path d="M4 3.5l.48.576a.75.75 0 0 1-.96 0L4 3.5zM.52 1.576A.75.75 0 0 1 1.48.424L.52 1.576zm6-1.152a.75.75 0 0 1 .96 1.152L6.52.424zm-3 3.652l-3-2.5.96-1.152 3 2.5-.96 1.152zm0-1.152l3-2.5.96 1.152-3 2.5-.96-1.152z" fill="#FF5200"></path></svg><svg width="21" height="20" fill="none" id="city" y="245"><path d="M10.5 18.333s-7-3.75-7-9.833c-.023-.89.14-1.774.482-2.602a6.641 6.641 0 0 1 1.505-2.22A7.024 7.024 0 0 1 7.78 2.19a7.303 7.303 0 0 1 2.72-.523 7.3 7.3 0 0 1 2.72.523c.86.345 1.64.851 2.293 1.488a6.642 6.642 0 0 1 1.505 2.22c.341.828.505 1.713.482 2.602 0 6.083-7 9.833-7 9.833z" stroke="#FF5200" stroke-width="1.5" stroke-linecap="square"></path><path d="M10.5 10.833c1.45 0 2.625-1.119 2.625-2.5 0-1.38-1.175-2.5-2.625-2.5s-2.625 1.12-2.625 2.5c0 1.381 1.175 2.5 2.625 2.5z" stroke="#FF5200" stroke-width="1.5" stroke-linecap="square"></path></svg><svg width="25" height="25" fill="none" id="header-cart" y="265"><path d="M10.417 22.396a1.042 1.042 0 1 0 0-2.083 1.042 1.042 0 0 0 0 2.083zm8.333 0a1.042 1.042 0 1 0 0-2.083 1.042 1.042 0 0 0 0 2.083zM2.604 2.604H5.73l2.813 12.917a2.083 2.083 0 0 0 2.083 1.666h8.02a2.084 2.084 0 0 0 2.084-1.666l1.667-8.75h-15" stroke="#000" stroke-width="1.5" stroke-linecap="square"></path></svg><svg width="24" height="23" fill="none" id="header-compare" y="290"><g clip-path="url(#a)" stroke="#000" stroke-width="1.5" stroke-linecap="round" stroke-linejoin="round"><path d="M3.987 20.125v-6.708m0-3.834V2.875m7.973 17.25V11.5m0-3.833V2.875m7.973 17.25v-4.792m0-3.833V2.875M.997 13.417h5.98m1.993-5.75h5.98m1.993 7.666h5.98"></path></g><defs><clipPath id="a"><path fill="#fff" d="M0 0h23.92v23H0z"></path></clipPath></defs></svg><svg width="21" height="21" fill="none" id="header-favorite" y="313"><path d="M18.235 4.034a4.812 4.812 0 0 0-6.807 0l-.928.927-.927-.927a4.814 4.814 0 1 0-6.808 6.807l.928.928 6.807 6.807 6.808-6.807.927-.928a4.814 4.814 0 0 0 0-6.807z" stroke="#000" stroke-width="1.5" stroke-linecap="square"></path></svg><svg width="27" height="13" fill="none" id="ifort-arrow-black" y="334"><path fill-rule="evenodd" clip-rule="evenodd" d="M19.084 2.049l.554-.198c2.466-.87 3.706-1.305 4.644-.82.938.486 1.205 1.782 1.664 4.332l.066.37a2.03 2.03 0 0 1-.308 1.7 1.114 1.114 0 0 1-1.346.319 2.16 2.16 0 0 1-1.074-1.432l-.666-2.247-2.712.627a2.236 2.236 0 0 1-1.78-.177 1.083 1.083 0 0 1-.444-.622c-.06-.243-.04-.498.055-.729a2.174 2.174 0 0 1 1.347-1.123zm2.869 5.192a12.117 12.117 0 0 1-4.322 3.906 11.966 11.966 0 0 1-14.97-3.104A12.062 12.062 0 0 1 .295 3.086a2.539 2.539 0 0 1 0-1.66A.88.88 0 0 1 .952.92c.23-.036.466.005.67.117a2.33 2.33 0 0 1 1.009 1.189 10.72 10.72 0 0 0 3.14 4.183 10.648 10.648 0 0 0 9.947 1.87 10.679 10.679 0 0 0 4.435-2.759 1.706 1.706 0 0 1 1.18-.506c.217.001.429.066.61.187.21.144.355.366.403.618.055.496-.078.994-.373 1.396l-.02.026z" fill="#000"></path></svg><svg width="27" height="13" fill="none" id="ifort-arrow-orange" y="347"><path fill-rule="evenodd" clip-rule="evenodd" d="M19.084 2.049l.554-.198c2.466-.87 3.706-1.305 4.644-.82.938.486 1.205 1.782 1.664 4.332l.066.37a2.03 2.03 0 0 1-.308 1.7 1.114 1.114 0 0 1-1.346.319 2.16 2.16 0 0 1-1.074-1.432l-.666-2.247-2.712.627a2.236 2.236 0 0 1-1.78-.177 1.083 1.083 0 0 1-.444-.622c-.06-.243-.04-.498.055-.729a2.174 2.174 0 0 1 1.347-1.123zm2.869 5.192a12.117 12.117 0 0 1-4.322 3.906 11.966 11.966 0 0 1-14.97-3.104A12.062 12.062 0 0 1 .295 3.086a2.539 2.539 0 0 1 0-1.66A.88.88 0 0 1 .952.92c.23-.036.466.005.67.117a2.33 2.33 0 0 1 1.009 1.189 10.72 10.72 0 0 0 3.14 4.183 10.648 10.648 0 0 0 9.947 1.87 10.679 10.679 0 0 0 4.435-2.759 1.706 1.706 0 0 1 1.18-.506c.217.001.429.066.61.187.21.144.355.366.403.618.055.496-.078.994-.373 1.396l-.02.026z" fill="#FF5200"></path></svg><svg width="24" height="21" fill="none" id="item-cart" y="360"><path d="M9.842 18.795c.523 0 .947-.387.947-.865 0-.477-.424-.864-.947-.864-.523 0-.947.387-.947.864 0 .478.424.865.947.865zm7.576 0c.523 0 .947-.387.947-.865 0-.477-.424-.864-.947-.864-.523 0-.947.387-.947.864 0 .478.424.865.947.865z" fill="#fff" stroke="#fff" stroke-width="1.5" stroke-linecap="square"></path><path d="M2.74 2.368h2.841l2.557 10.72c.088.397.326.753.672 1.005.347.253.779.387 1.222.379h7.291c.443.008.875-.126 1.221-.379.347-.252.585-.608.673-1.004l1.515-7.263H7.096" stroke="#fff" stroke-width="1.5" stroke-linecap="square"></path></svg><svg width="24" height="21" fill="none" id="item-cart-active" y="381"><path d="M9.9 18.795c.523 0 .947-.387.947-.865 0-.477-.424-.864-.947-.864-.523 0-.947.387-.947.864 0 .478.424.865.947.865zm7.576 0c.523 0 .947-.387.947-.865 0-.477-.424-.864-.947-.864-.523 0-.947.387-.947.864 0 .478.424.865.947.865z" fill="#000" stroke="#000" stroke-width="1.5" stroke-linecap="square"></path><path d="M2.798 2.368H5.64l2.557 10.72c.088.397.326.753.672 1.005.346.253.779.387 1.222.379h7.291c.443.008.875-.126 1.221-.379.346-.252.584-.608.673-1.004l1.515-7.263H7.154" stroke="#000" stroke-width="1.5" stroke-linecap="square"></path></svg><svg width="19" height="18" fill="none" id="item-compare" y="402"><g clip-path="url(#a)" stroke="#B9B9B9" stroke-width="1.5" stroke-linecap="round" stroke-linejoin="round"><path d="M3.95 15.769V10.58m0-2.963V2.429m5.93 13.34v-6.67m0-2.964V2.429m5.928 13.34v-3.706m0-2.963V2.43M1.727 10.581h4.447m1.482-4.446h4.446m1.483 5.928h4.446"></path></g><defs><clipPath id="a"><path fill="#fff" transform="translate(.986 .206)" d="M0 0h17.786v17.786H0z"></path></clipPath></defs></svg><svg width="19" height="18" fill="none" id="item-compare-active" y="420"><g clip-path="url(#a)" stroke="#FF5200" stroke-width="1.5" stroke-linecap="round" stroke-linejoin="round"><path d="M3.893 15.769V10.58m0-2.963V2.429m5.928 13.34v-6.67m0-2.964V2.429m5.929 13.34v-3.706m0-2.963V2.43M1.67 10.581h4.446m1.482-4.446h4.446m1.483 5.928h4.446"></path></g><defs><clipPath id="a"><path fill="#fff" transform="translate(.928 .206)" d="M0 0h17.786v17.786H0z"></path></clipPath></defs></svg><svg width="20" height="17" fill="none" id="item-favorite" y="438"><path d="M1.072 5.485c0 4.617 8.894 10.519 8.894 10.519s8.892-5.738 8.893-10.519c0-2.869-1.977-4.303-4.447-4.303-2.816 0-3.953 2.869-4.446 2.869-.494 0-1.75-2.869-4.447-2.869-2.696 0-4.447 1.75-4.447 4.303z" stroke="#B9B9B9" stroke-width="1.5"></path></svg><svg width="20" height="17" fill="none" id="item-favorite-active" y="455"><path d="M1.072 5.485c0 4.617 8.894 10.519 8.894 10.519s8.892-5.738 8.893-10.519c0-2.869-1.977-4.303-4.447-4.303-2.816 0-3.953 2.869-4.446 2.869-.494 0-1.75-2.869-4.447-2.869-2.696 0-4.447 1.75-4.447 4.303z" stroke="#FF5200" stroke-width="1.5"></path></svg><svg width="26" height="26" fill="none" id="search" y="472"><path d="M11.917 20.583a8.667 8.667 0 1 0 0-17.333 8.667 8.667 0 0 0 0 17.333zM22.75 22.75l-4.712-4.712" stroke="#A0A0A0" stroke-linecap="square"></path></svg><svg width="26" height="26" fill="none" id="search-active" y="498"><path d="M11.917 20.583a8.667 8.667 0 1 0 0-17.333 8.667 8.667 0 0 0 0 17.333zM22.75 22.75l-4.712-4.712" stroke="#FF5200" stroke-linecap="square"></path></svg><svg width="9" height="5" fill="none" id="select" y="524"><path d="M4.167 3.844l.317.387a.5.5 0 0 1-.651-.015l.334-.372zM.666 1.365a.5.5 0 0 1 .668-.743l-.668.743zM7.334.607a.5.5 0 0 1 .634.774L7.334.607zM3.833 4.216L.666 1.366l.668-.744 3.168 2.85-.67.744zm.017-.759L7.334.607l.634.774-3.484 2.85-.634-.774z" fill="#FF5200"></path></svg><svg width="24" height="24" fill="none" id="user" y="529"><path d="M4.89 19.7c.706-2.42 2.032-3.3 3.557-3.3h7.203c1.525 0 2.85.88 3.557 3.3m-7.159-6.6a3.307 3.307 0 0 0 3.315-3.3c0-1.823-1.484-3.3-3.315-3.3a3.307 3.307 0 0 0-3.314 3.3c0 1.822 1.484 3.3 3.314 3.3z" stroke="#000" stroke-width="1.5" stroke-linecap="square"></path><path d="M12.048 23c6.102 0 11.048-4.925 11.048-11S18.15 1 12.048 1 1 5.925 1 12s4.946 11 11.048 11z" stroke="#000" stroke-width="1.5" stroke-linecap="square"></path></svg></svg>