<svg xmlns="http://www.w3.org/2000/svg" xmlns:xlink="http://www.w3.org/1999/xlink" width="25" height="79" viewBox="0 0 25 79"><svg width="8" height="5" viewBox="0 0 8 5" fill="none" id="arrow-down" y="0"><path d="M4 3.5l.48.576a.75.75 0 0 1-.96 0L4 3.5zM.52 1.576A.75.75 0 0 1 1.48.424L.52 1.576zm6-1.152a.75.75 0 0 1 .96 1.152L6.52.424zm-3 3.652l-3-2.5.96-1.152 3 2.5-.96 1.152zm0-1.152l3-2.5.96 1.152-3 2.5-.96-1.152z" fill="#000"></path></svg><svg width="8" height="5" viewBox="0 0 8 5" fill="none" id="arrow-down-active" y="5"><path d="M4 3.5l.48.576a.75.75 0 0 1-.96 0L4 3.5zM.52 1.576A.75.75 0 0 1 1.48.424L.52 1.576zm6-1.152a.75.75 0 0 1 .96 1.152L6.52.424zm-3 3.652l-3-2.5.96-1.152 3 2.5-.96 1.152zm0-1.152l3-2.5.96 1.152-3 2.5-.96-1.152z" fill="#FF5200"></path></svg><svg width="24" height="23" viewBox="0 0 24 23" fill="none" id="compare" y="10"><g clip-path="url(#a)" stroke="#000" stroke-width="1.5" stroke-linecap="round" stroke-linejoin="round"><path d="M3.987 20.125v-6.708M3.987 9.583V2.875M11.96 20.125V11.5M11.96 7.667V2.875M19.933 20.125v-4.792M19.933 11.5V2.875M.997 13.417h5.98M8.97 7.667h5.98M16.943 15.333h5.98"></path></g><defs><clipPath id="a"><path fill="#fff" d="M0 0h23.92v23H0z"></path></clipPath></defs></svg><svg width="25" height="25" viewBox="0 0 25 25" fill="none" id="shopping-cart" y="33"><path d="M10.417 22.396a1.042 1.042 0 1 0 0-2.083 1.042 1.042 0 0 0 0 2.083zM18.75 22.396a1.042 1.042 0 1 0 0-2.083 1.042 1.042 0 0 0 0 2.083zM2.604 2.604H5.73l2.813 12.917a2.083 2.083 0 0 0 2.083 1.666h8.02a2.084 2.084 0 0 0 2.084-1.666l1.667-8.75h-15" stroke="#000" stroke-width="1.5" stroke-linecap="square"></path></svg><svg width="21" height="21" viewBox="0 0 21 21" fill="none" id="whish-list" y="58"><path d="M18.235 4.034a4.812 4.812 0 0 0-6.807 0l-.928.927-.927-.927a4.814 4.814 0 1 0-6.808 6.807l.928.928 6.807 6.807 6.808-6.807.927-.928a4.814 4.814 0 0 0 0-6.807z" stroke="#000" stroke-width="1.5" stroke-linecap="square"></path></svg></svg>