<svg width="47" height="47" viewBox="0 0 47 47" fill="none" xmlns="http://www.w3.org/2000/svg">
<path d="M33.0101 2.81564L33.1628 2.4731L33.0101 2.81564C33.6261 3.09007 33.9029 3.81186 33.6285 4.42781C33.3541 5.04375 32.6323 5.3206 32.0163 5.04617C23.9021 1.43092 14.3763 3.58301 8.60473 10.3354C2.83314 17.0877 2.19058 26.8317 7.0255 34.2834C11.8604 41.7351 21.0212 45.1192 29.5398 42.6007C38.0585 40.0822 43.9058 32.2609 43.9109 23.3792V23.379V21.4214C43.9109 20.7471 44.4576 20.2004 45.1319 20.2004C45.8062 20.2004 46.3528 20.7471 46.3528 21.4214V23.3797C46.3471 33.3437 39.7879 42.1172 30.2322 44.9424C20.6764 47.7676 10.4006 43.9714 4.97701 35.6125C-0.446565 27.2536 0.274226 16.3232 6.74851 8.74875C13.2228 1.17437 23.9082 -1.23971 33.0101 2.81564Z" fill="#FF5200" stroke="white" stroke-width="0.75"/>
<path d="M23.2384 25.1962L23.5014 25.4546L23.7643 25.196L44.2757 5.01721C44.7564 4.54431 45.5294 4.55063 46.0023 5.03132C46.4752 5.51202 46.4689 6.28506 45.9882 6.75795L24.3581 28.0373C23.8831 28.5046 23.1212 28.5048 22.646 28.0377L16.157 21.6603C15.676 21.1877 15.6693 20.4146 16.142 19.9337L15.8763 19.6725L16.142 19.9337C16.6147 19.4528 17.3877 19.4461 17.8686 19.9187L23.2384 25.1962Z" fill="#FF5200" stroke="white" stroke-width="0.75"/>
</svg>
