<svg width="8" height="15" viewBox="0 0 8 15" xmlns="http://www.w3.org/2000/svg">
<path d="M6.7541 7.03734L7.52758 7.67117C7.84088 7.28884 7.82784 6.73497 7.49689 6.36781L6.7541 7.03734ZM2.05492 0.330467C1.68514 -0.0797603 1.05283 -0.112555 0.642601 0.257218C0.232373 0.62699 0.199579 1.25931 0.569351 1.66953L2.05492 0.330467ZM0.538654 13.0446C0.188604 13.4718 0.251132 14.1019 0.678313 14.4519C1.10549 14.802 1.73556 14.7394 2.08561 14.3122L0.538654 13.0446ZM7.49689 6.36781L2.05492 0.330467L0.569351 1.66953L6.01132 7.70688L7.49689 6.36781ZM5.98063 6.40352L0.538654 13.0446L2.08561 14.3122L7.52758 7.67117L5.98063 6.40352Z"/>
</svg>
