<svg width="19" height="8" viewBox="0 0 19 8" xmlns="http://www.w3.org/2000/svg">
<path d="M0.818359 3.58104C0.542217 3.58104 0.318359 3.8049 0.318359 4.08104C0.318359 4.35718 0.542217 4.58104 0.818359 4.58104V3.58104ZM18.2969 4.08104L18.6839 4.39766C18.8402 4.2066 18.8337 3.93005 18.6685 3.74656L18.2969 4.08104ZM16.2595 1.06981C16.0747 0.864559 15.7586 0.84792 15.5533 1.03265C15.3481 1.21738 15.3315 1.53352 15.5162 1.73878L16.2595 1.06981ZM15.5008 6.70884C15.326 6.92256 15.3575 7.23757 15.5712 7.41243C15.7849 7.5873 16.0999 7.5558 16.2748 7.34208L15.5008 6.70884ZM0.818359 4.58104H18.2969V3.58104H0.818359V4.58104ZM18.6685 3.74656L16.2595 1.06981L15.5162 1.73878L17.9253 4.41552L18.6685 3.74656ZM17.9099 3.76442L15.5008 6.70884L16.2748 7.34208L18.6839 4.39766L17.9099 3.76442Z"/>
</svg>
