<svg width="8" height="15" viewBox="0 0 8 15" xmlns="http://www.w3.org/2000/svg">
<path d="M0.999924 7.03734L0.226444 7.67117C-0.0868521 7.28884 -0.0738072 6.73497 0.257141 6.36781L0.999924 7.03734ZM5.69911 0.330467C6.06888 -0.0797603 6.7012 -0.112555 7.11143 0.257218C7.52165 0.62699 7.55445 1.25931 7.18468 1.66953L5.69911 0.330467ZM7.21537 13.0446C7.56542 13.4718 7.5029 14.1019 7.07572 14.4519C6.64853 14.802 6.01846 14.7394 5.66841 14.3122L7.21537 13.0446ZM0.257141 6.36781L5.69911 0.330467L7.18468 1.66953L1.74271 7.70688L0.257141 6.36781ZM1.7734 6.40352L7.21537 13.0446L5.66841 14.3122L0.226444 7.67117L1.7734 6.40352Z"/>
</svg>
