<svg width="16" height="8" viewBox="0 0 16 8" xmlns="http://www.w3.org/2000/svg">
<path d="M8.43092 1.52531L7.7971 0.751835C8.17943 0.438539 8.7333 0.451584 9.10045 0.782532L8.43092 1.52531ZM15.1378 6.2245C15.548 6.59428 15.5808 7.22659 15.211 7.63682C14.8413 8.04705 14.209 8.07984 13.7987 7.71007L15.1378 6.2245ZM2.42366 7.74076C1.99648 8.09081 1.36641 8.02829 1.01636 7.60111C0.66631 7.17392 0.728838 6.54386 1.15602 6.19381L2.42366 7.74076ZM9.10045 0.782532L15.1378 6.2245L13.7987 7.71007L7.76138 2.2681L9.10045 0.782532ZM9.06474 2.29879L2.42366 7.74076L1.15602 6.19381L7.7971 0.751835L9.06474 2.29879Z"/>
</svg>
