<svg width="41" height="14" viewBox="0 0 41 14" fill="none" xmlns="http://www.w3.org/2000/svg">
<path d="M17.9661 13.4467H14.7447L16.7581 1.07339H19.9798L17.9661 13.4467ZM12.0347 1.07339L8.96351 9.58384L8.6001 7.75121L8.60043 7.75187L7.51648 2.18746C7.51648 2.18746 7.38541 1.07339 5.98835 1.07339H0.911139L0.851562 1.2829C0.851562 1.2829 2.40418 1.60593 4.22125 2.69717L7.02001 13.447H10.3765L15.5017 1.07339H12.0347ZM37.3727 13.4467H40.3307L37.7517 1.07306H35.1621C33.9663 1.07306 33.675 1.99516 33.675 1.99516L28.8705 13.4467H32.2287L32.9002 11.6088H36.9954L37.3727 13.4467ZM33.8279 9.06983L35.5206 4.43944L36.4728 9.06983H33.8279ZM29.1224 4.04888L29.5821 1.39179C29.5821 1.39179 28.1636 0.852295 26.6848 0.852295C25.0861 0.852295 21.2898 1.55099 21.2898 4.94848C21.2898 8.14508 25.7454 8.18479 25.7454 9.86385C25.7454 11.5429 21.7489 11.242 20.4299 10.1832L19.951 12.9615C19.951 12.9615 21.3894 13.6602 23.5871 13.6602C25.7855 13.6602 29.1019 12.5219 29.1019 9.42398C29.1019 6.20686 24.6062 5.90733 24.6062 4.50861C24.6066 3.10957 27.7439 3.28929 29.1224 4.04888Z" fill="#2566AF"/>
</svg>
