<svg width="43" height="12" viewBox="0 0 43 12" fill="none" xmlns="http://www.w3.org/2000/svg">
<g id="card-mir" clip-path="url(#clip0)">
<path id="Vector" d="M9.37412 1.575L7.78281 7.0875H7.51056L5.91926 1.575C5.64701 0.642186 4.79267 0 3.8163 0H0V12H3.82099V4.90781H4.09326L6.28071 12H9.01269L11.1954 4.90781H11.4677V12H15.2887V0H11.4724C10.5007 0 9.64639 0.642186 9.37412 1.575ZM30.5304 12H34.3749V8.45156H38.2429C40.266 8.45156 41.9889 7.30781 42.6553 5.7H30.5304V12ZM23.7193 1.26563L21.0296 7.09219H20.7573V0H16.9363V12H20.18C21.0343 12 21.8087 11.5031 22.1655 10.7344L24.8552 4.9125H25.1276V12H28.9485V0H25.7049C24.8505 0 24.0761 0.496875 23.7193 1.26563Z" fill="#006848"/>
<path id="Vector_2" d="M38.6231 0C39.7262 0 40.726 0.421875 41.4818 1.11563C42.3267 1.88438 42.8571 2.99064 42.8571 4.22344C42.8571 4.47656 42.829 4.725 42.7867 4.96875H35.6892C33.2859 4.96875 31.2486 3.39375 30.5633 1.21875C30.5539 1.19531 30.5492 1.16719 30.5398 1.13906C30.521 1.07344 30.507 1.00313 30.4882 0.9375C30.4178 0.632811 30.3708 0.323436 30.3521 0H38.6231Z" fill="#1E5CD8"/>
</g>
<defs>
<linearGradient id="paint0_linear" x1="42.8572" y1="15.5398" x2="30.4286" y2="15.5398" gradientUnits="userSpaceOnUse">
<stop stop-color="#1E5CD8"/>
<stop offset="1" stop-color="#02AFFF"/>
</linearGradient>
<clipPath id="clip0">
<rect width="42.8571" height="12" fill="white"/>
</clipPath>
</defs>
</svg>
