<svg width="21" height="21" viewBox="0 0 21 21" fill="none" xmlns="http://www.w3.org/2000/svg">
<path d="M10.5194 20.0388C15.7741 20.0388 20.0388 15.7741 20.0388 10.5194C20.0388 5.26469 15.7741 1 10.5194 1C5.26469 1 1 5.26469 1 10.5194C1 15.7741 5.26469 20.0388 10.5194 20.0388ZM10.5194 1.76155C15.3552 1.76155 19.2772 5.68354 19.2772 10.5194C19.2772 15.3552 15.3552 19.2772 10.5194 19.2772C5.68354 19.2772 1.76155 15.3552 1.76155 10.5194C1.76155 5.68354 5.68354 1.76155 10.5194 1.76155Z" fill="#FF5200" stroke="#FF5200" stroke-width="0.5"/>
<path d="M3.19922 10.5185C3.19922 12.5315 4.00444 14.3616 5.32208 15.6792C5.32208 15.6792 5.32208 15.6792 5.32208 15.7158C5.32208 15.7158 5.32208 15.7158 5.35868 15.7158C6.67632 17.0335 8.50638 17.8387 10.5194 17.8387C12.5325 17.8387 14.3625 17.0335 15.6802 15.7158C15.6802 15.7158 15.6802 15.7158 15.7168 15.7158C15.7168 15.7158 15.7168 15.7158 15.7168 15.6792C17.0344 14.3616 17.8397 12.5315 17.8397 10.5185C17.8397 8.5054 17.0344 6.67535 15.7168 5.35771C15.7168 5.35771 15.7168 5.35771 15.7168 5.32111C15.7168 5.32111 15.7168 5.32111 15.6802 5.32111C14.3625 4.00347 12.5325 3.19824 10.5194 3.19824C8.50638 3.19824 6.67632 4.00347 5.35868 5.32111C5.35868 5.32111 5.35868 5.32111 5.32208 5.32111C5.32208 5.32111 5.32208 5.32111 5.32208 5.35771C4.00444 6.67535 3.19922 8.5054 3.19922 10.5185ZM4.59006 10.1524H3.96784C4.04104 8.6152 4.66326 7.22436 5.65149 6.12633L6.0907 6.56554C6.16391 6.63874 6.27371 6.67535 6.34691 6.67535C6.42011 6.67535 6.52992 6.63874 6.60312 6.56554C6.74952 6.41914 6.74952 6.19953 6.60312 6.05313L6.12731 5.61391C7.22534 4.66229 8.61618 4.04007 10.1534 3.93026V4.55248C10.1534 4.77209 10.2998 4.91849 10.5194 4.91849C10.739 4.91849 10.8854 4.77209 10.8854 4.55248V3.93026C12.4227 4.00347 13.8135 4.62568 14.9116 5.61391L14.4724 6.05313C14.3259 6.19953 14.3259 6.41914 14.4724 6.56554C14.5456 6.63874 14.6554 6.67535 14.7286 6.67535C14.8018 6.67535 14.9116 6.63874 14.9848 6.56554L15.424 6.12633C16.3756 7.22436 16.9978 8.6152 17.1076 10.1524H16.4854C16.2658 10.1524 16.1194 10.2989 16.1194 10.5185C16.1194 10.7381 16.2658 10.8845 16.4854 10.8845H17.1076C17.0344 12.4217 16.4122 13.8126 15.424 14.9106L14.9848 14.4714C14.8384 14.325 14.6188 14.325 14.4724 14.4714C14.3259 14.6178 14.3259 14.8374 14.4724 14.9838L14.9116 15.423C13.8135 16.3746 12.4227 16.9969 10.8854 17.1067V16.4844C10.8854 16.2648 10.739 16.1184 10.5194 16.1184C10.2998 16.1184 10.1534 16.2648 10.1534 16.4844V17.1067C8.61618 17.0335 7.22534 16.4112 6.12731 15.423L6.56652 14.9838C6.71292 14.8374 6.71292 14.6178 6.56652 14.4714C6.42011 14.325 6.20051 14.325 6.0541 14.4714L5.61489 14.9106C4.66326 13.8126 4.04104 12.4217 3.93124 10.8845H4.55346C4.77307 10.8845 4.91947 10.7381 4.91947 10.5185C4.91947 10.2989 4.77307 10.1524 4.59006 10.1524Z" fill="#FF5200" stroke="#FF5200" stroke-width="0.5"/>
<path d="M10.7121 11.5338C10.8958 11.5338 11.049 11.4726 11.2327 11.4113L12.6108 12.7895C12.6721 12.8507 12.764 12.8813 12.8252 12.8813C12.8865 12.8813 12.9783 12.8507 13.0396 12.7895C13.1621 12.667 13.1621 12.4832 13.0396 12.3607L11.6615 10.9826C11.8146 10.6763 11.8146 10.2782 11.6615 9.97195L13.6521 7.98132C13.7746 7.85882 13.7746 7.67507 13.6521 7.55257C13.5296 7.43007 13.3458 7.43007 13.2233 7.55257L11.2327 9.5432C10.8346 9.32883 10.314 9.39008 9.97708 9.72695C9.54833 10.1557 9.54833 10.8295 9.97708 11.2582C10.1608 11.442 10.4365 11.5338 10.7121 11.5338ZM10.3752 10.1251C10.4671 10.0332 10.5896 10.0026 10.7121 10.0026C10.8346 10.0026 10.9571 10.0332 11.049 10.1251C11.2327 10.3088 11.2327 10.5845 11.049 10.7682C10.8652 10.952 10.5896 10.952 10.4058 10.7682C10.2221 10.6151 10.2221 10.3088 10.3752 10.1251Z" fill="#FF5200" stroke="#FF5200" stroke-width="0.5"/>
</svg>
