<svg width="19" height="19" stroke-width="1.5" viewBox="0 0 19 19" fill="none" xmlns="http://www.w3.org/2000/svg">
<path d="M18.2416 5.80189C17.2399 3.46648 15.5377 1.768 13.1827 0.763635C12.0057 0.261656 10.7726 0.00524902 9.48438 0.00524902C8.19636 0.00524902 6.97235 0.259234 5.79665 0.763635C3.46123 1.76533 1.75145 3.46272 0.747954 5.80189C0.245106 6.97381 0 8.20158 0 9.4896C0 10.7779 0.245106 12.0158 0.747954 13.188C1.75145 15.5272 3.46145 17.2347 5.79665 18.2367C6.97257 18.7411 8.19633 18.9948 9.48438 18.9948C10.7724 18.9948 12.0057 18.7384 13.1826 18.2367C15.5375 17.2323 17.2397 15.5232 18.2416 13.188C18.746 12.0121 19 10.7779 19 9.4896C19 8.20158 18.7462 6.97778 18.2416 5.80189ZM16.7251 13.6866C15.9793 14.9656 14.9577 15.9802 13.671 16.7303C12.392 17.4761 10.9907 17.8522 9.4846 17.8522C8.35236 17.8522 7.27197 17.6341 6.24342 17.1873C5.21491 16.7408 4.32688 16.1537 3.58401 15.4111C2.84115 14.6682 2.24989 13.7715 1.80776 12.7412C1.36694 11.7147 1.15332 10.6221 1.15332 9.48963C1.15332 7.98329 1.52342 6.58909 2.26497 5.3137C3.00917 4.03365 4.03104 3.01796 5.30867 2.26997C6.58608 1.52202 7.97829 1.14792 9.48438 1.14792C10.9907 1.14792 12.3918 1.52422 13.6707 2.26997C14.9575 3.02016 15.9769 4.03583 16.7249 5.31367C17.4728 6.59129 17.8467 7.98329 17.8467 9.4896C17.8467 10.996 17.4753 12.3997 16.7251 13.6866Z" fill="#FF5200"/>
<path d="M10.087 9.40647V4.02534C10.087 3.70333 9.80647 3.4436 9.48443 3.4436C9.18325 3.4436 8.91309 3.70333 8.91309 4.02534V9.48955C8.91309 9.49998 8.93392 9.54164 8.93392 9.57269C8.91309 9.75971 8.96518 9.91553 9.08974 10.0403L12.196 13.1463C12.4038 13.3542 12.7881 13.3542 12.9958 13.1463C13.2347 12.9074 13.219 12.5608 12.9958 12.336L10.087 9.40647Z" fill="#FF5200"/>
</svg>
