<svg width="25" height="25" viewBox="0 0 25 25" fill="none" stroke-width="1.5" stroke-linecap="square" xmlns="http://www.w3.org/2000/svg">
<path d="M10.4167 22.3958C10.992 22.3958 11.4583 21.9295 11.4583 21.3542C11.4583 20.7789 10.992 20.3125 10.4167 20.3125C9.84137 20.3125 9.375 20.7789 9.375 21.3542C9.375 21.9295 9.84137 22.3958 10.4167 22.3958Z"/>
<path d="M18.75 22.3958C19.3253 22.3958 19.7916 21.9295 19.7916 21.3542C19.7916 20.7789 19.3253 20.3125 18.75 20.3125C18.1747 20.3125 17.7083 20.7789 17.7083 21.3542C17.7083 21.9295 18.1747 22.3958 18.75 22.3958Z"/>
<path d="M2.60419 2.60416H5.72919L8.54169 15.5208C8.63909 15.9985 8.9009 16.4269 9.28157 16.7314C9.66223 17.0359 10.1376 17.1973 10.625 17.1875H18.6459C19.1332 17.1973 19.6086 17.0359 19.9893 16.7314C20.37 16.4269 20.6318 15.9985 20.7292 15.5208L22.3959 6.77082H7.39585"/>
</svg>
