<svg width="30" height="19" viewBox="0 0 30 19" fill="none" xmlns="http://www.w3.org/2000/svg">
<path fill-rule="evenodd" clip-rule="evenodd" d="M14.9758 15.927C16.5528 17.38 18.6705 18.2614 20.9739 18.2614C25.9209 18.2614 29.9249 14.2265 29.9249 9.26383C29.9249 4.28606 25.9209 0.250977 20.9739 0.250977C18.6705 0.250977 16.5528 1.13216 14.9758 2.58538C13.167 4.23948 12.0229 6.62029 12.0229 9.26383C12.0231 11.9074 13.167 14.2884 14.9758 15.927Z" fill="#E9B040"/>
<path fill-rule="evenodd" clip-rule="evenodd" d="M28.7351 14.2726C28.7351 14.1179 28.8588 13.9944 29.0133 13.9944C29.1832 13.9944 29.3068 14.1181 29.3068 14.2726C29.3068 14.4429 29.1831 14.5664 29.0133 14.5664C28.8588 14.5664 28.7351 14.4429 28.7351 14.2726ZM29.0133 14.5048C29.137 14.5048 29.2449 14.3963 29.2449 14.2728C29.2449 14.1492 29.1369 14.0564 29.0133 14.0564C28.9049 14.0564 28.797 14.1492 28.797 14.2728C28.797 14.3963 28.905 14.5048 29.0133 14.5048ZM28.9824 14.412H28.9205V14.149H29.0286C29.0442 14.149 29.0752 14.149 29.0905 14.1647C29.1214 14.18 29.1214 14.1956 29.1214 14.2266C29.1214 14.2575 29.1061 14.2884 29.0752 14.2884L29.137 14.4121H29.0595L29.0286 14.3037H28.9824V14.412V14.2573H29.0442C29.0595 14.2573 29.0595 14.2417 29.0595 14.2264C29.0595 14.2107 29.0595 14.2107 29.0442 14.1954H28.9824V14.412Z" fill="#E9B040"/>
<path fill-rule="evenodd" clip-rule="evenodd" d="M17.8668 8.30599C17.8359 7.98139 17.774 7.67226 17.7122 7.34748H12.2395C12.3013 7.02288 12.3941 6.71375 12.4868 6.40444H17.4494C17.3417 6.07899 17.2179 5.7591 17.0784 5.44593H12.8734C13.0281 5.11847 13.1983 4.7986 13.3836 4.48742H16.553C16.349 4.15725 16.1217 3.8421 15.8728 3.54438H14.0639C14.3437 3.20267 14.6486 2.88228 14.976 2.58587C13.3838 1.14811 11.2812 0.251465 8.96222 0.251465C4.03067 0.251465 0.0112305 4.28655 0.0112305 9.26431C0.0112305 14.227 4.03067 18.2619 8.96222 18.2619C11.2812 18.2619 13.3836 17.3805 14.976 15.9275C15.2984 15.6363 15.5982 15.3209 15.8728 14.9842H14.0639C13.8164 14.6751 13.6001 14.366 13.3836 14.0257H16.553C16.7522 13.72 16.928 13.3996 17.0786 13.0672H12.8734C12.7342 12.7581 12.5952 12.449 12.4868 12.124H17.4494C17.5575 11.8149 17.635 11.4905 17.712 11.1655C17.7738 10.8564 17.8357 10.532 17.8666 10.207C17.898 9.89356 17.9135 9.57876 17.9132 9.26377C17.9132 8.93972 17.8977 8.61512 17.8668 8.30599Z" fill="#CC2131"/>
<path fill-rule="evenodd" clip-rule="evenodd" d="M28.7351 11.3511C28.7351 11.1812 28.8588 11.0576 29.0133 11.0576C29.1832 11.0576 29.3068 11.1813 29.3068 11.3511C29.3068 11.5058 29.1831 11.6449 29.0133 11.6449C28.8588 11.6449 28.7351 11.5056 28.7351 11.3511ZM29.0133 11.5674C29.137 11.5674 29.2449 11.4746 29.2449 11.3511C29.2449 11.2276 29.1369 11.1348 29.0133 11.1348C28.9049 11.1348 28.797 11.2276 28.797 11.3511C28.797 11.4746 28.905 11.5674 29.0133 11.5674ZM28.9824 11.4746H28.9205V11.2274H29.0905C29.1214 11.243 29.1214 11.274 29.1214 11.3049C29.1214 11.3202 29.1061 11.3511 29.0752 11.3667L29.137 11.4748H29.0595L29.0286 11.382H28.9824V11.4746V11.3356H29.0133C29.0286 11.3356 29.0442 11.3356 29.0442 11.32C29.0595 11.32 29.0595 11.3047 29.0595 11.2891C29.0595 11.2891 29.0595 11.2738 29.0442 11.2738C29.0442 11.2581 29.0286 11.2738 29.0133 11.2738H28.9824V11.4746Z" fill="white"/>
<path fill-rule="evenodd" clip-rule="evenodd" d="M11.9303 11.8614C11.6366 11.9385 11.4201 11.9851 11.2037 11.9851C10.74 11.9851 10.4616 11.6912 10.4616 11.1656C10.4616 11.0575 10.477 10.9493 10.4925 10.8255L10.5544 10.4702L10.6008 10.1763L11.0182 7.64106H11.9457L11.8375 8.19764H12.425L12.2858 9.12522H11.6983L11.451 10.6401C11.4355 10.7176 11.4355 10.7639 11.4355 10.7948C11.4355 10.9958 11.5283 11.073 11.7601 11.073C11.8684 11.073 11.961 11.0577 12.0538 11.0421L11.9303 11.8614ZM14.9295 11.8304C14.5894 11.9232 14.2803 11.9694 13.9401 11.9694C12.8888 11.9694 12.2858 11.4129 12.2858 10.3155C12.2858 9.03224 12.997 8.10466 13.9863 8.10466C14.7747 8.10466 15.2849 8.63032 15.2849 9.44945C15.2849 9.72802 15.2539 9.99075 15.1768 10.3617H13.2443C13.2288 10.4236 13.2288 10.4545 13.2288 10.4855C13.2288 10.9183 13.5225 11.1347 14.0791 11.1347C14.4346 11.1347 14.7437 11.0575 15.084 10.903L14.9295 11.8304ZM14.3575 9.61976V9.43417C14.3575 9.12504 14.1873 8.95491 13.8937 8.95491C13.5844 8.95491 13.368 9.18672 13.2752 9.61957H14.3575V9.61976ZM4.50965 11.9076H3.55114L4.10773 8.39851L2.85555 11.9076H2.19089L2.11356 8.41398L1.52605 11.9076H0.583008L1.34046 7.34721H2.74729L2.77822 10.1611L3.72127 7.34721H5.26729L4.50965 11.9076ZM6.84424 10.2537C6.75145 10.238 6.72051 10.238 6.65865 10.238C6.10207 10.238 5.82387 10.4544 5.82387 10.7946C5.82387 11.0266 5.96306 11.1812 6.1794 11.1812C6.64319 11.1812 6.82859 10.7946 6.84424 10.2537ZM7.61716 11.9076H6.78238L6.79784 11.5213C6.58132 11.8148 6.28766 11.9694 5.77747 11.9694C5.31368 11.9694 4.91176 11.5522 4.91176 10.9493C4.91176 10.7793 4.94269 10.6248 4.98909 10.4702C5.14356 9.89796 5.71561 9.54261 6.59679 9.52696C6.70505 9.52696 6.87499 9.52696 7.02965 9.54261C7.0604 9.41888 7.0604 9.37231 7.0604 9.29516C7.0604 9.04771 6.85952 8.97038 6.4112 8.97038C6.133 8.97038 5.82369 9.01678 5.60735 9.0941L5.46816 9.12504L5.4063 9.14032L5.54549 8.30554C5.99381 8.16635 6.31841 8.10466 6.67412 8.10466C7.5089 8.10466 7.95722 8.49113 7.95722 9.20218C7.95722 9.38777 7.97269 9.52696 7.91083 9.92889L7.69449 11.2584L7.66356 11.4904L7.64809 11.676L7.63263 11.7997L7.61716 11.9076ZM19.5983 8.22839C19.8765 8.22839 20.124 8.30572 20.464 8.47566L20.634 7.48622C20.5412 7.43982 20.5103 7.43982 20.3867 7.39343L20.0004 7.28517C19.8767 7.25423 19.7222 7.23877 19.5519 7.23877C19.0725 7.23877 18.7943 7.25423 18.5008 7.42436C18.3462 7.53262 18.1451 7.67181 17.9286 7.91908L17.8049 7.88815L16.8154 8.58374L16.862 8.19728H15.8414L15.2388 11.9074H16.213L16.5683 9.91342C16.5683 9.91342 16.7077 9.63486 16.7694 9.54243C16.955 9.31044 17.1094 9.31044 17.3103 9.31044H17.3878C17.3554 9.54605 17.3398 9.78367 17.3412 10.0215C17.3412 11.2273 18.0214 11.9849 19.0727 11.9849C19.3356 11.9849 19.5678 11.954 19.9231 11.8612L20.0934 10.8101C19.7843 10.98 19.5059 11.0573 19.2739 11.0573C18.702 11.0573 18.3616 10.6245 18.3616 9.94435C18.3613 8.93945 18.8716 8.22839 19.5983 8.22839ZM27.807 7.34721L27.5908 8.64578C27.3588 8.29025 27.0804 8.12013 26.7094 8.12013C26.1991 8.12013 25.72 8.4138 25.4262 8.97038V8.9551L24.8079 8.58392L24.8698 8.19746H23.8339L23.2464 11.9076H24.2049L24.5297 9.9136C24.5297 9.9136 24.777 9.63504 24.8388 9.54261C24.9935 9.35702 25.148 9.32591 25.2717 9.31062C25.1636 9.61976 25.1017 9.99075 25.1017 10.4083C25.1017 11.3359 25.5808 11.9542 26.2919 11.9542C26.6476 11.9542 26.9258 11.8304 27.1885 11.5366L27.1423 11.9076H28.0546L28.7966 7.34721H27.807ZM26.6168 11.0266C26.2921 11.0266 26.1221 10.7793 26.1221 10.2999C26.1221 9.57318 26.4312 9.04771 26.8794 9.04771C27.2194 9.04771 27.3898 9.31062 27.3898 9.77441C27.3898 10.5164 27.0806 11.0266 26.6168 11.0266ZM22.1493 10.2537C22.0565 10.238 22.0255 10.238 21.9637 10.238C21.4067 10.238 21.1285 10.4544 21.1285 10.7946C21.1285 11.0266 21.2679 11.1812 21.4842 11.1812C21.948 11.1812 22.1336 10.7946 22.1493 10.2537ZM22.9222 11.9076H22.0717L22.1027 11.5213C21.8863 11.8148 21.5923 11.9694 21.0825 11.9694C20.6031 11.9694 20.1858 11.5675 20.1858 10.9493C20.1858 10.0683 20.8503 9.52714 21.9016 9.52714C22.0101 9.52714 22.1798 9.52714 22.3192 9.54279C22.3501 9.41907 22.3658 9.37249 22.3658 9.29534C22.3658 9.04789 22.1647 8.97056 21.7009 8.97056C21.438 8.97056 21.1134 9.01696 20.8971 9.09429L20.7734 9.12522L20.7115 9.1405L20.8505 8.30572C21.299 8.16653 21.6238 8.10485 21.9791 8.10485C22.8139 8.10485 23.2468 8.49131 23.2468 9.20236C23.2468 9.38795 23.2777 9.52714 23.2006 9.92907L22.9995 11.2586L22.9686 11.4906L22.9376 11.6761L22.9224 11.7999V11.9076H22.9222ZM9.64225 8.98584C9.82784 8.98584 10.0906 9.00131 10.369 9.04771L10.5081 8.18199C10.2298 8.15106 9.85877 8.10466 9.64225 8.10466C8.5602 8.10466 8.20467 8.69218 8.20467 9.3723C8.20467 9.82081 8.40555 10.1452 8.9312 10.3925C9.31766 10.5781 9.37952 10.6088 9.37952 10.7791C9.37952 11.0108 9.17865 11.1501 8.80747 11.1501C8.51381 11.1501 8.23542 11.1035 7.92629 10.9955L7.81803 11.8455L7.83332 11.8612L8.0189 11.8921C8.08077 11.9074 8.15809 11.923 8.26635 11.9383C8.49816 11.954 8.69921 11.9693 8.82294 11.9693C9.90517 11.9693 10.3535 11.5521 10.3535 10.7326C10.3535 10.2226 10.106 9.91342 9.62679 9.69708C9.2094 9.51131 9.163 9.48075 9.163 9.31044C9.163 9.1405 9.34859 8.98584 9.64225 8.98584Z" fill="#1B3771"/>
<path fill-rule="evenodd" clip-rule="evenodd" d="M20.897 7.1925L20.7267 8.18194C20.3866 8.01181 20.1392 7.93467 19.861 7.93467C19.1343 7.93467 18.6243 8.64572 18.6243 9.65063C18.6243 10.3464 18.9643 10.7636 19.5366 10.7636C19.7682 10.7636 20.0466 10.6865 20.3557 10.532L20.1858 11.5675C19.83 11.6603 19.5982 11.7068 19.3353 11.7068C18.2842 11.7068 17.6348 10.9492 17.6348 9.72814C17.6348 8.10479 18.5315 6.96069 19.8146 6.96069C19.9845 6.96069 20.139 6.97616 20.2627 7.00709L20.6494 7.09988C20.7733 7.14628 20.8042 7.16175 20.897 7.1925ZM17.774 7.8728H17.6812C17.3568 7.8728 17.1712 8.02746 16.8774 8.4756L16.9702 7.90355H16.0888L15.4862 11.6139H16.4603C16.8157 9.34132 16.9085 8.95486 17.3723 8.95486H17.4341C17.5269 8.50653 17.6505 8.18175 17.8051 7.88809L17.774 7.8728ZM12.1778 11.5675C11.9151 11.6603 11.6986 11.6912 11.4822 11.6912C10.9875 11.6912 10.7091 11.413 10.7091 10.8721C10.7091 10.7793 10.7246 10.6557 10.7401 10.5473L10.8019 10.1763L10.8483 9.8828L11.2657 7.34715H12.2242L12.116 7.90374H12.6107L12.4869 8.81585H11.9922L11.7295 10.3619C11.714 10.4237 11.714 10.4703 11.714 10.5165C11.714 10.7021 11.8068 10.7794 12.0386 10.7794C12.1469 10.7794 12.2395 10.7794 12.3014 10.7485L12.1778 11.5675ZM8.45204 9.07858C8.45204 9.54255 8.66838 9.86697 9.17856 10.1144C9.58049 10.3 9.64235 10.3617 9.64235 10.5163C9.64235 10.7483 9.47223 10.8564 9.08577 10.8564C8.7921 10.8564 8.52919 10.8102 8.22006 10.7174L8.08086 11.5675L8.12726 11.5831L8.29738 11.614C8.35906 11.6293 8.43657 11.645 8.56012 11.645C8.77646 11.6759 8.96204 11.6759 9.08577 11.6759C10.106 11.6759 10.5854 11.2893 10.5854 10.4392C10.5854 9.92883 10.3845 9.63498 9.90527 9.40336C9.48788 9.21777 9.44148 9.17156 9.44148 9.00143C9.44148 8.80056 9.6116 8.70777 9.92073 8.70777C10.1063 8.70777 10.3691 8.72323 10.6165 8.75416L10.7555 7.90392C10.5082 7.85752 10.1218 7.82659 9.90527 7.82659C8.82304 7.82641 8.43657 8.39846 8.45204 9.07858ZM28.3021 11.614H27.3899L27.4364 11.2583C27.1735 11.5365 26.8951 11.6603 26.5394 11.6603C25.8284 11.6603 25.3646 11.0576 25.3646 10.1301C25.3646 8.89317 26.0913 7.84187 26.9413 7.84187C27.328 7.84187 27.6062 8.01199 27.8693 8.35206L28.0856 7.05349H29.0441L28.3021 11.614ZM26.8797 10.7483C27.3282 10.7483 27.6373 10.2227 27.6373 9.49597C27.6373 9.01672 27.467 8.76927 27.1269 8.76927C26.6941 8.76927 26.3697 9.27945 26.3697 10.0062C26.3697 10.5011 26.5396 10.7483 26.8797 10.7483ZM15.1459 11.5365C14.8057 11.645 14.4966 11.6912 14.141 11.6912C13.0588 11.6912 12.5022 11.1193 12.5022 10.0216C12.5022 8.75398 13.2135 7.81094 14.1874 7.81094C14.9913 7.81094 15.5013 8.33659 15.5013 9.15591C15.5013 9.43429 15.4704 9.69721 15.3776 10.0835H13.4609C13.4455 10.1301 13.4455 10.161 13.4455 10.1919C13.4455 10.6248 13.7393 10.8411 14.2957 10.8411C14.6512 10.8411 14.9604 10.7793 15.3006 10.6091L15.1459 11.5365ZM14.6048 9.32585V9.14044C14.6048 8.83131 14.4347 8.66119 14.141 8.66119C13.8319 8.66119 13.6154 8.89318 13.5226 9.32585H14.6048ZM4.7572 11.614H3.79869L4.35527 8.10461L3.1031 11.614H2.43826L2.36093 8.13554L1.7736 11.614H0.876953L1.63441 7.05349H3.02577L3.07217 9.88261L3.99956 7.05349H5.51465L4.7572 11.614ZM7.15347 9.95976C7.06068 9.95976 7.01428 9.94448 6.93695 9.94448C6.39583 9.94448 6.11763 10.1453 6.11763 10.5163C6.11763 10.7483 6.24136 10.8873 6.4577 10.8873C6.85962 10.8873 7.138 10.5163 7.15347 9.95976ZM7.86453 11.614H7.06049L7.07596 11.2274C6.82851 11.5365 6.50391 11.6759 6.05559 11.6759C5.52994 11.6759 5.17441 11.274 5.17441 10.671C5.17441 9.75907 5.79267 9.23342 6.87491 9.23342C6.98317 9.23342 7.12236 9.24888 7.27683 9.26417C7.30776 9.14062 7.30776 9.09423 7.30776 9.03237C7.30776 8.7851 7.13764 8.6923 6.68932 8.6923C6.41112 8.6923 6.1018 8.72323 5.88547 8.7851L5.74628 8.83149L5.65348 8.84696L5.79267 8.01218C6.27193 7.87299 6.59652 7.82659 6.95223 7.82659C7.78702 7.82659 8.23534 8.19758 8.23534 8.90864C8.23534 9.09423 8.21987 9.23342 8.15801 9.65081L7.94149 10.965L7.91056 11.1967L7.89509 11.3822L7.87963 11.5216L7.86453 11.614ZM22.4585 9.95976C22.35 9.95976 22.3038 9.94448 22.2421 9.94448C21.6856 9.94448 21.407 10.1453 21.407 10.5163C21.407 10.7483 21.5464 10.8873 21.7627 10.8873C22.1493 10.8873 22.4428 10.5163 22.4585 9.95976ZM23.1695 11.614H22.3657L22.381 11.2274C22.1337 11.5365 21.8091 11.6759 21.3608 11.6759C20.8351 11.6759 20.4794 11.274 20.4794 10.671C20.4794 9.75907 21.0977 9.23342 22.1799 9.23342C22.2884 9.23342 22.4276 9.24888 22.5666 9.26417C22.5975 9.14062 22.6131 9.09423 22.6131 9.03237C22.6131 8.7851 22.4428 8.6923 21.9949 8.6923C21.7163 8.6923 21.3919 8.72323 21.1754 8.7851L21.0517 8.83149L20.9589 8.84696L21.0979 8.01218C21.5773 7.87299 21.9017 7.82659 22.2574 7.82659C23.0922 7.82659 23.5251 8.19758 23.5251 8.90864C23.5251 9.09423 23.5251 9.23342 23.4479 9.65081L23.2469 10.965L23.2159 11.1967L23.185 11.3822L23.1697 11.5216V11.614H23.1695ZM25.7667 7.8728H25.6739C25.3495 7.8728 25.1639 8.02746 24.87 8.4756L24.9628 7.90355H24.0815L23.494 11.6139H24.4525C24.8082 9.34132 24.901 8.95486 25.3648 8.95486H25.4266C25.5194 8.50653 25.643 8.18175 25.7976 7.88809L25.7667 7.8728Z" fill="white"/>
</svg>
