<svg width="20" height="23" viewBox="0 0 20 23" fill="none" xmlns="http://www.w3.org/2000/svg">
<path d="M13.3433 8.52826C13.0869 8.97729 13.0258 9.50177 13.1709 9.99898L13.3661 10.7216L9.4537 6.79484C8.71829 6.06403 7.43725 6.06493 6.70549 6.79484C6.3387 7.15934 6.13614 7.64564 6.13614 8.16285C6.13614 8.68006 6.3387 9.16636 6.70275 9.52904L8.92358 11.7715C8.80223 11.8478 8.68909 11.9378 8.5869 12.0396C8.10514 12.5196 7.91901 13.2113 8.07229 13.8558C7.84966 13.9512 7.64619 14.0894 7.47192 14.263C6.99017 14.7429 6.80403 15.4347 6.95732 16.0791C6.73469 16.1746 6.53122 16.3118 6.35603 16.4854C5.99015 16.8499 5.7876 17.3362 5.7876 17.8534C5.7876 18.3707 5.99015 18.857 6.35603 19.2215C8.06773 20.9267 9.79312 22.0729 11.3461 22.5365C11.8798 22.6956 12.3972 22.7765 12.8844 22.7765C13.1353 22.7765 13.3826 22.7546 13.6189 22.7119C14.3534 22.5792 14.9921 22.2465 15.5195 21.7211L18.3078 18.9433C18.4127 18.8397 18.7686 18.4297 18.9264 17.5298C19.1171 16.4382 18.9392 15.062 18.3972 13.4385C17.4073 10.4807 17.0031 9.29907 16.8954 8.98729C16.5715 8.02105 15.4848 7.41022 14.5012 7.65382C14.0048 7.77926 13.5952 8.08922 13.3433 8.52826ZM13.8735 9.80355C13.7822 9.49087 13.8187 9.16545 13.9775 8.88912C14.1289 8.6237 14.3771 8.43645 14.6764 8.36192C15.2868 8.20648 15.993 8.60098 16.2211 9.27726C16.3096 9.53631 16.7129 10.7162 17.7011 13.6703C18.2056 15.1774 18.3735 16.4354 18.2038 17.4071C18.0761 18.1407 17.8023 18.4179 17.7896 18.4306L15.0003 21.2094C14.5806 21.6275 14.0705 21.8929 13.4866 21.9984C12.9054 22.1029 12.253 22.0493 11.555 21.8411C10.117 21.4121 8.49657 20.3286 6.87155 18.7088C6.64253 18.4806 6.51571 18.1779 6.51571 17.8544C6.51662 17.5317 6.64253 17.2281 6.87155 17.0008C7.00568 16.8681 7.17174 16.7809 7.34783 16.7218L8.04036 17.289C8.10788 17.3444 8.19 17.3717 8.27211 17.3717C8.37704 17.3717 8.48106 17.3262 8.55405 17.239C8.6827 17.0845 8.65989 16.8545 8.50387 16.7272L7.7347 16.0973C7.54583 15.6474 7.6389 15.1247 7.98744 14.7784C8.11883 14.6466 8.28306 14.5611 8.45734 14.502L9.08508 15.0438C9.15351 15.1029 9.23928 15.1329 9.32413 15.1329C9.42541 15.1329 9.52852 15.0902 9.6006 15.0074C9.7329 14.8556 9.71556 14.6257 9.56319 14.4948L8.85241 13.8812C8.66172 13.4295 8.75387 12.905 9.10424 12.5568C9.20917 12.4523 9.336 12.3769 9.47012 12.3178L10.2639 13.0795C10.3342 13.1477 10.4263 13.1813 10.5167 13.1813C10.6116 13.1813 10.7083 13.144 10.7794 13.0695C10.919 12.925 10.9145 12.695 10.7694 12.5559L9.81319 11.6388L7.22101 9.02092C6.99199 8.79277 6.86516 8.49008 6.86516 8.16649C6.86516 7.84289 6.99199 7.5402 7.22101 7.31205C7.44911 7.08481 7.75386 6.95846 8.07777 6.95846C8.40168 6.95846 8.70643 7.0839 8.93362 7.31114L13.8132 12.2087C13.93 12.3251 14.1107 12.3478 14.2539 12.2678C14.3972 12.186 14.4674 12.0178 14.4255 11.8587L13.8735 9.80355Z" fill="#FF5200" stroke="#FF5200" stroke-width="0.25"/>
<path d="M7.5544 3.46986C9.47139 3.48167 11.1311 4.84696 11.5024 6.71581C11.5417 6.91215 11.7296 7.03759 11.9322 7.00214C12.1302 6.96305 12.2579 6.77217 12.2187 6.57492C11.7798 4.36883 9.81993 2.75722 7.55987 2.74268C7.54892 2.74268 7.5398 2.74268 7.52976 2.74268C4.90747 2.74268 2.76602 4.85968 2.7496 7.47571C2.73591 9.73543 4.33447 11.7088 6.55256 12.1678C6.5772 12.1733 6.60274 12.1751 6.62647 12.1751C6.79618 12.1751 6.94855 12.057 6.98414 11.8861C7.02519 11.6897 6.89837 11.497 6.70037 11.4561C4.8217 11.0671 3.46767 9.39547 3.48045 7.48026C3.49322 5.25599 5.33813 3.4844 7.5544 3.46986Z" fill="#FF5200" stroke="#FF5200" stroke-width="0.25"/>
<path d="M6.23011 13.7847C6.39982 13.7847 6.5522 13.6666 6.58778 13.4957C6.62884 13.2994 6.50201 13.1067 6.30402 13.0657C3.63702 12.5131 1.71364 10.1388 1.73097 7.42101C1.7401 5.89029 2.34686 4.45502 3.43993 3.3797C4.5248 2.31256 5.9573 1.72627 7.48013 1.72627C7.4929 1.72627 7.50476 1.72627 7.51662 1.72627C10.2365 1.74354 12.5942 3.68148 13.1234 6.33569C13.1627 6.53203 13.3515 6.65837 13.5532 6.62202C13.7512 6.58293 13.8789 6.39114 13.8397 6.1948C13.2448 3.20336 10.5878 1.01818 7.5221 1C5.79398 1.00636 4.15892 1.64992 2.92715 2.86249C1.69539 4.07416 1.01108 5.69122 1.00013 7.41646C0.980965 10.4797 3.14887 13.1548 6.15529 13.7784C6.18084 13.7829 6.20548 13.7847 6.23011 13.7847Z" fill="#FF5200" stroke="#FF5200" stroke-width="0.25"/>
</svg>
