<svg width="11" height="11" stroke-opacity="0" stroke-width="0" viewBox="0 0 11 11" xmlns="http://www.w3.org/2000/svg">
<g clip-path="url(#clip0)">
<path d="M6.43266 5.46189L7.3986 4.49595C7.53214 4.36206 7.53214 4.14618 7.3986 4.01298L6.91563 3.52967C6.78208 3.39647 6.5662 3.39613 6.43266 3.52967L5.46638 4.49595L4.50078 3.53036C4.3669 3.39647 4.15067 3.39647 4.01713 3.52967L3.53416 4.01298C3.40061 4.14618 3.40096 4.36275 3.53484 4.49629L4.50044 5.46189L3.53653 6.42576C3.40298 6.55931 3.40298 6.77519 3.53653 6.90873L4.01949 7.39205C4.15304 7.52524 4.36892 7.52559 4.50246 7.39205L5.46634 6.42817L6.43705 7.39923C6.57094 7.53311 6.78717 7.53312 6.92071 7.39957L7.40368 6.9166C7.53722 6.78306 7.53688 6.56683 7.40333 6.43295L6.43266 5.46189ZM5.465 0.000976562C2.4466 0.000976562 0 2.44761 0 5.46563C0 8.48404 2.4466 10.9306 5.465 10.9306C8.4834 10.9306 10.93 8.48404 10.93 5.46563C10.93 2.44796 8.48337 0.000976562 5.465 0.000976562ZM5.465 9.90597C3.0126 9.90597 1.0247 7.91808 1.0247 5.46567C1.0247 3.01327 3.0126 1.02534 5.465 1.02534C7.91741 1.02534 9.9053 3.01323 9.9053 5.46563C9.9053 7.91804 7.91741 9.90597 5.465 9.90597Z" />
</g>
<defs>
<clipPath id="clip0">
<rect width="10.93" height="10.93" fill="white"/>
</clipPath>
</defs>
</svg>
