<svg width="25" height="25" viewBox="0 0 25 25" fill="none" stroke-miterlimit="10" xmlns="http://www.w3.org/2000/svg">
<path d="M6.04999 1.47514C6.20844 1.47368 6.36486 1.51086 6.50571 1.58346C6.64656 1.65606 6.76759 1.7619 6.85832 1.89181C7.52499 2.80431 9.18749 5.12514 9.55832 6.15847C9.68297 6.48112 9.70992 6.8333 9.63583 7.17116C9.56174 7.50901 9.38988 7.8176 9.14166 8.05847C8.55046 8.55808 7.92535 9.01613 7.27082 9.42931C7.16586 9.49538 7.07519 9.5818 7.00415 9.68347C6.84927 9.89307 6.75558 10.1415 6.73351 10.4012C6.71144 10.6609 6.76186 10.9216 6.87915 11.1543C7.44999 12.2626 9.90832 15.8876 13.5458 17.796C17.1833 19.7043 17.3792 14.9793 18.4542 15.296C19.9833 15.7126 22.9125 17.7585 23.375 18.3376C23.8375 18.9168 23.7917 20.1376 22.9292 21.1751C22.0667 22.2126 20 24.0085 17.4167 23.5918C14.8333 23.1751 10.2667 21.2918 6.72915 17.5001C3.19165 13.7085 1.66666 9.65014 1.56249 6.98764C1.47916 4.77097 2.08332 2.91681 3.88749 2.00847C4.55905 1.67036 5.29822 1.48806 6.04999 1.47514V1.47514Z"/>
</svg>
