<svg width="19" height="19" viewBox="0 0 19 19" stroke-width="1.5" xmlns="http://www.w3.org/2000/svg">
<g clip-path="url(#clip0)">
<path d="M15.0161 11.7699C14.6271 11.3649 14.1579 11.1484 13.6607 11.1484C13.1674 11.1484 12.6942 11.3609 12.2892 11.7659L11.022 13.0291C10.9178 12.973 10.8135 12.9208 10.7133 12.8687C10.5689 12.7965 10.4326 12.7284 10.3163 12.6562C9.12929 11.9023 8.05058 10.9198 7.01598 9.64861C6.51472 9.01502 6.17787 8.48168 5.93325 7.94032C6.26208 7.63956 6.56685 7.32678 6.86359 7.02602C6.97588 6.91374 7.08816 6.79745 7.20044 6.68516C8.04256 5.84305 8.04256 4.7523 7.20044 3.91019L6.10569 2.81544C5.98138 2.69112 5.85305 2.5628 5.73275 2.43448C5.49215 2.18585 5.23951 1.92921 4.97886 1.6886C4.58988 1.30364 4.12471 1.09912 3.63548 1.09912C3.14625 1.09912 2.67306 1.30364 2.27205 1.6886C2.26804 1.69261 2.26804 1.69261 2.26403 1.69662L0.900604 3.07208C0.387314 3.58537 0.0945782 4.21094 0.0304169 4.93677C-0.065825 6.10771 0.279042 7.19845 0.543707 7.91225C1.19334 9.66465 2.16378 11.2887 3.61142 13.0291C5.36783 15.1264 7.48115 16.7825 9.89521 17.9495C10.8175 18.3866 12.0486 18.9039 13.4241 18.9921C13.5083 18.9961 13.5965 19.0001 13.6767 19.0001C14.603 19.0001 15.381 18.6673 15.9905 18.0056C15.9945 17.9976 16.0026 17.9936 16.0066 17.9856C16.2151 17.7329 16.4557 17.5044 16.7083 17.2597C16.8808 17.0953 17.0572 16.9229 17.2297 16.7424C17.6266 16.3294 17.8352 15.8482 17.8352 15.355C17.8352 14.8577 17.6226 14.3805 17.2176 13.9795L15.0161 11.7699ZM16.4517 15.9926C16.4477 15.9926 16.4477 15.9966 16.4517 15.9926C16.2953 16.161 16.1349 16.3134 15.9625 16.4818C15.7018 16.7304 15.4371 16.9911 15.1885 17.2838C14.7835 17.7169 14.3063 17.9214 13.6807 17.9214C13.6206 17.9214 13.5564 17.9214 13.4963 17.9174C12.3053 17.8412 11.1985 17.376 10.3684 16.979C8.0987 15.8803 6.10569 14.3204 4.44953 12.3434C3.08209 10.6952 2.16779 9.17141 1.56227 7.5353C1.18933 6.53679 1.05299 5.75883 1.11314 5.02499C1.15324 4.55581 1.33369 4.16683 1.66653 3.834L3.03397 2.46656C3.23046 2.28209 3.43899 2.18184 3.6435 2.18184C3.89613 2.18184 4.10065 2.33423 4.22897 2.46255C4.23298 2.46656 4.23699 2.47057 4.241 2.47458C4.48562 2.70315 4.7182 2.93975 4.96282 3.19238C5.08713 3.32071 5.21545 3.44903 5.34377 3.58136L6.43853 4.67611C6.86359 5.10118 6.86359 5.49417 6.43853 5.91924C6.32223 6.03553 6.20995 6.15182 6.09366 6.2641C5.75681 6.60897 5.43601 6.92978 5.08713 7.24256C5.07911 7.25058 5.07109 7.25459 5.06708 7.26261C4.72221 7.60748 4.78637 7.94433 4.85855 8.1729C4.86256 8.18493 4.86657 8.19696 4.87058 8.20899C5.1553 8.89873 5.55631 9.54836 6.16584 10.3223L6.16985 10.3263C7.27663 11.6897 8.44357 12.7524 9.7308 13.5665C9.89521 13.6707 10.0636 13.7549 10.224 13.8351C10.3684 13.9073 10.5047 13.9755 10.621 14.0477C10.6371 14.0557 10.6531 14.0677 10.6692 14.0757C10.8055 14.1439 10.9338 14.176 11.0662 14.176C11.399 14.176 11.6075 13.9675 11.6757 13.8993L13.0471 12.5279C13.1835 12.3915 13.4 12.2271 13.6527 12.2271C13.9013 12.2271 14.1058 12.3835 14.2301 12.5198C14.2341 12.5238 14.2341 12.5238 14.2381 12.5279L16.4477 14.7374C16.8607 15.1464 16.8607 15.5675 16.4517 15.9926Z" fill="black"/>
<path d="M10.268 4.51973C11.3186 4.69617 12.273 5.19342 13.0349 5.95534C13.7969 6.71725 14.2901 7.67165 14.4705 8.72229C14.5147 8.98696 14.7432 9.17142 15.0039 9.17142C15.036 9.17142 15.064 9.16741 15.0961 9.1634C15.3929 9.11528 15.5894 8.83457 15.5412 8.53783C15.3247 7.26663 14.7232 6.10772 13.8049 5.18941C12.8866 4.2711 11.7277 3.66959 10.4565 3.45305C10.1597 3.40493 9.88303 3.60142 9.8309 3.89416C9.77877 4.18689 9.97125 4.47161 10.268 4.51973Z"/>
<path d="M18.9779 8.3813C18.621 6.28804 17.6346 4.38325 16.1187 2.86744C14.6029 1.35163 12.6981 0.36515 10.6049 0.00825334C10.3121 -0.0438777 10.0354 0.156626 9.98332 0.449362C9.9352 0.746108 10.1317 1.0228 10.4284 1.07493C12.2971 1.39173 14.0014 2.27796 15.3568 3.62936C16.7122 4.98476 17.5945 6.68905 17.9112 8.55774C17.9554 8.82241 18.1839 9.00687 18.4446 9.00687C18.4767 9.00687 18.5047 9.00286 18.5368 8.99885C18.8296 8.95474 19.0301 8.67404 18.9779 8.3813Z"/>
</g>
<defs>
<clipPath id="clip0">
<rect width="19" height="19" fill="white"/>
</clipPath>
</defs>
</svg>
