<svg width="9" height="5" viewBox="0 0 9 5" xmlns="http://www.w3.org/2000/svg">
<path d="M4.1671 3.84398L4.48371 4.23096C4.29265 4.38728 4.0161 4.38077 3.83261 4.21563L4.1671 3.84398ZM0.665518 1.36524C0.460263 1.18051 0.443623 0.864364 0.628353 0.659109C0.813083 0.453854 1.12923 0.437215 1.33448 0.621944L0.665518 1.36524ZM7.33428 0.606613C7.548 0.431749 7.86302 0.46325 8.03788 0.676972C8.21274 0.890695 8.18124 1.20571 7.96752 1.38057L7.33428 0.606613ZM3.83261 4.21563L0.665518 1.36524L1.33448 0.621944L4.50158 3.47233L3.83261 4.21563ZM3.85048 3.457L7.33428 0.606613L7.96752 1.38057L4.48371 4.23096L3.85048 3.457Z"/>
</svg>
