<svg width="28" height="29" viewBox="0 0 28 29" fill="none" xmlns="http://www.w3.org/2000/svg">
<rect y="0.479004" width="27.1886" height="27.6005" rx="13.5943" fill="#4C75A3"/>
<path d="M21.3193 18.4434C21.2979 18.4019 21.278 18.3675 21.2595 18.3399C20.9532 17.8426 20.3678 17.2322 19.5037 16.5085L19.4855 16.492L19.4763 16.4838L19.4671 16.4755H19.4578C19.0657 16.1385 18.8173 15.912 18.7134 15.796C18.5231 15.575 18.4804 15.3513 18.5844 15.1247C18.6579 14.9535 18.9339 14.5919 19.4118 14.0394C19.6631 13.7466 19.8622 13.5119 20.0092 13.3351C21.0694 12.0646 21.5291 11.2527 21.3881 10.8991L21.3333 10.8165C21.2965 10.7667 21.2015 10.7212 21.0485 10.6797C20.8951 10.6383 20.6991 10.6314 20.46 10.659L17.8127 10.6755C17.7698 10.6618 17.7086 10.6631 17.6288 10.6797C17.5491 10.6963 17.5093 10.7046 17.5093 10.7046L17.4632 10.7254L17.4266 10.7503C17.396 10.7668 17.3623 10.7958 17.3255 10.8372C17.2889 10.8785 17.2582 10.927 17.2338 10.9822C16.9456 11.6506 16.6179 12.2721 16.2501 12.8465C16.0233 13.1891 15.8151 13.4859 15.6249 13.7373C15.435 13.9885 15.2756 14.1737 15.147 14.2923C15.0183 14.4111 14.902 14.5063 14.7976 14.5782C14.6934 14.6501 14.6139 14.6805 14.5588 14.6694C14.5036 14.6582 14.4516 14.6472 14.4023 14.6362C14.3166 14.5864 14.2476 14.5188 14.1956 14.4332C14.1434 14.3476 14.1083 14.2398 14.0899 14.11C14.0716 13.9801 14.0608 13.8684 14.0577 13.7744C14.0548 13.6806 14.0561 13.5479 14.0623 13.3767C14.0687 13.2053 14.0716 13.0894 14.0716 13.0287C14.0716 12.8187 14.0761 12.5909 14.0852 12.3451C14.0945 12.0992 14.102 11.9045 14.1083 11.761C14.1145 11.6174 14.1174 11.4654 14.1174 11.3052C14.1174 11.145 14.1066 11.0194 14.0852 10.9282C14.0641 10.8371 14.0317 10.7487 13.989 10.663C13.946 10.5774 13.8831 10.5112 13.8005 10.4642C13.7178 10.4172 13.615 10.3799 13.4926 10.3523C13.1678 10.286 12.7542 10.2502 12.2515 10.2446C11.1118 10.2336 10.3794 10.2999 10.0546 10.4435C9.9259 10.5042 9.80945 10.5871 9.70533 10.692C9.59499 10.8136 9.5796 10.8799 9.65926 10.8908C10.027 10.9405 10.2873 11.0593 10.4406 11.2471L10.4958 11.3466C10.5387 11.4184 10.5816 11.5455 10.6245 11.7278C10.6674 11.91 10.695 12.1116 10.7072 12.3325C10.7378 12.7358 10.7378 13.081 10.7072 13.3682C10.6765 13.6555 10.6476 13.8792 10.6199 14.0394C10.5922 14.1996 10.5509 14.3294 10.4958 14.4288C10.4406 14.5283 10.4038 14.589 10.3854 14.6111C10.367 14.6331 10.3517 14.647 10.3395 14.6525C10.2599 14.68 10.177 14.694 10.0913 14.694C10.0054 14.694 9.90131 14.6553 9.77877 14.5779C9.65626 14.5006 9.52912 14.3943 9.39734 14.2589C9.26556 14.1235 9.11694 13.9344 8.95142 13.6913C8.78603 13.4483 8.61442 13.1611 8.4367 12.8297L8.28966 12.5893C8.19774 12.4347 8.07217 12.2095 7.91283 11.9141C7.7534 11.6185 7.61248 11.3325 7.48997 11.0563C7.441 10.9403 7.36743 10.852 7.26939 10.7913L7.22338 10.7663C7.1928 10.7443 7.1437 10.7209 7.07634 10.6959C7.00889 10.671 6.93851 10.6531 6.86491 10.6421L4.34623 10.6586C4.08885 10.6586 3.91422 10.7111 3.82227 10.8161L3.78547 10.8658C3.76709 10.8934 3.75781 10.9376 3.75781 10.9984C3.75781 11.0592 3.7762 11.1337 3.813 11.2221C4.18068 12.001 4.58052 12.7522 5.01253 13.4758C5.44454 14.1995 5.81995 14.7824 6.13853 15.224C6.45718 15.666 6.78197 16.0831 7.11292 16.4752C7.44386 16.8674 7.66293 17.1188 7.77011 17.2292C7.87742 17.3398 7.96171 17.4225 8.02298 17.4778L8.25283 17.6766C8.3999 17.8092 8.61587 17.968 8.90084 18.153C9.18587 18.3381 9.50143 18.5204 9.84767 18.7001C10.194 18.8795 10.5968 19.0258 11.0565 19.1391C11.5161 19.2524 11.9634 19.2979 12.3986 19.2759H13.4557C13.6701 19.2592 13.8325 19.1985 13.9429 19.0936L13.9795 19.052C14.0041 19.0191 14.0271 18.9679 14.0484 18.8989C14.0699 18.8299 14.0806 18.7538 14.0806 18.6711C14.0743 18.4336 14.0944 18.2196 14.1402 18.029C14.186 17.8385 14.2382 17.6949 14.2966 17.5982C14.355 17.5015 14.4209 17.42 14.4942 17.3539C14.5677 17.2876 14.62 17.2475 14.6507 17.2336C14.6813 17.2197 14.7056 17.2103 14.724 17.2047C14.8711 17.1605 15.0442 17.2033 15.2435 17.3332C15.4427 17.463 15.6296 17.6233 15.8043 17.8138C15.979 18.0045 16.1888 18.2184 16.4339 18.4559C16.6792 18.6934 16.8936 18.87 17.0774 18.9862L17.2611 19.0856C17.3839 19.152 17.5432 19.2127 17.7394 19.268C17.9351 19.3232 18.1067 19.337 18.254 19.3094L20.6071 19.2763C20.8399 19.2763 21.021 19.2416 21.1494 19.1726C21.2781 19.1036 21.3546 19.0275 21.3793 18.9448C21.4039 18.862 21.4052 18.768 21.3839 18.6629C21.3621 18.5581 21.3407 18.4849 21.3193 18.4434Z" fill="white"/>
</svg>
