<svg width="38" height="38" viewBox="0 0 38 38" xmlns="http://www.w3.org/2000/svg">
<path d="M37.9787 15.8192C37.9649 15.0559 37.9044 14.0908 37.7987 12.9248C37.6924 11.7581 37.5404 10.7154 37.3427 9.79675C37.1164 8.76488 36.6251 7.89537 35.869 7.18851C35.1128 6.48151 34.2327 6.07167 33.2286 5.9584C30.09 5.60524 25.3471 5.42847 18.9999 5.42847C12.6526 5.42847 7.9097 5.60524 4.7713 5.9584C3.76742 6.0716 2.89078 6.48151 2.14174 7.18851C1.3924 7.89514 0.904645 8.76465 0.67841 9.79675C0.466583 10.7157 0.307342 11.7583 0.201354 12.9248C0.0955151 14.0908 0.035354 15.0555 0.0213164 15.8192C0.00698166 16.5825 0 17.6427 0 19C0 20.3571 0.00698166 21.4176 0.0213906 22.1808C0.0354282 22.9446 0.0955894 23.9092 0.201428 25.0751C0.307416 26.2417 0.459453 27.2844 0.65739 28.2032C0.883626 29.2354 1.37479 30.1047 2.13112 30.8113C2.88759 31.5181 3.7678 31.9281 4.77137 32.0412C7.90978 32.3948 12.6524 32.5715 19 32.5715C25.3478 32.5715 30.0901 32.3948 33.2287 32.0412C34.2327 31.9281 35.109 31.5181 35.8583 30.8113C36.6077 30.1047 37.0951 29.2348 37.3214 28.2032C37.5333 27.2844 37.6924 26.2417 37.7987 25.0751C37.9044 23.9093 37.9644 22.9442 37.9787 22.1808C37.9929 21.4176 38 20.3571 38 19C38 17.6427 37.9929 16.5825 37.9787 15.8192ZM26.5068 20.1451L15.6498 26.9306C15.4518 27.0719 15.2112 27.1426 14.9286 27.1426C14.7167 27.1426 14.4976 27.0858 14.2714 26.9728C13.805 26.7186 13.5718 26.3226 13.5718 25.7855V12.2145C13.5718 11.6776 13.805 11.2815 14.2714 11.0272C14.7522 10.7723 15.2115 10.7866 15.6498 11.0696L26.5068 17.8551C26.9308 18.095 27.1428 18.4769 27.1428 19C27.1428 19.5229 26.9307 19.905 26.5068 20.1451Z" />
</svg>
