<svg width="43" height="43" viewBox="0 0 43 43" xmlns="http://www.w3.org/2000/svg">
<path d="M41.8169 41.817C40.2395 43.3943 37.6827 43.3943 36.1053 41.817L28.9782 34.6897C26.048 36.5681 22.5844 37.6895 18.8447 37.6895C8.43774 37.6895 0 29.2529 0 18.8448C0 8.43657 8.43774 0 18.8447 0C29.2529 0 37.6894 8.43648 37.6894 18.8448C37.6894 22.5845 36.568 26.0482 34.6897 28.9796L41.8168 36.1056C43.3943 37.6829 43.3943 40.2395 41.8169 41.817ZM18.8447 5.38424C11.4111 5.38424 5.38415 11.4112 5.38415 18.8448C5.38415 26.2796 11.4112 32.3053 18.8447 32.3053C26.2795 32.3053 32.3051 26.2796 32.3051 18.8448C32.3051 11.4112 26.2795 5.38424 18.8447 5.38424ZM21.5368 26.921H16.1527V21.5369H10.7685V16.1527H16.1526V10.7685H21.5367V16.1527H26.9209V21.5369H21.5367V26.921H21.5368Z" />
</svg>
