<svg width="155" height="66" viewBox="0 0 155 66" fill="none" xmlns="http://www.w3.org/2000/svg">
<path fill-rule="evenodd" clip-rule="evenodd" d="M135.23 38.4188V7.78885H124.534C123.764 7.74679 123.04 7.41037 122.51 6.84878C121.98 6.28719 121.685 5.54314 121.685 4.76968C121.685 3.99623 121.98 3.25218 122.51 2.69059C123.04 2.129 123.764 1.79257 124.534 1.75052H151.979C152.748 1.79257 153.472 2.129 154.002 2.69059C154.532 3.25218 154.828 3.99623 154.828 4.76968C154.828 5.54314 154.532 6.28719 154.002 6.84878C153.472 7.41037 152.748 7.74679 151.979 7.78885H141.282V38.4188C141.282 39.2192 140.966 39.9869 140.403 40.5537C139.84 41.1205 139.076 41.4401 138.278 41.4425C137.479 41.4425 136.713 41.1239 136.148 40.5569C135.583 39.9898 135.266 39.2207 135.266 38.4188H135.23Z" fill="black"/>
<path fill-rule="evenodd" clip-rule="evenodd" d="M0.179443 38.4188V14.0687C0.179443 13.8719 0.179443 13.6214 0.179443 13.4246C0.217681 11.9458 0.538434 10.4881 1.12429 9.13068C1.74513 7.65278 2.65434 6.31448 3.79838 5.19458C6.08875 2.91293 9.18183 1.62755 12.409 1.61631H24.7098C25.1051 1.6152 25.4966 1.69381 25.861 1.84748C26.2254 2.00115 26.5554 2.22675 26.8312 2.51088C27.1123 2.78926 27.3358 3.12068 27.4888 3.48607C27.6418 3.85147 27.7212 4.24362 27.7226 4.63995C27.7203 5.43877 27.403 6.2042 26.8402 6.76905C26.2774 7.33391 25.5147 7.65228 24.7187 7.65464H12.4268C10.7645 7.63956 9.1633 8.28235 7.96997 9.44378C7.3988 10.0079 6.94441 10.6798 6.63292 11.4208C6.3423 12.1665 6.20876 12.9645 6.24072 13.7645C6.24072 14.2834 6.24072 14.7933 6.24072 15.3032V38.4188C6.2364 39.2216 5.91599 39.9901 5.34936 40.5568C5.07198 40.8389 4.74174 41.0632 4.37766 41.2167C4.01357 41.3703 3.62283 41.45 3.22791 41.4514C2.83299 41.45 2.44225 41.3703 2.07816 41.2167C1.71408 41.0632 1.38384 40.8389 1.10646 40.5568C0.539828 39.9901 0.219419 39.2216 0.215097 38.4188H0.179443Z" fill="black"/>
<path fill-rule="evenodd" clip-rule="evenodd" d="M69.9465 24.8303L70.927 24.4814C75.2858 22.9428 77.4785 22.1735 79.1365 23.0322C80.7944 23.891 81.2668 26.1811 82.078 30.6897L82.1938 31.3428C82.3299 31.853 82.3517 32.3871 82.2577 32.9068C82.1636 33.4265 81.9562 33.9188 81.6501 34.3485C81.3737 34.6988 80.9873 34.9447 80.5537 35.0463C80.1228 35.144 79.6718 35.0969 79.2702 34.9121C78.792 34.6506 78.3752 34.2893 78.0477 33.8526C77.7202 33.416 77.4897 32.914 77.3716 32.3805L76.195 28.4086L71.3994 29.5179C70.8816 29.685 70.335 29.7434 69.7937 29.6896C69.2524 29.6357 68.728 29.4707 68.2529 29.2048C67.8667 28.946 67.5878 28.5548 67.4685 28.1044C67.3638 27.6755 67.3982 27.2243 67.5666 26.8163C67.8039 26.3374 68.1381 25.9134 68.5479 25.5715C68.9577 25.2295 69.434 24.9771 69.9465 24.8303ZM75.0184 34.0086C73.0693 36.8996 70.4472 39.2701 67.3794 40.9146C64.4894 42.4498 61.2849 43.2938 58.0162 43.3806C54.7475 43.4674 51.503 42.7947 48.5361 41.4151C45.5693 40.0355 42.9603 37.9862 40.9131 35.4274C38.8658 32.8686 37.4357 29.8694 36.7343 26.6642C36.4055 25.714 36.4055 24.6802 36.7343 23.73C36.8393 23.4968 37 23.2931 37.2021 23.1371C37.4042 22.9811 37.6415 22.8775 37.8931 22.8354C38.3 22.7712 38.7167 22.8436 39.0786 23.0412C39.8958 23.5156 40.5253 24.258 40.8613 25.1434C42.0739 28.0307 43.9807 30.5714 46.4111 32.5381C48.8416 34.5047 51.7199 35.8361 54.7886 36.413C57.8573 36.99 61.0206 36.7945 63.9956 35.8441C66.9706 34.8938 69.6645 33.2181 71.8362 30.9671C72.3893 30.4084 73.1374 30.0875 73.922 30.0725C74.306 30.075 74.6809 30.19 75.0005 30.4035C75.3728 30.6582 75.6292 31.0507 75.7136 31.4949C75.8111 32.3718 75.5756 33.2535 75.054 33.9639L75.0184 34.0086Z" fill="#FF5200"/>
<path fill-rule="evenodd" clip-rule="evenodd" d="M40.175 9.36331C42.4967 5.91475 45.7754 3.22543 49.605 1.62843C53.4346 0.0314234 57.6468 -0.403103 61.72 0.378663C65.7932 1.16043 69.5485 3.12415 72.5206 6.0266C75.4928 8.92905 77.5513 12.6427 78.4413 16.7077C78.7743 17.6541 78.7743 18.6865 78.4413 19.6329C78.3329 19.8655 78.1701 20.0683 77.9668 20.224C77.7635 20.3798 77.5257 20.4839 77.2736 20.5275C76.8658 20.5832 76.4508 20.508 76.0881 20.3128C75.2683 19.8373 74.6383 19.0912 74.3054 18.2016C73.0864 15.3252 71.1786 12.7954 68.7513 10.8368C66.324 8.87822 63.4523 7.5515 60.3913 6.97445C57.3303 6.39739 54.1746 6.58787 51.2046 7.52895C48.2345 8.47004 45.542 10.1326 43.3661 12.3691C42.8119 12.9262 42.0646 13.2467 41.2803 13.2636C40.8957 13.2655 40.5196 13.1501 40.2018 12.9326C39.8309 12.6765 39.5749 12.2847 39.4887 11.8413C39.3892 10.9806 39.6115 10.1136 40.1126 9.40804V9.36331H40.175Z" fill="black"/>
<path fill-rule="evenodd" clip-rule="evenodd" d="M24.79 26.1185H14.0223C13.2264 26.1161 12.4637 25.7978 11.9009 25.2329C11.338 24.668 11.0208 23.9026 11.0184 23.1038C11.0208 22.305 11.338 21.5396 11.9009 20.9747C12.4637 20.4098 13.2264 20.0915 14.0223 20.0891H24.79C25.586 20.0915 26.3487 20.4098 26.9115 20.9747C27.4743 21.5396 27.7916 22.305 27.7939 23.1038C27.7916 23.9026 27.4743 24.668 26.9115 25.2329C26.3487 25.7978 25.586 26.1161 24.79 26.1185Z" fill="black"/>
<path fill-rule="evenodd" clip-rule="evenodd" d="M87.9699 1.66104H100.333C103.563 1.66993 106.66 2.95549 108.953 5.23931C110.094 6.36167 111.003 7.69934 111.627 9.17541C112.245 10.6415 112.563 12.2173 112.563 13.8093C112.637 16.8818 111.559 19.8704 109.541 22.1824C108.511 23.2885 107.306 24.2164 105.975 24.9287C107.398 26.3891 108.701 27.9627 109.871 29.6342C111.493 31.9595 112.749 34.521 113.597 37.229L113.73 37.73C113.901 38.3817 113.922 39.0637 113.793 39.7249C113.704 40.0795 113.532 40.4077 113.292 40.6822C113.051 40.9568 112.749 41.1699 112.41 41.3037C112.071 41.4375 111.705 41.4883 111.342 41.4517C110.98 41.4152 110.631 41.2924 110.325 41.0936C109.585 40.6384 108.993 39.9761 108.623 39.1881C107.124 36.2493 105.255 33.5163 103.061 31.0565C100.387 28.1671 96.8925 25.9843 92.8902 25.9038H91.6334C90.8367 25.9038 90.0727 25.5862 89.5093 25.0208C88.946 24.4555 88.6295 23.6887 88.6295 22.8891C88.6295 22.0896 88.946 21.3228 89.5093 20.7574C90.0727 20.192 90.8367 19.8744 91.6334 19.8744H100.191C101.839 19.8864 103.425 19.2432 104.603 18.0853C105.177 17.5257 105.635 16.8566 105.949 16.1172C106.411 15.0113 106.529 13.7913 106.289 12.6166C106.049 11.4419 105.461 10.3673 104.603 9.53323C103.425 8.3753 101.839 7.73208 100.191 7.7441H87.9699C87.1732 7.7441 86.4092 7.42648 85.8458 6.86112C85.2825 6.29575 84.966 5.52895 84.966 4.72941C84.966 3.92986 85.2825 3.16306 85.8458 2.5977C86.4092 2.03233 87.1732 1.71472 87.9699 1.71472V1.66104Z" fill="black"/>
<path d="M9.10447 52.4181C9.11159 52.3689 9.10813 52.3187 9.0943 52.2709C9.08047 52.2231 9.0566 52.1788 9.02431 52.141C8.93404 52.0842 8.82751 52.059 8.72146 52.0695H6.72621C6.61907 52.0609 6.51224 52.0893 6.42336 52.1499C6.3886 52.1848 6.36183 52.2269 6.34491 52.2732C6.32799 52.3195 6.32133 52.369 6.32538 52.4181V59.8914H2.76243V52.4181C2.77332 52.347 2.77332 52.2747 2.76243 52.2036C2.75354 52.1789 2.73936 52.1565 2.72089 52.138C2.70241 52.1195 2.68011 52.1052 2.65554 52.0963C2.57282 52.0846 2.48886 52.0846 2.40614 52.0963H0.401983C0.294979 52.0891 0.188587 52.1174 0.0991323 52.1768C0.0643781 52.2116 0.0376092 52.2537 0.0206886 52.3C0.0037681 52.3463 -0.00289863 52.3958 0.00115078 52.4449V60.9284C-0.00444292 61.1405 0.0256714 61.3521 0.0902247 61.5541C0.153685 61.7306 0.276559 61.8792 0.437611 61.9743C0.648486 62.0859 0.885406 62.1384 1.12348 62.1263H8.01777L8.11576 64.8081C8.11505 64.8911 8.13994 64.9723 8.18701 65.0405C8.21891 65.0673 8.25583 65.0875 8.2956 65.0998C8.33538 65.112 8.3772 65.1162 8.41861 65.112H10.111C10.1495 65.1163 10.1884 65.1118 10.2249 65.0989C10.2614 65.086 10.2946 65.0651 10.3219 65.0376C10.3493 65.0102 10.3702 64.9769 10.383 64.9403C10.3958 64.9036 10.4003 64.8646 10.396 64.826L10.6009 60.7854C10.6196 60.6639 10.6196 60.5403 10.6009 60.4189C10.5776 60.31 10.5139 60.2141 10.4228 60.1507C10.3045 60.0687 10.1655 60.0222 10.0219 60.0166L9.13119 59.9451V52.4181H9.10447ZM12.3289 61.0357C12.3223 61.2362 12.3525 61.4361 12.418 61.6257C12.4438 61.703 12.4847 61.7744 12.5382 61.8358C12.5917 61.8972 12.6568 61.9473 12.7298 61.9832C12.9409 62.0719 13.1693 62.1116 13.3978 62.0995H14.2886C14.4542 62.1196 14.6217 62.1196 14.7874 62.0995C14.9188 62.065 15.0407 62.0008 15.1437 61.9117C15.2717 61.7961 15.3801 61.6602 15.4643 61.5095C15.7672 61.0535 16.07 60.6155 16.3551 60.1239L17.2458 58.7383C17.513 58.3092 17.7891 57.8443 18.0564 57.4242C18.3236 57.004 18.5908 56.5302 18.8758 56.1011H18.9738V61.8313C18.9738 61.9654 18.9738 62.0458 19.0451 62.0816C19.1307 62.133 19.2318 62.152 19.3301 62.1352H21.3788C21.4686 62.1521 21.5614 62.1328 21.6371 62.0816C21.6678 62.0482 21.6908 62.0085 21.7047 61.9653C21.7185 61.9221 21.7228 61.8763 21.7173 61.8313V53.1422C21.7242 52.919 21.6848 52.6967 21.6015 52.4896C21.525 52.3409 21.3989 52.2239 21.2452 52.1589C21.0553 52.0975 20.8568 52.0673 20.6573 52.0695H19.7666C19.5957 52.0647 19.425 52.0827 19.2589 52.1231C19.1296 52.1564 19.0103 52.2208 18.9115 52.3109C18.7904 52.4297 18.6829 52.5616 18.5908 52.7042L17.5041 54.4921L16.6935 55.7972C16.6134 55.9224 16.5332 56.0386 16.462 56.1637C16.3907 56.2889 16.3016 56.423 16.2036 56.5928L15.8117 57.2364L15.1437 58.2287H15.0546V52.3824C15.0639 52.2928 15.0384 52.2031 14.9833 52.1321C14.8955 52.0777 14.7916 52.0555 14.6894 52.0695H12.6763C12.5817 52.0623 12.4875 52.0875 12.4091 52.141C12.3792 52.173 12.3565 52.2112 12.3426 52.2529C12.3288 52.2945 12.3241 52.3387 12.3289 52.3824V61.0357ZM31.6757 62.3319C32.4235 62.292 33.1588 62.1227 33.8491 61.8313C34.443 61.5823 34.9768 61.2085 35.4147 60.7351C35.8526 60.2617 36.1843 59.6997 36.3877 59.0869C36.6072 58.4302 36.7156 57.7413 36.7084 57.0487C36.7184 56.3156 36.5884 55.5873 36.3254 54.9033C36.0872 54.2993 35.7227 53.7536 35.2565 53.3031C34.7936 52.8658 34.2486 52.5254 33.6532 52.3019C33.0135 52.0652 32.3395 51.9353 31.6579 51.9175V48.5116C31.6579 48.3597 31.6579 48.2613 31.5866 48.2256C31.4859 48.1709 31.3707 48.1491 31.2571 48.163H29.2975C29.1973 48.1564 29.0977 48.1814 29.0124 48.2345C28.9785 48.2715 28.9531 48.3155 28.9377 48.3633C28.9223 48.4111 28.9174 48.4617 28.9233 48.5116V51.8818C28.2502 51.8972 27.5846 52.0272 26.9548 52.2662C26.3545 52.4946 25.804 52.8377 25.3337 53.2763C24.8565 53.7284 24.4801 54.2768 24.2292 54.8854C23.9607 55.5747 23.8247 56.3087 23.8283 57.0487C23.8189 57.7422 23.9304 58.432 24.1579 59.0869C24.3727 59.6895 24.7059 60.2428 25.1377 60.7139C25.5842 61.1871 26.1243 61.5616 26.7232 61.8134C27.416 62.1068 28.1546 62.2763 28.9055 62.314V65.6126C28.8984 65.6612 28.9027 65.7108 28.9182 65.7574C28.9336 65.804 28.9598 65.8463 28.9946 65.8808C29.0348 65.9114 29.0808 65.9335 29.1298 65.9458C29.1788 65.9581 29.2298 65.9603 29.2796 65.9523H31.2571C31.3708 65.9703 31.4873 65.9482 31.5866 65.8897C31.6401 65.845 31.6579 65.7557 31.6579 65.6126V62.3319H31.6757ZM26.5451 57.1649C26.5335 56.6485 26.6244 56.135 26.8123 55.6542C26.9774 55.2472 27.2557 54.8965 27.614 54.644C27.9998 54.3823 28.4494 54.2308 28.9144 54.206V60.1954C28.5422 60.1657 28.1807 60.0559 27.8545 59.8736C27.5636 59.6974 27.3119 59.4631 27.1152 59.1852C26.9221 58.9131 26.7747 58.6111 26.6787 58.2913C26.5815 57.936 26.5336 57.5691 26.5362 57.2007L26.5451 57.1649ZM34.0273 57.1649C34.0318 57.5293 33.9899 57.8928 33.9026 58.2466C33.8136 58.5659 33.6721 58.868 33.4839 59.1405C33.2943 59.4168 33.0446 59.6461 32.7535 59.811C32.4216 59.998 32.0546 60.1137 31.6757 60.1507V54.2507C32.142 54.2764 32.5935 54.4244 32.9851 54.6798C33.3461 54.9405 33.6195 55.3053 33.769 55.7257C33.9545 56.2038 34.0424 56.7146 34.0273 57.2275V57.1649ZM41.5896 62.0279L42.3289 62.162C42.559 62.1991 42.7909 62.223 43.0237 62.2335C43.2464 62.2335 43.4869 62.2335 43.7363 62.2335C44.4232 62.2432 45.104 62.1029 45.7315 61.8223C46.2768 61.5663 46.7533 61.1832 47.1211 60.7049C47.4935 60.2123 47.7713 59.6546 47.9406 59.0601C48.1232 58.4025 48.2131 57.7224 48.2078 57.0398C48.2144 56.3553 48.1305 55.6729 47.9584 55.0105C47.8034 54.4096 47.5276 53.8468 47.1478 53.3568C46.754 52.8662 46.242 52.4847 45.6603 52.2483C44.941 51.961 44.1718 51.8212 43.3978 51.8371C42.9246 51.8381 42.4518 51.865 41.9815 51.9175C41.4922 51.9609 41.0068 52.0416 40.5296 52.1589C40.0735 52.2632 39.6289 52.4129 39.2024 52.6059C39.0727 52.6551 38.963 52.7463 38.8907 52.8651C38.8332 52.9652 38.8082 53.0808 38.8194 53.1958V65.6216C38.8123 65.6701 38.8166 65.7197 38.8321 65.7663C38.8475 65.8129 38.8737 65.8552 38.9085 65.8897C39.0058 65.9358 39.1128 65.9573 39.2203 65.9523H41.1888C41.3014 65.9631 41.4149 65.9446 41.5184 65.8987C41.5507 65.8611 41.574 65.8166 41.5864 65.7685C41.5987 65.7204 41.5998 65.6701 41.5896 65.6216V62.0458V62.0279ZM45.3129 57.013C45.3337 57.5794 45.2429 58.1445 45.0457 58.6757C44.8898 59.0413 44.6294 59.3524 44.2975 59.5696C43.9512 59.7603 43.561 59.8558 43.1662 59.8467C42.9349 59.8623 42.7028 59.8623 42.4714 59.8467C42.1713 59.8133 41.8737 59.7596 41.5807 59.6858V54.4742C41.7389 54.4272 41.8995 54.3884 42.0617 54.358C42.2357 54.3283 42.4111 54.3074 42.5872 54.2954H43.0237C43.4476 54.2773 43.8695 54.3632 44.2529 54.5457C44.6118 54.7381 44.8877 55.0563 45.0279 55.4396C45.2355 55.9619 45.3296 56.5227 45.304 57.0845L45.3129 57.013ZM59.5112 57.013C59.533 56.0548 59.3476 55.1033 58.9679 54.2239C58.6277 53.4749 58.0644 52.8502 57.3556 52.436C56.536 51.9932 55.6137 51.7772 54.6834 51.8103C53.7883 51.7877 52.9031 52.0036 52.1181 52.436C51.4048 52.8527 50.8336 53.4759 50.4792 54.2239C50.0615 55.1179 49.8572 56.0974 49.8824 57.0845C49.8491 58.0508 50.0191 59.0133 50.3812 59.9093C50.6886 60.6624 51.237 61.2914 51.94 61.6972C52.7596 62.14 53.6819 62.356 54.6122 62.3229C55.5417 62.3488 56.4622 62.1333 57.2844 61.6972C57.997 61.2877 58.5615 60.6617 58.8966 59.9093C59.2757 59.008 59.4579 58.0356 59.431 57.0577L59.5112 57.013ZM56.643 57.0755C56.6454 57.4507 56.6096 57.8251 56.5362 58.193C56.4691 58.5078 56.3518 58.8097 56.1888 59.0869C56.0412 59.3376 55.8328 59.5467 55.5831 59.6948C55.309 59.8417 55.003 59.9184 54.6923 59.9183C54.2968 59.9313 53.9082 59.8118 53.5878 59.5786C53.2824 59.3282 53.0641 58.987 52.9643 58.6042C52.8245 58.0797 52.7615 57.5377 52.7773 56.9951C52.7673 56.4832 52.8395 55.9732 52.991 55.4843C53.1082 55.0955 53.3376 54.7502 53.6502 54.4921C53.9658 54.2544 54.3512 54.1286 54.7458 54.1345C55.1553 54.1211 55.5562 54.2541 55.877 54.5099C56.1726 54.7861 56.3802 55.1437 56.4738 55.538C56.6035 56.0337 56.6634 56.5452 56.652 57.0577L56.643 57.0755ZM69.2202 56.5034C69.4523 56.3734 69.6578 56.2005 69.8259 55.9939C69.9906 55.7938 70.1201 55.5671 70.209 55.3234C70.297 55.086 70.3422 54.8348 70.3426 54.5815C70.3503 54.1703 70.2618 53.7631 70.0843 53.3925C69.9222 53.0759 69.6832 52.8053 69.3895 52.6059C69.0705 52.3994 68.7177 52.2511 68.3473 52.1678C67.9343 52.0801 67.5135 52.0352 67.0914 52.0337H62.6377C62.4076 52.0253 62.1788 52.0712 61.9696 52.1678C61.8229 52.2498 61.7118 52.3836 61.6579 52.5433C61.5931 52.7237 61.5628 52.9148 61.5688 53.1065V61.0982C61.5645 61.2819 61.5979 61.4644 61.6668 61.6346C61.7403 61.7803 61.8636 61.8945 62.0142 61.9564C62.2356 62.0411 62.4724 62.0777 62.709 62.0637H67.1003C67.6024 62.0838 68.1046 62.0234 68.5878 61.8849C69.0098 61.7475 69.4025 61.5323 69.7458 61.2502C70.0681 60.9846 70.3294 60.6522 70.5118 60.2758C70.8306 59.5885 70.8752 58.8049 70.6365 58.0857C70.533 57.7772 70.3661 57.494 70.1466 57.2543C69.8939 56.9931 69.5908 56.7863 69.2559 56.6464V56.5392L69.2202 56.5034ZM67.9287 58.7651C67.9272 58.8891 67.9092 59.0123 67.8752 59.1316C67.8383 59.268 67.7747 59.3956 67.6882 59.507C67.5892 59.6323 67.4606 59.7306 67.3141 59.7931C67.1243 59.8797 66.9166 59.9195 66.7084 59.9093H64.3123V57.7013H66.7262C66.9602 57.6909 67.1931 57.7401 67.4031 57.8443C67.5708 57.9279 67.7079 58.0624 67.7951 58.2287C67.8862 58.4053 67.9322 58.6019 67.9287 58.8008V58.7651ZM64.3123 54.206H66.6727C66.8258 54.2065 66.9761 54.2465 67.1092 54.3222C67.2243 54.3931 67.317 54.4954 67.3764 54.6172C67.4393 54.7417 67.4699 54.88 67.4655 55.0195C67.4739 55.1934 67.4272 55.3656 67.3319 55.5111C67.2542 55.6329 67.1427 55.7292 67.0112 55.7883C66.8845 55.8423 66.7481 55.8697 66.6104 55.8687H64.3123V54.206ZM82.127 57.0487C82.1531 56.0902 81.9676 55.1377 81.5836 54.2596C81.2435 53.5106 80.6802 52.886 79.9714 52.4718C79.1518 52.029 78.2295 51.813 77.2992 51.846C76.404 51.8235 75.5189 52.0394 74.7339 52.4718C74.0206 52.8885 73.4494 53.5116 73.0949 54.2596C72.6902 55.1416 72.4921 56.1048 72.516 57.0755C72.4827 58.0419 72.6527 59.0044 73.0148 59.9004C73.3222 60.6535 73.8706 61.2825 74.5736 61.6882C75.3932 62.131 76.3155 62.347 77.2458 62.314C78.1753 62.3399 79.0958 62.1244 79.918 61.6882C80.6306 61.2788 81.1951 60.6527 81.5302 59.9004C81.9093 58.999 82.0915 58.0267 82.0646 57.0487H82.127ZM79.2588 57.1113C79.2612 57.4864 79.2253 57.8609 79.1519 58.2287C79.0849 58.5435 78.9676 58.8454 78.8046 59.1226C78.657 59.3733 78.4486 59.5824 78.1989 59.7305C77.9248 59.8774 77.6188 59.9542 77.3081 59.954C76.9126 59.967 76.524 59.8475 76.2036 59.6143C75.8982 59.364 75.6799 59.0228 75.5801 58.6399C75.4413 58.1152 75.3754 57.5737 75.3841 57.0308C75.3768 56.5185 75.452 56.0083 75.6068 55.5201C75.724 55.1312 75.9534 54.786 76.266 54.5278C76.5816 54.2901 76.967 54.1644 77.3616 54.1702C77.7711 54.1568 78.172 54.2899 78.4928 54.5457C78.7883 54.8219 78.996 55.1795 79.0896 55.5737C79.2193 56.0695 79.2792 56.581 79.2677 57.0934L79.2588 57.1113ZM84.2113 61.0357C84.2047 61.2362 84.2349 61.4361 84.3004 61.6257C84.3262 61.703 84.3671 61.7744 84.4206 61.8358C84.4741 61.8972 84.5392 61.9473 84.6122 61.9832C84.823 62.0728 85.0516 62.1125 85.2802 62.0995H86.1709C86.3366 62.1199 86.5041 62.1199 86.6698 62.0995C86.8012 62.065 86.9231 62.0008 87.026 61.9117C87.1541 61.7961 87.2624 61.6602 87.3467 61.5095C87.6496 61.0535 87.9524 60.6155 88.2374 60.1239L89.1282 58.7472C89.3954 58.3181 89.6715 57.8533 89.9388 57.4331C90.206 57.013 90.4732 56.5392 90.7582 56.1101H90.8562V61.8313C90.8562 61.9654 90.8562 62.0458 90.9275 62.0816C91.0131 62.133 91.1142 62.152 91.2125 62.1352H93.2701C93.3599 62.1521 93.4527 62.1328 93.5284 62.0816C93.5591 62.0482 93.5821 62.0085 93.596 61.9653C93.6098 61.9221 93.6141 61.8763 93.6086 61.8313V53.1601C93.6198 52.9366 93.5802 52.7134 93.4928 52.5075C93.4158 52.3612 93.2895 52.2472 93.1365 52.1857C92.9487 52.1158 92.7486 52.0853 92.5486 52.0963H91.6579C91.4897 52.07 91.3184 52.07 91.1502 52.0963C91.0209 52.1296 90.9016 52.194 90.8028 52.284C90.6817 52.4028 90.5742 52.5348 90.4821 52.6774L89.3954 54.4652L88.5848 55.7704C88.5047 55.8955 88.4245 56.0117 88.3532 56.1369C88.282 56.262 88.1929 56.3961 88.0949 56.566L87.703 57.2096C87.5427 57.4778 87.3467 57.8086 87.0973 58.2108H87.0082V52.4002C87.0176 52.3107 86.992 52.221 86.937 52.1499C86.8492 52.0956 86.7442 52.0764 86.643 52.0963H84.6122C84.5184 52.0824 84.4229 52.1048 84.3449 52.1589C84.315 52.1909 84.2923 52.2291 84.2785 52.2707C84.2646 52.3124 84.26 52.3566 84.2648 52.4002V61.0357H84.2113ZM88.8342 51.2024C89.5222 51.1986 90.1952 51.0003 90.776 50.6303C91.4727 50.1691 92.077 49.5808 92.5575 48.896C92.5863 48.8639 92.6103 48.8278 92.6288 48.7887C92.6378 48.7676 92.6425 48.7448 92.6425 48.7217C92.6425 48.6986 92.6378 48.6758 92.6288 48.6547C92.5923 48.5793 92.5408 48.5124 92.4773 48.458L91.7559 47.8322C91.7242 47.7943 91.6847 47.7638 91.6401 47.7428C91.6211 47.7319 91.5996 47.7261 91.5777 47.7261C91.5558 47.7261 91.5343 47.7319 91.5154 47.7428C91.4447 47.7791 91.3788 47.8241 91.3194 47.8769C91.0072 48.2037 90.6675 48.5028 90.304 48.7709C90.0709 48.9395 89.8122 49.0693 89.5379 49.1553C89.3361 49.2181 89.1257 49.2483 88.9144 49.2447C88.5058 49.2328 88.1071 49.1158 87.7564 48.905C87.3119 48.6458 86.9069 48.3237 86.554 47.9484C86.5065 47.9031 86.4559 47.8613 86.4025 47.8233C86.3595 47.8068 86.3119 47.8068 86.2689 47.8233C86.1999 47.8457 86.1362 47.8822 86.0819 47.9306L85.3426 48.6547C85.2808 48.6951 85.2338 48.7548 85.209 48.8245C85.1951 48.8712 85.1951 48.9209 85.209 48.9675C85.2257 49.0055 85.2466 49.0415 85.2713 49.0748C85.4741 49.3671 85.7005 49.6422 85.9483 49.8972C86.1938 50.1632 86.4687 50.4001 86.7677 50.6034C87.0608 50.8138 87.3816 50.9822 87.7208 51.104C88.0646 51.2234 88.4259 51.2838 88.7897 51.2828L88.8342 51.2024ZM110.639 52.4628C110.65 52.4142 110.649 52.3639 110.636 52.3159C110.624 52.2678 110.601 52.2232 110.568 52.1857C110.477 52.1301 110.371 52.105 110.265 52.1142H108.226C108.116 52.1043 108.005 52.1327 107.914 52.1946C107.882 52.2312 107.858 52.2737 107.842 52.3198C107.827 52.3658 107.821 52.4144 107.825 52.4628V59.9361H104.262V52.4181C104.268 52.3468 104.268 52.2749 104.262 52.2036C104.251 52.1786 104.235 52.1562 104.215 52.1377C104.195 52.1193 104.172 52.1052 104.146 52.0963C104.063 52.0838 103.979 52.0838 103.897 52.0963H101.919C101.815 52.0905 101.712 52.1187 101.625 52.1768C101.59 52.2116 101.564 52.2537 101.547 52.3C101.53 52.3463 101.523 52.3958 101.527 52.4449V60.9284C101.517 61.1408 101.547 61.3531 101.616 61.5541C101.676 61.7299 101.796 61.8787 101.955 61.9743C102.169 62.0846 102.409 62.137 102.65 62.1263H109.562L109.651 64.8081C109.652 64.8922 109.68 64.9736 109.731 65.0405C109.763 65.0673 109.8 65.0875 109.839 65.0998C109.879 65.112 109.921 65.1162 109.962 65.112H111.655C111.693 65.1166 111.732 65.1122 111.768 65.0993C111.804 65.0864 111.837 65.0653 111.864 65.0376C111.89 65.01 111.91 64.9764 111.922 64.9397C111.934 64.903 111.937 64.8641 111.931 64.826L112.145 60.7854C112.168 60.6643 112.168 60.5399 112.145 60.4189C112.122 60.31 112.058 60.2141 111.967 60.1507C111.851 60.0703 111.715 60.0239 111.575 60.0166L110.684 59.9451V52.4181L110.639 52.4628ZM118.202 51.8907C117.33 51.871 116.468 52.0871 115.708 52.5165C115 52.9376 114.433 53.5597 114.078 54.3043C113.671 55.2047 113.47 56.1853 113.49 57.1739C113.455 58.1756 113.637 59.173 114.024 60.097C114.352 60.8314 114.921 61.4309 115.636 61.7955C116.496 62.1893 117.436 62.376 118.38 62.3408C118.759 62.3401 119.137 62.3102 119.511 62.2514C119.91 62.1931 120.304 62.1004 120.687 61.9743C121.057 61.8579 121.411 61.6925 121.738 61.4826C121.821 61.442 121.89 61.3764 121.934 61.2949C121.953 61.2527 121.962 61.207 121.962 61.1608C121.962 61.1146 121.953 61.069 121.934 61.0267L121.328 59.6501C121.316 59.6106 121.295 59.5743 121.267 59.5435C121.239 59.5127 121.206 59.4881 121.168 59.4713C121.066 59.4455 120.959 59.4455 120.856 59.4713C120.513 59.6151 120.159 59.7288 119.796 59.811C119.425 59.8981 119.046 59.9461 118.665 59.954C118.277 59.9608 117.891 59.8972 117.525 59.7663C117.192 59.6464 116.909 59.4163 116.723 59.1137C116.499 58.7318 116.382 58.2963 116.385 57.8533H121.257C121.521 57.8629 121.783 57.8109 122.023 57.7013C122.239 57.5819 122.408 57.3929 122.504 57.1649C122.636 56.8389 122.697 56.4884 122.682 56.1369C122.706 55.3273 122.535 54.5239 122.183 53.7948C121.857 53.1586 121.336 52.6446 120.696 52.3287C119.923 51.9719 119.079 51.8005 118.229 51.8281L118.202 51.8907ZM118.264 54.1792C118.627 54.1578 118.987 54.2483 119.297 54.4384C119.546 54.6049 119.731 54.8505 119.823 55.1357C119.923 55.4629 119.974 55.8034 119.974 56.1458H116.411C116.433 55.7886 116.534 55.4406 116.705 55.1268C116.855 54.845 117.072 54.6053 117.338 54.4295C117.608 54.2688 117.915 54.1824 118.229 54.1792H118.264ZM127.376 61.724V57.889H130.939V61.724C130.934 61.7767 130.939 61.8299 130.954 61.8806C130.969 61.9313 130.995 61.9784 131.028 62.019C131.123 62.0884 131.242 62.1173 131.358 62.0995H133.255C133.375 62.118 133.497 62.0959 133.603 62.0369C133.635 61.9924 133.658 61.9417 133.671 61.8879C133.683 61.8341 133.684 61.7783 133.674 61.724V52.436C133.684 52.3866 133.683 52.3357 133.672 52.2865C133.662 52.2372 133.641 52.1908 133.612 52.1499C133.506 52.0908 133.385 52.0658 133.264 52.0784H131.367C131.25 52.0676 131.133 52.0993 131.037 52.1678C131.003 52.2048 130.978 52.2488 130.963 52.2966C130.947 52.3444 130.942 52.395 130.948 52.4449V55.7257H127.385V52.436C127.398 52.3309 127.369 52.2249 127.305 52.141C127.196 52.0832 127.072 52.0584 126.949 52.0695H125.043C124.931 52.0606 124.821 52.0924 124.731 52.1589C124.694 52.1939 124.666 52.2374 124.649 52.2856C124.632 52.3337 124.626 52.3853 124.633 52.436V61.724C124.622 61.8164 124.648 61.9094 124.704 61.9832C124.748 62.0166 124.799 62.0409 124.852 62.0547C124.906 62.0686 124.961 62.0716 125.016 62.0637H126.922C127.044 62.0809 127.169 62.059 127.278 62.0011C127.344 61.9109 127.373 61.799 127.359 61.6882L127.376 61.724ZM143.677 54.3222C143.73 54.3278 143.784 54.322 143.834 54.305C143.885 54.2881 143.932 54.2604 143.971 54.2239C144.038 54.131 144.07 54.0166 144.06 53.9021V52.5165C144.071 52.3918 144.043 52.2667 143.98 52.1589C143.938 52.1232 143.89 52.0968 143.838 52.0814C143.786 52.066 143.731 52.0619 143.677 52.0695H135.473C135.313 52.0695 135.206 52.0695 135.161 52.1589C135.097 52.2663 135.072 52.3926 135.09 52.5165V53.9378C135.077 54.0513 135.106 54.1656 135.17 54.2596C135.212 54.2955 135.26 54.3226 135.312 54.3395C135.364 54.3564 135.419 54.3627 135.473 54.358H138.145V61.7598C138.141 61.813 138.148 61.8665 138.165 61.9171C138.182 61.9678 138.208 62.0146 138.243 62.0548C138.345 62.1252 138.469 62.154 138.591 62.1352H140.47C140.59 62.1537 140.712 62.1317 140.818 62.0726C140.853 62.0293 140.879 61.9792 140.894 61.9254C140.91 61.8716 140.914 61.8152 140.907 61.7598V54.3222H143.677ZM148.255 62.0458L148.995 62.1799C149.225 62.217 149.457 62.2409 149.689 62.2514C149.912 62.2514 150.153 62.2514 150.402 62.2514C151.086 62.261 151.764 62.1206 152.388 61.8402C152.937 61.5891 153.414 61.2051 153.778 60.7228C154.156 60.2329 154.438 59.6745 154.606 59.0779C154.781 58.419 154.868 57.7396 154.865 57.0577C154.878 56.3733 154.797 55.6904 154.624 55.0284C154.469 54.4274 154.193 53.8646 153.813 53.3746C153.414 52.8927 152.899 52.5205 152.317 52.293C151.597 52.0066 150.828 51.8669 150.055 51.8818C149.578 51.8831 149.103 51.9099 148.629 51.9622C148.143 52.0065 147.661 52.0871 147.186 52.2036C146.728 52.3093 146.28 52.459 145.85 52.6505C145.724 52.7053 145.616 52.7953 145.538 52.9098C145.488 53.0123 145.466 53.1266 145.476 53.2405V65.6663C145.469 65.7148 145.473 65.7644 145.489 65.811C145.504 65.8576 145.53 65.8999 145.565 65.9344C145.659 65.9809 145.763 66.0024 145.868 65.997H147.863C147.976 66.0078 148.089 65.9893 148.193 65.9434C148.246 65.8987 148.264 65.8093 148.264 65.6663V62.0458H148.255ZM151.979 57.0308C151.995 57.5971 151.905 58.1613 151.711 58.6936C151.555 59.0616 151.291 59.3733 150.954 59.5875C150.612 59.7794 150.224 59.8751 149.832 59.8646C149.601 59.8802 149.368 59.8802 149.137 59.8646C148.837 59.8327 148.539 59.7789 148.246 59.7037V54.4742C148.405 54.4272 148.565 54.3884 148.727 54.358C148.905 54.358 149.075 54.3043 149.244 54.2954H149.689C150.113 54.2773 150.535 54.3632 150.919 54.5457C151.277 54.7381 151.553 55.0563 151.693 55.4396C151.901 55.9619 151.995 56.5227 151.97 57.0845L151.979 57.0308Z" fill="black"/>
</svg>
