<?xml version="1.0" encoding="utf-8"?><svg xmlns="http://www.w3.org/2000/svg" xmlns:xlink="http://www.w3.org/1999/xlink"><symbol fill="none" viewBox="0 0 47 47" id="advantage-choice" xmlns="http://www.w3.org/2000/svg"><path d="M33.01 2.816l.153-.343-.153.343a1.22 1.22 0 1 1-.994 2.23 20.06 20.06 0 0 0-24.99 29.237A20.059 20.059 0 0 0 43.91 23.38v0-1.958a1.221 1.221 0 0 1 2.442 0v1.959A22.5 22.5 0 1 1 6.749 8.75 22.501 22.501 0 0 1 33.01 2.815z" fill="#FF5200" stroke="#fff" stroke-width=".75"/><path d="M23.238 25.196l.263.259.263-.259L44.276 5.017a1.22 1.22 0 1 1 1.712 1.74l-21.63 21.28a1.22 1.22 0 0 1-1.712 0l-6.489-6.377a1.22 1.22 0 0 1-.015-1.726l-.266-.262.266.262a1.221 1.221 0 0 1 1.727-.015l5.37 5.277z" fill="#FF5200" stroke="#fff" stroke-width=".75"/></symbol><symbol fill="none" viewBox="0 0 59 43" id="advantage-delivery" xmlns="http://www.w3.org/2000/svg"><path d="M57.902 35.182V21.743a7.74 7.74 0 0 0-1.048-3.888l-2.977-5.15a5.954 5.954 0 0 0-5.15-2.977H37.724V5.679A4.763 4.763 0 0 0 32.96.916H5.9a4.763 4.763 0 0 0-4.763 4.763v25.93A4.763 4.763 0 0 0 5.9 36.373h2.93a6.615 6.615 0 0 0 13.021 0H40.2a6.615 6.615 0 0 0 13.022 0h4.68v-1.191zm-9.187-23.055a3.573 3.573 0 0 1 3.09 1.787l2.882 4.96H37.724v-6.746h10.991zM8.822 33.998H5.9a2.381 2.381 0 0 1-2.382-2.382V5.691A2.382 2.382 0 0 1 5.9 3.31h27.06a2.382 2.382 0 0 1 2.382 2.382v28.3H21.85a6.615 6.615 0 0 0-13.022 0l-.006.006zm6.514 5.436a4.245 4.245 0 1 1 4.245-4.24 4.246 4.246 0 0 1-4.245 4.234v.006zm24.865-5.442h-2.477V21.243h17.761c0 .167.036.334.036.5v12.248h-2.299a6.615 6.615 0 0 0-13.021 0zm6.514 5.436a4.246 4.246 0 1 1 2.995-1.243 4.245 4.245 0 0 1-3.002 1.243h.007z" fill="#FF5200" stroke="#fff" stroke-width=".75"/><path d="M29.305 16.802a9.711 9.711 0 1 0-9.712 9.71 9.723 9.723 0 0 0 9.712-9.71zm-17.053 0a7.33 7.33 0 1 1 14.659 0 7.33 7.33 0 0 1-14.66 0z" fill="#FF5200" stroke="#fff" stroke-width=".75"/><path d="M23.755 17.087a1.19 1.19 0 0 0-1.19-1.19h-1.87v-2.751a1.19 1.19 0 0 0-2.382 0v3.935a1.19 1.19 0 0 0 1.191 1.191h3.06a1.19 1.19 0 0 0 1.191-1.185z" fill="#FF5200" stroke="#fff" stroke-width=".75"/></symbol><symbol fill="none" viewBox="0 0 54 41" id="advantage-gift" xmlns="http://www.w3.org/2000/svg"><path d="M26.874 4.446A3.541 3.541 0 0 0 23.332.904H4.734A3.541 3.541 0 0 0 1.19 4.446v12.399a3.542 3.542 0 0 0 3.543 3.542" stroke="#FF5200" stroke-width="1.5" stroke-linecap="round" stroke-linejoin="round"/><path d="M49.015 20.387a3.541 3.541 0 0 0 3.542-3.542V4.446A3.542 3.542 0 0 0 49.015.904H30.417a3.542 3.542 0 0 0-3.543 3.542V36.33a3.541 3.541 0 0 1-3.542 3.542H4.734a3.541 3.541 0 0 1-3.543-3.543V23.93a3.542 3.542 0 0 1 3.543-3.543h44.28zm0 0a3.542 3.542 0 0 1 3.542 3.543v12.398a3.542 3.542 0 0 1-3.542 3.543H30.417a3.541 3.541 0 0 1-3.543-3.543" stroke="#FF5200" stroke-width="1.5" stroke-linecap="round" stroke-linejoin="round"/><path d="M48.13 4.446h-8.857a.886.886 0 0 0-.886.886v10.627c0 .49.397.886.886.886h8.856c.49 0 .886-.397.886-.886V5.332a.886.886 0 0 0-.886-.886zm-4.429 0v.886m-2.657-.886v.886m5.314-.886v.886M43.701 15.96v.885m-2.657-.885v.885m5.314-.885v.885m-7.528-6.199h.886m-.886 2.656h.886m-.886-5.313h.886m7.97 2.657h.886m-.886 2.656h.886m-.886-5.313h.886M4.734 5.332h3.542M4.734 8.874h12.399M4.734 12.417h9.742M4.734 15.96h5.314m23.102 3.162c1.556-1.556 1.696-3.94.313-5.323-1.384-1.383-3.767-1.243-5.323.313-1.556 1.556-1.697 3.94-.313 5.323 1.383 1.383 3.766 1.243 5.323-.313z" stroke="#FF5200" stroke-width="1.5" stroke-linecap="round" stroke-linejoin="round"/><path d="M25.922 19.435c1.383-1.383 1.243-3.767-.313-5.323-1.557-1.556-3.94-1.697-5.323-.313-1.384 1.383-1.243 3.766.313 5.323 1.556 1.556 3.94 1.696 5.323.313zm.952-.819s.886 4.723-7.085 5.314m7.085-5.314s-.885 4.723 7.085 5.314" stroke="#FF5200" stroke-width="1.5" stroke-linecap="round" stroke-linejoin="round"/></symbol><symbol fill="none" viewBox="0 0 50 53" id="advantage-staff" xmlns="http://www.w3.org/2000/svg"><path d="M19.627 23.665h-6.539a.817.817 0 0 1 0-1.634h6.54a.817.817 0 1 1 0 1.634zm16.347 0h-6.538a.818.818 0 0 1 0-1.634h6.538a.817.817 0 1 1 0 1.634zm-19.616 4.087a1.635 1.635 0 1 0 0-3.27 1.635 1.635 0 0 0 0 3.27zm16.347 0a1.635 1.635 0 1 0 0-3.27 1.635 1.635 0 0 0 0 3.27zm-3.269 6.539v1.635a4.904 4.904 0 0 1-9.809 0V34.29h9.809zm0-1.635h-9.809a1.635 1.635 0 0 0-1.635 1.635v1.635a6.539 6.539 0 1 0 13.078 0V34.29a1.635 1.635 0 0 0-1.634-1.635zm17.982-11.443v6.54h-4.904v-6.54h4.904zm0-1.635h-4.904a1.635 1.635 0 0 0-1.635 1.635v6.54a1.635 1.635 0 0 0 1.635 1.634h4.904a1.635 1.635 0 0 0 1.635-1.635v-6.539a1.635 1.635 0 0 0-1.635-1.635zM6.55 21.213v6.54a3.27 3.27 0 1 1 0-6.54zm0-1.635a4.904 4.904 0 0 0 0 9.809 1.635 1.635 0 0 0 1.634-1.635v-6.539a1.635 1.635 0 0 0-1.635-1.635z" fill="#FF5200"/><path d="M46.6 29.387a.817.817 0 0 0-.817-.817.818.818 0 0 0-.752.882 18.767 18.767 0 0 1-4.43 13.078 15.677 15.677 0 0 1-2.436 2.093 15.04 15.04 0 0 0 4.349-10.74V10.488a7.26 7.26 0 0 0-7.259-7.258h-6.114a4.904 4.904 0 0 0-9.22 0h-6.114a7.242 7.242 0 0 0-6.833 4.904h-5.33a1.635 1.635 0 0 0-1.225.556A1.635 1.635 0 0 0 .01 9.966c.49 3.858 2.877 5.264 6.54 6.229v17.687a15.154 15.154 0 0 0 13.077 14.975v1.782a1.635 1.635 0 0 0 1.635 1.634H27.8a1.635 1.635 0 0 0 1.635-1.635v-1.16a19.879 19.879 0 0 0 12.293-5.918A20.205 20.205 0 0 0 46.6 29.387zM13.807 4.866h7.455a3.27 3.27 0 0 1 6.539 0h7.454a5.624 5.624 0 0 1 5.624 5.623v4.185h-8.174a1.635 1.635 0 0 0-1.112-1.634 5.984 5.984 0 0 1-4.528-4.022 1.635 1.635 0 0 0-1.52-.883H8.723a5.59 5.59 0 0 1 5.084-3.27zM1.645 9.77h23.9a7.665 7.665 0 0 0 5.525 4.904H7.17c-.228 0-.408-.114-.62-.18-3.27-.899-4.562-2.043-4.905-4.724zM27.8 47.37v3.269h-6.54v-4.905h6.54v1.635zm1.635-.148v-1.488A1.635 1.635 0 0 0 27.8 44.1h-6.54a1.635 1.635 0 0 0-1.634 1.634v1.472A13.503 13.503 0 0 1 8.184 33.882V16.31h32.695v17.573a13.503 13.503 0 0 1-11.443 13.324v.016z" fill="#FF5200"/></symbol><symbol fill="none" viewBox="0 0 38 51" id="advantage-warranty" xmlns="http://www.w3.org/2000/svg"><path d="M19.264 50.734l-9.79-7.692C3.805 38.614.619 32.01.619 24.862V8.624l.699-.078C6.134 8.158 18.487 5.75 18.487 0h1.554c0 5.75 12.354 8.158 17.17 8.546l.7.078v16.238c0 7.148-3.186 13.752-8.857 18.18l-9.79 7.692zM2.172 10.022v14.84c0 6.682 3.03 12.82 8.235 16.937l8.857 6.915 8.857-6.915c5.206-4.117 8.236-10.255 8.236-16.937v-14.84c-2.952-.31-14.063-1.942-17.093-7.147-3.03 5.205-14.14 6.837-17.092 7.148z" fill="#FF5200"/><path d="M19.264 46.772l-7.847-6.138c-4.895-3.885-7.692-9.556-7.692-15.772V11.421l.622-.078c1.632-.233 4.118-.699 6.604-1.476 3.34-1.01 5.982-2.33 7.77-3.962l.543-.466.544.466c1.787 1.554 4.351 2.952 7.77 3.962 2.486.777 4.972 1.243 6.604 1.476l.621.078v13.441c0 6.138-2.797 11.887-7.692 15.694l-7.847 6.216zM5.28 12.742v12.12c0 5.672 2.564 10.955 7.07 14.451l6.915 5.439 6.915-5.439c4.506-3.418 7.07-8.702 7.07-14.45V12.741c-1.631-.31-3.885-.7-6.215-1.399-3.264-1.01-5.905-2.253-7.77-3.807-1.942 1.554-4.506 2.797-7.77 3.807a89.62 89.62 0 0 1-6.215 1.399z" fill="#FF5200"/><path d="M17.71 30.611l-5.205-5.205 1.088-1.088 4.117 4.118 9.945-9.945 1.088 1.088L17.71 30.61z" fill="#FF5200"/></symbol><symbol viewBox="0 0 8 5" id="arrow-down" xmlns="http://www.w3.org/2000/svg"><path d="M4 3.5l.48.576a.75.75 0 0 1-.96 0L4 3.5zM.52 1.576A.75.75 0 0 1 1.48.424L.52 1.576zm6-1.152a.75.75 0 0 1 .96 1.152L6.52.424zm-3 3.652l-3-2.5.96-1.152 3 2.5-.96 1.152zm0-1.152l3-2.5.96 1.152-3 2.5-.96-1.152z"/></symbol><symbol viewBox="0 0 8 15" id="arrow-left" xmlns="http://www.w3.org/2000/svg"><path d="M1 7.037l-.774.634a1 1 0 0 1 .031-1.303l.743.67zM5.7.33a1 1 0 0 1 1.485 1.34L5.699.33zm1.515 12.715a1 1 0 1 1-1.547 1.267l1.547-1.267zM.257 6.368L5.7.33l1.486 1.34-5.442 6.037-1.486-1.34zm1.516.036l5.442 6.64-1.547 1.268-5.442-6.64 1.547-1.268z"/></symbol><symbol viewBox="0 0 8 15" id="arrow-right" xmlns="http://www.w3.org/2000/svg"><path d="M6.754 7.037l.774.634a1 1 0 0 0-.031-1.303l-.743.67zM2.054.33A1 1 0 0 0 .57 1.67L2.055.33zM.54 13.045a1 1 0 1 0 1.547 1.267L.539 13.045zm6.958-6.677L2.055.33.569 1.67l5.442 6.037 1.486-1.34zm-1.516.036L.54 13.044l1.547 1.268 5.442-6.64L5.98 6.403z"/></symbol><symbol fill="none" viewBox="0 0 43 12" id="card-mir" xmlns="http://www.w3.org/2000/svg"><g clip-path="url(#aiclip0)"><path d="M9.374 1.575L7.783 7.088H7.51L5.919 1.575A2.188 2.188 0 0 0 3.816 0H0v12h3.821V4.908h.272L6.281 12h2.732l2.182-7.092h.273V12h3.82V0h-3.816c-.971 0-1.826.642-2.098 1.575zM30.53 12h3.845V8.452h3.868c2.023 0 3.746-1.144 4.412-2.752H30.53V12zM23.72 1.266l-2.69 5.826h-.273V0h-3.82v12h3.243a2.19 2.19 0 0 0 1.986-1.266l2.69-5.822h.272V12h3.82V0h-3.243a2.19 2.19 0 0 0-1.986 1.266z" fill="#006848"/><path d="M38.623 0c1.103 0 2.103.422 2.859 1.116a4.188 4.188 0 0 1 1.375 3.107c0 .254-.028.502-.07.746h-7.098a5.373 5.373 0 0 1-5.126-3.75c-.01-.024-.014-.052-.023-.08-.019-.066-.033-.136-.052-.202A5.564 5.564 0 0 1 30.352 0h8.271z" fill="#1E5CD8"/></g><defs><linearGradient id="aipaint0_linear" x1="42.857" y1="15.54" x2="30.429" y2="15.54" gradientUnits="userSpaceOnUse"><stop stop-color="#1E5CD8"/><stop offset="1" stop-color="#02AFFF"/></linearGradient><clipPath id="aiclip0"><path fill="#fff" d="M0 0h42.857v12H0z"/></clipPath></defs></symbol><symbol fill="none" viewBox="0 0 41 14" id="card-visa" xmlns="http://www.w3.org/2000/svg"><path d="M17.966 13.447h-3.221l2.013-12.374h3.222l-2.014 12.374zM12.035 1.073l-3.071 8.51L8.6 7.752 7.516 2.188s-.13-1.114-1.528-1.114H.911l-.06.21s1.553.323 3.37 1.414l2.799 10.75h3.357l5.125-12.374h-3.467zm25.338 12.374h2.958L37.75 1.073h-2.589c-1.196 0-1.487.922-1.487.922L28.87 13.447h3.358l.671-1.838h4.095l.378 1.838zM33.828 9.07l1.693-4.63.952 4.63h-2.645zm-4.706-5.021l.46-2.657s-1.418-.54-2.897-.54c-1.599 0-5.395.699-5.395 4.096 0 3.197 4.455 3.237 4.455 4.916 0 1.679-3.996 1.378-5.315.32l-.479 2.777s1.438.7 3.636.7c2.198 0 5.515-1.14 5.515-4.237 0-3.217-4.496-3.517-4.496-4.915 0-1.4 3.138-1.22 4.516-.46z" fill="#2566AF"/></symbol><symbol fill="none" viewBox="0 0 21 20" id="city" xmlns="http://www.w3.org/2000/svg"><path d="M10.5 18.333s-7-3.75-7-9.833c-.023-.89.14-1.774.482-2.602a6.641 6.641 0 0 1 1.505-2.22A7.024 7.024 0 0 1 7.78 2.19a7.303 7.303 0 0 1 2.72-.523 7.3 7.3 0 0 1 2.72.523c.86.345 1.64.851 2.293 1.488a6.642 6.642 0 0 1 1.505 2.22c.341.828.505 1.713.482 2.602 0 6.083-7 9.833-7 9.833z" stroke="#FF5200" stroke-width="1.5" stroke-linecap="square"/><path d="M10.5 10.833c1.45 0 2.625-1.119 2.625-2.5 0-1.38-1.175-2.5-2.625-2.5s-2.625 1.12-2.625 2.5c0 1.381 1.175 2.5 2.625 2.5z" stroke="#FF5200" stroke-width="1.5" stroke-linecap="square"/></symbol><symbol stroke-width="1.5" fill="none" viewBox="0 0 19 19" id="clocks" xmlns="http://www.w3.org/2000/svg"><path d="M18.242 5.802c-1.002-2.336-2.704-4.034-5.06-5.038A9.338 9.338 0 0 0 9.485.005a9.241 9.241 0 0 0-3.687.759C3.46 1.765 1.75 3.463.748 5.802A9.245 9.245 0 0 0 0 9.49c0 1.288.245 2.526.748 3.698 1.003 2.34 2.713 4.047 5.049 5.049 1.176.504 2.4.758 3.687.758a9.342 9.342 0 0 0 3.699-.758c2.354-1.005 4.057-2.714 5.059-5.049A9.292 9.292 0 0 0 19 9.49a9.239 9.239 0 0 0-.758-3.688zm-1.517 7.885a8.334 8.334 0 0 1-3.054 3.043 8.182 8.182 0 0 1-4.186 1.122 8.044 8.044 0 0 1-3.242-.665c-1.028-.446-1.916-1.033-2.659-1.776-.743-.743-1.334-1.64-1.776-2.67a8.179 8.179 0 0 1-.655-3.251c0-1.507.37-2.9 1.112-4.176A8.339 8.339 0 0 1 5.309 2.27a8.119 8.119 0 0 1 4.175-1.122 8.18 8.18 0 0 1 4.187 1.122 8.36 8.36 0 0 1 3.054 3.044 8.12 8.12 0 0 1 1.122 4.176 8.2 8.2 0 0 1-1.122 4.197z" fill="#FF5200"/><path d="M10.087 9.406v-5.38c0-.323-.28-.582-.603-.582a.586.586 0 0 0-.57.581V9.49c0 .01.02.052.02.083a.543.543 0 0 0 .156.467l3.106 3.106a.59.59 0 0 0 .8 0 .56.56 0 0 0 0-.81l-2.909-2.93z" fill="#FF5200"/></symbol><symbol fill="none" viewBox="0 0 21 21" id="clocks2" xmlns="http://www.w3.org/2000/svg"><path d="M10.52 20.039c5.254 0 9.519-4.265 9.519-9.52 0-5.254-4.265-9.519-9.52-9.519C5.265 1 1 5.265 1 10.52c0 5.254 4.265 9.519 9.52 9.519zm0-18.277a8.76 8.76 0 0 1 8.757 8.757 8.76 8.76 0 0 1-8.758 8.758 8.76 8.76 0 0 1-8.757-8.758 8.76 8.76 0 0 1 8.757-8.757z" fill="#FF5200" stroke="#FF5200" stroke-width=".5"/><path d="M3.2 10.518c0 2.013.804 3.844 2.122 5.161v.037h.037a7.274 7.274 0 0 0 5.16 2.123 7.274 7.274 0 0 0 5.161-2.123h.037v-.037a7.275 7.275 0 0 0 2.123-5.16 7.275 7.275 0 0 0-2.123-5.161V5.32h-.037a7.275 7.275 0 0 0-5.16-2.123A7.274 7.274 0 0 0 5.359 5.32h-.037v.037a7.274 7.274 0 0 0-2.123 5.16zm1.39-.366h-.622c.073-1.537.695-2.928 1.683-4.026l.44.44c.073.073.183.11.256.11a.395.395 0 0 0 .256-.11.354.354 0 0 0 0-.513l-.476-.44a6.886 6.886 0 0 1 4.026-1.683v.622c0 .22.147.366.366.366.22 0 .366-.146.366-.366V3.93c1.538.073 2.928.696 4.027 1.684l-.44.44a.354.354 0 0 0 0 .512c.074.073.183.11.257.11a.395.395 0 0 0 .256-.11l.439-.44a6.886 6.886 0 0 1 1.684 4.026h-.623c-.22 0-.366.147-.366.367s.147.365.366.365h.623c-.074 1.538-.696 2.929-1.684 4.027l-.44-.44a.354.354 0 0 0-.512 0 .354.354 0 0 0 0 .513l.44.439a6.886 6.886 0 0 1-4.027 1.684v-.623c0-.22-.146-.366-.366-.366s-.366.147-.366.366v.623c-1.537-.073-2.928-.696-4.026-1.684l.44-.44a.354.354 0 0 0 0-.512.354.354 0 0 0-.513 0l-.44.44a6.886 6.886 0 0 1-1.683-4.027h.622c.22 0 .366-.146.366-.366s-.146-.366-.329-.366z" fill="#FF5200" stroke="#FF5200" stroke-width=".5"/><path d="M10.712 11.534c.184 0 .337-.061.52-.123l1.379 1.379a.331.331 0 0 0 .214.091c.062 0 .153-.03.215-.091a.296.296 0 0 0 0-.43l-1.378-1.377a1.17 1.17 0 0 0 0-1.011l1.99-1.99a.296.296 0 0 0 0-.43.296.296 0 0 0-.429 0l-1.99 1.991a1.072 1.072 0 0 0-1.256.184 1.072 1.072 0 0 0 0 1.531c.184.184.46.276.735.276zm-.337-1.409a.46.46 0 0 1 .337-.122.444.444 0 0 1 .337.766.444.444 0 0 1-.643 0c-.184-.154-.184-.46-.03-.644z" fill="#FF5200" stroke="#FF5200" stroke-width=".5"/></symbol><symbol fill="none" viewBox="0 0 17 13" id="envelope" xmlns="http://www.w3.org/2000/svg"><rect x=".896" y="1.283" width="15.207" height="10.433" rx="2.25" stroke="#FF5200" stroke-width="1.5"/><path d="M1.573 2.167l5.145 3.798a3 3 0 0 0 3.564 0l5.145-3.798" stroke="#FF5200" stroke-width="1.5" stroke-linecap="round" stroke-linejoin="round"/></symbol><symbol fill="none" stroke-width="1.5" stroke-linecap="square" viewBox="0 0 25 25" id="header-cart" xmlns="http://www.w3.org/2000/svg"><path d="M10.417 22.396a1.042 1.042 0 1 0 0-2.083 1.042 1.042 0 0 0 0 2.083zm8.333 0a1.042 1.042 0 1 0 0-2.083 1.042 1.042 0 0 0 0 2.083zM2.604 2.604H5.73l2.813 12.917a2.083 2.083 0 0 0 2.083 1.666h8.02a2.084 2.084 0 0 0 2.084-1.666l1.667-8.75h-15"/></symbol><symbol fill="none" stroke-width="1.5" stroke-linecap="round" stroke-linejoin="round" viewBox="0 0 24 23" id="header-compare" xmlns="http://www.w3.org/2000/svg"><g clip-path="url(#apclip0)"><path d="M3.987 20.125v-6.708m0-3.834V2.875m7.973 17.25V11.5m0-3.833V2.875m7.973 17.25v-4.792m0-3.833V2.875M.997 13.417h5.98m1.993-5.75h5.98m1.993 7.666h5.98"/></g><defs><clipPath id="apclip0"><path fill="#fff" d="M0 0h23.92v23H0z"/></clipPath></defs></symbol><symbol stroke-width="1.5" stroke-linecap="square" fill="none" viewBox="0 0 21 21" id="header-favorite" xmlns="http://www.w3.org/2000/svg"><path d="M18.235 4.034a4.812 4.812 0 0 0-6.807 0l-.928.927-.927-.927a4.814 4.814 0 1 0-6.808 6.807l.928.928 6.807 6.807 6.808-6.807.927-.928a4.814 4.814 0 0 0 0-6.807z"/></symbol><symbol viewBox="0 0 27 13" id="ifort-arrow" xmlns="http://www.w3.org/2000/svg"><path fill-rule="evenodd" clip-rule="evenodd" d="M19.084 2.049l.554-.198c2.466-.87 3.706-1.305 4.644-.82.938.486 1.205 1.782 1.664 4.332l.066.37a2.03 2.03 0 0 1-.308 1.7 1.114 1.114 0 0 1-1.346.319 2.16 2.16 0 0 1-1.074-1.432l-.666-2.247-2.712.627a2.236 2.236 0 0 1-1.78-.177 1.083 1.083 0 0 1-.444-.622c-.06-.243-.04-.498.055-.729a2.174 2.174 0 0 1 1.347-1.123zm2.869 5.192a12.117 12.117 0 0 1-4.322 3.906 11.966 11.966 0 0 1-14.97-3.104A12.062 12.062 0 0 1 .295 3.086a2.539 2.539 0 0 1 0-1.66A.88.88 0 0 1 .952.92c.23-.036.466.005.67.117a2.33 2.33 0 0 1 1.009 1.189 10.72 10.72 0 0 0 3.14 4.183 10.648 10.648 0 0 0 9.947 1.87 10.679 10.679 0 0 0 4.435-2.759 1.706 1.706 0 0 1 1.18-.506c.217.001.429.066.61.187.21.144.355.366.403.618.055.496-.078.994-.373 1.396l-.02.026z"/></symbol><symbol fill="none" stroke-width="1.5" stroke-linecap="square" viewBox="0 0 24 21" id="item-cart" xmlns="http://www.w3.org/2000/svg"><path d="M9.842 18.795c.523 0 .947-.387.947-.865 0-.477-.424-.864-.947-.864-.523 0-.947.387-.947.864 0 .478.424.865.947.865zm7.576 0c.523 0 .947-.387.947-.865 0-.477-.424-.864-.947-.864-.523 0-.947.387-.947.864 0 .478.424.865.947.865z" fill="#fff"/><path d="M2.74 2.368h2.841l2.557 10.72c.088.397.326.753.672 1.005.347.253.779.387 1.222.379h7.291c.443.008.875-.126 1.221-.379.347-.252.585-.608.673-1.004l1.515-7.263H7.096"/></symbol><symbol fill="none" stroke-width="1.5" stroke-linecap="round" stroke-linejoin="round" viewBox="0 0 19 18" id="item-compare" xmlns="http://www.w3.org/2000/svg"><g clip-path="url(#atclip0)"><path d="M3.95 15.769V10.58m0-2.963V2.429m5.93 13.34v-6.67m0-2.964V2.429m5.928 13.34v-3.706m0-2.963V2.43M1.727 10.581h4.447m1.482-4.446h4.446m1.483 5.928h4.446"/></g><defs><clipPath id="atclip0"><path fill="#fff" transform="translate(.986 .206)" d="M0 0h17.786v17.786H0z"/></clipPath></defs></symbol><symbol fill="none" stroke-width="1.5" viewBox="0 0 20 17" id="item-favorite" xmlns="http://www.w3.org/2000/svg"><path d="M1.072 5.485c0 4.617 8.894 10.519 8.894 10.519s8.892-5.738 8.893-10.519c0-2.869-1.977-4.303-4.447-4.303-2.816 0-3.953 2.869-4.446 2.869-.494 0-1.75-2.869-4.447-2.869-2.696 0-4.447 1.75-4.447 4.303z"/></symbol><symbol fill="none" viewBox="0 0 30 19" id="mastercard" xmlns="http://www.w3.org/2000/svg"><path fill-rule="evenodd" clip-rule="evenodd" d="M14.976 15.927a8.838 8.838 0 0 0 5.998 2.334c4.947 0 8.95-4.034 8.95-8.997 0-4.978-4.003-9.013-8.95-9.013a8.837 8.837 0 0 0-5.998 2.334 9.034 9.034 0 0 0-2.953 6.679 8.976 8.976 0 0 0 2.953 6.663z" fill="#E9B040"/><path fill-rule="evenodd" clip-rule="evenodd" d="M28.735 14.273c0-.155.124-.279.278-.279.17 0 .294.124.294.279 0 .17-.124.293-.294.293-.154 0-.278-.123-.278-.293zm.278.232a.238.238 0 0 0 .232-.232c0-.124-.108-.217-.232-.217a.22.22 0 0 0-.216.217c0 .123.108.232.216.232zm-.03-.093h-.063v-.263h.109c.015 0 .046 0 .061.016.031.015.031.03.031.062 0 .03-.015.061-.046.061l.062.124h-.078l-.03-.108h-.047v.108-.155h.062c.015 0 .015-.015.015-.03 0-.016 0-.016-.015-.032h-.062v.217z" fill="#E9B040"/><path fill-rule="evenodd" clip-rule="evenodd" d="M17.867 8.306c-.031-.325-.093-.634-.155-.959H12.24c.062-.324.155-.633.248-.943h4.962a10.336 10.336 0 0 0-.37-.958h-4.206c.155-.328.325-.647.51-.959h3.17a8.145 8.145 0 0 0-.68-.943h-1.81c.28-.341.586-.662.913-.958C13.384 1.148 11.281.25 8.962.25 4.031.251.012 4.287.012 9.264c0 4.963 4.019 8.998 8.95 8.998a8.877 8.877 0 0 0 6.014-2.335 8.57 8.57 0 0 0 .897-.943h-1.81a10.856 10.856 0 0 1-.68-.958h3.17c.2-.306.375-.626.526-.959h-4.206c-.139-.309-.278-.618-.386-.943h4.962c.108-.31.186-.633.263-.959.062-.309.124-.633.155-.958a9.709 9.709 0 0 0 0-1.901z" fill="#CC2131"/><path fill-rule="evenodd" clip-rule="evenodd" d="M28.735 11.351c0-.17.124-.293.278-.293.17 0 .294.123.294.293a.293.293 0 0 1-.294.294c-.154 0-.278-.14-.278-.294zm.278.216c.124 0 .232-.092.232-.216 0-.123-.108-.216-.232-.216a.22.22 0 0 0-.216.216.22.22 0 0 0 .216.216zm-.03-.092h-.063v-.248h.17c.031.016.031.047.031.078 0 .015-.015.046-.046.062l.062.108h-.078l-.03-.093h-.047v.093-.14h.031c.016 0 .031 0 .031-.015.015 0 .015-.015.015-.03 0 0 0-.016-.015-.016 0-.016-.015 0-.03 0h-.032v.2z" fill="#fff"/><path fill-rule="evenodd" clip-rule="evenodd" d="M11.93 11.861c-.293.077-.51.124-.726.124-.464 0-.742-.294-.742-.82 0-.107.015-.216.03-.34l.062-.355.047-.294.417-2.535h.928l-.108.557h.587l-.14.927h-.587l-.247 1.515c-.016.078-.016.124-.016.155 0 .2.093.278.325.278.108 0 .201-.015.294-.03l-.124.818zm3-.03c-.34.092-.65.138-.99.138-1.051 0-1.654-.556-1.654-1.653 0-1.284.711-2.211 1.7-2.211.789 0 1.299.525 1.299 1.344 0 .279-.031.542-.108.913h-1.933c-.015.062-.015.092-.015.123 0 .433.294.65.85.65a2.33 2.33 0 0 0 1.005-.232l-.154.927zm-.572-2.211v-.186c0-.309-.17-.48-.464-.48-.31 0-.526.233-.619.666h1.082zM4.51 11.908h-.96l.557-3.51-1.252 3.51H2.19l-.077-3.494-.588 3.494H.583l.757-4.56h1.407l.031 2.813.943-2.814h1.546l-.757 4.56zm2.334-1.654c-.093-.016-.123-.016-.185-.016-.557 0-.835.216-.835.557 0 .232.14.386.355.386.464 0 .65-.386.665-.927zm.773 1.654h-.835l.016-.387c-.217.294-.51.448-1.02.448-.464 0-.866-.417-.866-1.02 0-.17.03-.324.077-.479.155-.572.727-.927 1.608-.943.108 0 .278 0 .433.016.03-.124.03-.17.03-.248 0-.247-.2-.325-.649-.325a2.58 2.58 0 0 0-.804.124l-.139.031-.062.015.14-.834c.448-.14.772-.201 1.128-.201.835 0 1.283.386 1.283 1.097 0 .186.016.325-.046.727l-.217 1.33-.03.231-.016.186-.015.124-.016.108zm11.981-3.68c.279 0 .526.078.866.248l.17-.99c-.093-.046-.124-.046-.247-.093L20 7.285a1.902 1.902 0 0 0-.448-.046c-.48 0-.758.015-1.051.185-.155.109-.356.248-.572.495l-.124-.03-.99.695.047-.387h-1.02l-.603 3.71h.974l.355-1.994s.14-.278.201-.37c.186-.233.34-.233.541-.233h.078a5.003 5.003 0 0 0-.047.711c0 1.206.68 1.964 1.732 1.964.263 0 .495-.031.85-.124l.17-1.05c-.309.169-.587.246-.82.246-.571 0-.911-.433-.911-1.113 0-1.005.51-1.716 1.236-1.716zm8.209-.88l-.216 1.298c-.232-.356-.51-.526-.882-.526-.51 0-.989.294-1.283.85v-.015l-.618-.371.062-.387h-1.036l-.588 3.71h.959l.325-1.993s.247-.279.309-.371a.604.604 0 0 1 .433-.232c-.108.309-.17.68-.17 1.097 0 .928.479 1.546 1.19 1.546.356 0 .634-.124.896-.417l-.046.37h.913l.742-4.56h-.99zm-1.19 3.679c-.325 0-.495-.248-.495-.727 0-.727.31-1.252.757-1.252.34 0 .51.263.51.726 0 .742-.308 1.253-.772 1.253zm-4.468-.773c-.093-.016-.123-.016-.185-.016-.557 0-.835.216-.835.557 0 .232.139.386.355.386.464 0 .65-.386.665-.927zm.773 1.654h-.85l.03-.387c-.216.294-.51.448-1.02.448-.479 0-.896-.401-.896-1.02 0-.88.664-1.422 1.716-1.422.108 0 .278 0 .417.016.031-.124.047-.17.047-.248 0-.247-.201-.324-.665-.324-.263 0-.588.046-.804.123l-.124.031-.061.015.139-.834c.448-.14.773-.201 1.128-.201.835 0 1.268.386 1.268 1.097 0 .186.03.325-.046.727L23 11.26l-.031.232-.031.185-.016.124v.108zM9.642 8.986c.186 0 .449.015.727.062l.14-.866c-.28-.03-.65-.077-.867-.077-1.082 0-1.437.587-1.437 1.267 0 .449.2.773.726 1.02.387.186.449.217.449.387 0 .232-.201.371-.573.371a2.59 2.59 0 0 1-.88-.155l-.109.85.015.016.186.031c.062.015.14.031.247.046.232.016.433.031.557.031 1.082 0 1.53-.417 1.53-1.236 0-.51-.247-.82-.726-1.036-.418-.186-.464-.216-.464-.387 0-.17.186-.324.48-.324z" fill="#1B3771"/><path fill-rule="evenodd" clip-rule="evenodd" d="M20.897 7.192l-.17.99c-.34-.17-.588-.247-.866-.247-.727 0-1.237.71-1.237 1.716 0 .695.34 1.113.913 1.113.231 0 .51-.077.819-.232l-.17 1.036c-.356.092-.588.139-.85.139-1.052 0-1.701-.758-1.701-1.979 0-1.623.896-2.767 2.18-2.767.17 0 .324.015.448.046l.386.093c.124.046.155.062.248.093zm-3.123.68h-.093c-.324 0-.51.155-.804.604l.093-.572h-.881l-.603 3.71h.974c.356-2.273.448-2.66.912-2.66h.062c.093-.447.216-.772.371-1.066l-.031-.015zm-5.596 3.696c-.263.092-.48.123-.696.123-.494 0-.773-.278-.773-.819 0-.093.016-.216.031-.325l.062-.37.046-.294.418-2.536h.958l-.108.557h.495l-.124.912h-.495l-.263 1.546c-.015.062-.015.108-.015.155 0 .185.093.262.325.262.108 0 .2 0 .262-.03l-.123.819zm-3.726-2.49c0 .465.216.789.727 1.036.401.186.463.248.463.402 0 .232-.17.34-.556.34-.294 0-.557-.046-.866-.139l-.14.85.047.016.17.031c.062.015.14.031.263.031.216.03.402.03.526.03 1.02 0 1.5-.386 1.5-1.236 0-.51-.202-.804-.68-1.036-.418-.185-.465-.231-.465-.402 0-.2.17-.293.48-.293.185 0 .448.015.696.046l.138-.85a5.598 5.598 0 0 0-.85-.077c-1.082 0-1.468.571-1.453 1.252zm19.85 2.536h-.912l.046-.356c-.262.279-.54.402-.897.402-.71 0-1.174-.602-1.174-1.53 0-1.237.726-2.288 1.576-2.288.387 0 .665.17.928.51l.217-1.299h.958l-.742 4.561zm-1.422-.866c.448 0 .757-.525.757-1.252 0-.48-.17-.727-.51-.727-.433 0-.757.51-.757 1.237 0 .495.17.742.51.742zm-11.734.789c-.34.108-.65.154-1.005.154-1.082 0-1.639-.572-1.639-1.67 0-1.267.711-2.21 1.685-2.21.804 0 1.314.526 1.314 1.345 0 .278-.03.541-.123.928H13.46c-.016.046-.016.077-.016.108 0 .433.294.65.85.65.356 0 .665-.063 1.006-.233l-.155.928zm-.541-2.211V9.14c0-.309-.17-.479-.464-.479-.31 0-.526.232-.618.665h1.082zm-9.848 2.288H3.8l.556-3.51-1.252 3.51h-.665l-.077-3.478-.587 3.478H.877l.757-4.56h1.392l.046 2.829L4 7.053h1.515l-.758 4.561zM7.153 9.96c-.092 0-.139-.016-.216-.016-.541 0-.82.201-.82.572 0 .232.124.371.34.371.403 0 .681-.37.696-.927zm.712 1.654H7.06l.016-.387c-.247.31-.572.449-1.02.449-.526 0-.882-.402-.882-1.005 0-.912.619-1.438 1.7-1.438.11 0 .248.016.403.031.03-.123.03-.17.03-.232 0-.247-.17-.34-.618-.34-.278 0-.587.031-.804.093l-.139.046-.093.016.14-.835c.479-.139.804-.185 1.16-.185.834 0 1.282.37 1.282 1.082 0 .185-.015.324-.077.742l-.217 1.314-.03.232-.016.185-.015.14-.015.092zM22.459 9.96c-.109 0-.155-.016-.217-.016-.556 0-.835.201-.835.572 0 .232.14.371.356.371.386 0 .68-.37.695-.927zm.71 1.654h-.803l.015-.387c-.247.31-.572.449-1.02.449-.526 0-.882-.402-.882-1.005 0-.912.619-1.438 1.7-1.438.11 0 .249.016.388.031.03-.123.046-.17.046-.232 0-.247-.17-.34-.618-.34-.279 0-.603.031-.82.093l-.123.046-.093.016.139-.835c.48-.139.804-.185 1.16-.185.834 0 1.267.37 1.267 1.082 0 .185 0 .324-.077.742l-.201 1.314-.031.232-.031.185-.015.14v.092zm2.598-3.741h-.093c-.325 0-.51.154-.804.603l.093-.572h-.882l-.587 3.71h.959c.355-2.273.448-2.66.912-2.66h.062c.092-.447.216-.772.37-1.066l-.03-.015z" fill="#fff"/></symbol><symbol viewBox="0 0 146.8 120.41" id="mc_vrt_pos" xmlns="http://www.w3.org/2000/svg"><defs><style>.awcls-5{fill:#f79e1b}</style></defs><g id="awLayer_2" data-name="Layer 2"><g id="awLayer_1-2" data-name="Layer 1"><path fill="none" d="M0 0h146.8v120.41H0z"/><path d="M36.35 105.26v-6a3.56 3.56 0 0 0-3.76-3.8 3.7 3.7 0 0 0-3.36 1.7 3.51 3.51 0 0 0-3.16-1.7 3.16 3.16 0 0 0-2.8 1.42V95.7h-2.08v9.56h2.1V100a2.24 2.24 0 0 1 2.34-2.54c1.38 0 2.08.9 2.08 2.52v5.32h2.1V100a2.25 2.25 0 0 1 2.34-2.54c1.42 0 2.1.9 2.1 2.52v5.32zm31.07-9.56H64v-2.9h-2.1v2.9H60v1.9h1.94v4.4c0 2.22.86 3.54 3.32 3.54a4.88 4.88 0 0 0 2.6-.74l-.6-1.78a3.84 3.84 0 0 1-1.84.54c-1 0-1.38-.64-1.38-1.6V97.6h3.4zm17.74-.24a2.82 2.82 0 0 0-2.52 1.4V95.7h-2.06v9.56h2.08V99.9c0-1.58.68-2.46 2-2.46a3.39 3.39 0 0 1 1.3.24l.64-2a4.45 4.45 0 0 0-1.48-.26zm-26.82 1a7.15 7.15 0 0 0-3.9-1c-2.42 0-4 1.16-4 3.06 0 1.56 1.16 2.52 3.3 2.82l1 .14c1.14.16 1.68.46 1.68 1 0 .74-.76 1.16-2.18 1.16a5.09 5.09 0 0 1-3.18-1l-1 1.62a6.9 6.9 0 0 0 4.14 1.24c2.76 0 4.36-1.3 4.36-3.12s-1.26-2.56-3.34-2.86l-1-.14c-.9-.12-1.62-.3-1.62-.94s.68-1.12 1.82-1.12a6.16 6.16 0 0 1 3 .82zm55.71-1a2.82 2.82 0 0 0-2.52 1.4V95.7h-2.06v9.56h2.08V99.9c0-1.58.68-2.46 2-2.46a3.39 3.39 0 0 1 1.3.24l.64-2a4.45 4.45 0 0 0-1.48-.26zm-26.8 5a4.83 4.83 0 0 0 5.1 5 5 5 0 0 0 3.44-1.14l-1-1.68a4.2 4.2 0 0 1-2.5.86 3.07 3.07 0 0 1 0-6.12 4.2 4.2 0 0 1 2.5.86l1-1.68a5 5 0 0 0-3.44-1.14 4.83 4.83 0 0 0-5.1 5zm19.48 0V95.7h-2.08v1.16a3.63 3.63 0 0 0-3-1.4 5 5 0 0 0 0 10 3.63 3.63 0 0 0 3-1.4v1.16h2.08zm-7.74 0a2.89 2.89 0 1 1 2.9 3.06 2.87 2.87 0 0 1-2.9-3.06zm-25.1-5a5 5 0 0 0 .14 10 5.81 5.81 0 0 0 3.97-1.3l-1-1.54a4.55 4.55 0 0 1-2.78 1 2.65 2.65 0 0 1-2.86-2.34h7.1v-.8c0-3-1.86-5-4.54-5zm0 1.86a2.37 2.37 0 0 1 2.42 2.32h-5a2.46 2.46 0 0 1 2.54-2.32zm52.11 3.16v-8.62h-2v5a3.63 3.63 0 0 0-3-1.4 5 5 0 0 0 0 10 3.63 3.63 0 0 0 3-1.4v1.16h2zm3.47 3.39a1 1 0 0 1 .38.07 1 1 0 0 1 .31.2 1 1 0 0 1 .21.3.93.93 0 0 1 0 .74 1 1 0 0 1-.21.3 1 1 0 0 1-.31.2.94.94 0 0 1-.38.08 1 1 0 0 1-.9-.58.94.94 0 0 1 0-.74 1 1 0 0 1 .21-.3 1 1 0 0 1 .31-.2 1 1 0 0 1 .41-.07zm0 1.69a.71.71 0 0 0 .29-.06.75.75 0 0 0 .23-.16.74.74 0 0 0 0-1 .74.74 0 0 0-.23-.16.72.72 0 0 0-.29-.06.75.75 0 0 0-.29.06.73.73 0 0 0-.24.16.74.74 0 0 0 0 1 .74.74 0 0 0 .24.16.74.74 0 0 0 .32.06zm.06-1.19a.4.4 0 0 1 .26.08.25.25 0 0 1 .09.21.24.24 0 0 1-.07.18.35.35 0 0 1-.21.09l.29.33h-.23l-.27-.33h-.09v.33h-.19v-.88zm-.22.17v.24h.22a.21.21 0 0 0 .12 0 .1.1 0 0 0 0-.09.1.1 0 0 0 0-.09.21.21 0 0 0-.12 0zm-11-4.06a2.89 2.89 0 1 1 2.9 3.06 2.87 2.87 0 0 1-2.9-3.06zm-70.23 0V95.7H46v1.16a3.63 3.63 0 0 0-3-1.4 5 5 0 0 0 0 10 3.63 3.63 0 0 0 3-1.4v1.16h2.08zm-7.74 0a2.89 2.89 0 1 1 2.9 3.06 2.87 2.87 0 0 1-2.92-3.06z" fill="#231f20"/><g id="aw_Group_" data-name="&lt;Group>"><path fill="#ff5f00" d="M57.65 22.85h31.5v56.61h-31.5z"/><path id="aw_Path_" data-name="&lt;Path>" d="M59.65 51.16A35.94 35.94 0 0 1 73.4 22.85a36 36 0 1 0 0 56.61 35.94 35.94 0 0 1-13.75-28.3z" fill="#eb001b"/><path class="awcls-5" d="M131.65 51.16a36 36 0 0 1-58.25 28.3 36 36 0 0 0 0-56.61 36 36 0 0 1 58.25 28.3zm-3.44 22.3V72.3h.47v-.24h-1.19v.24h.51v1.16zm2.31 0v-1.4h-.36l-.42 1-.42-1H129v1.4h.26v-1.05l.39.91h.27l.39-.91v1.06z"/></g></g></g></symbol><symbol stroke-width="1.5" viewBox="0 0 19 19" id="phone" xmlns="http://www.w3.org/2000/svg"><g clip-path="url(#axclip0)"><path d="M15.016 11.77c-.389-.405-.858-.622-1.355-.622-.494 0-.967.213-1.372.618l-1.267 1.263c-.104-.056-.209-.108-.309-.16-.144-.072-.28-.14-.397-.213-1.187-.754-2.265-1.736-3.3-3.007-.501-.634-.838-1.167-1.083-1.709.33-.3.634-.613.93-.914.113-.112.225-.229.337-.34.843-.843.843-1.934 0-2.776L6.106 2.815a14.837 14.837 0 0 1-.373-.38c-.24-.25-.493-.506-.754-.746-.39-.385-.854-.59-1.344-.59-.489 0-.962.205-1.363.59l-.008.008L.901 3.072a2.934 2.934 0 0 0-.87 1.865c-.097 1.17.248 2.261.513 2.975.65 1.753 1.62 3.377 3.067 5.117a18.872 18.872 0 0 0 6.284 4.92c.923.438 2.154.955 3.53 1.043a5.5 5.5 0 0 0 .252.008c.926 0 1.704-.333 2.314-.994.004-.008.012-.012.016-.02.208-.253.449-.482.701-.726.173-.165.35-.337.522-.518.397-.413.605-.894.605-1.387 0-.497-.212-.975-.617-1.376l-2.202-2.21zm1.436 4.223c-.004 0-.004.004 0 0-.157.168-.317.32-.49.489-.26.248-.525.51-.774.802-.405.433-.882.637-1.507.637-.06 0-.125 0-.185-.004-1.19-.076-2.298-.541-3.128-.938a17.812 17.812 0 0 1-5.918-4.636c-1.368-1.648-2.282-3.172-2.888-4.808-.373-.998-.509-1.776-.449-2.51.04-.47.22-.858.554-1.191l1.367-1.367c.196-.185.405-.285.61-.285.252 0 .457.152.585.28l.012.013c.245.228.477.465.722.717.124.129.252.257.38.39L6.44 4.675c.425.425.425.818 0 1.243-.117.117-.229.233-.345.345-.337.345-.658.666-1.007.979-.008.008-.016.012-.02.02-.345.344-.28.681-.208.91l.012.036c.284.69.685 1.34 1.295 2.113l.004.004c1.107 1.364 2.274 2.426 3.56 3.24.165.105.334.189.494.27.144.071.28.14.397.212.016.008.032.02.048.028.136.068.265.1.397.1.333 0 .541-.209.61-.277l1.371-1.371c.136-.136.353-.3.606-.3.248 0 .453.155.577.292a.615.615 0 0 1 .008.008l2.21 2.21c.413.408.413.83.004 1.255zM10.268 4.52a5.085 5.085 0 0 1 2.767 1.435 5.11 5.11 0 0 1 1.435 2.767.54.54 0 0 0 .534.45c.032 0 .06-.005.092-.009a.542.542 0 0 0 .445-.625 6.185 6.185 0 0 0-1.736-3.349 6.185 6.185 0 0 0-3.348-1.736.544.544 0 0 0-.626.441.536.536 0 0 0 .437.626zm8.71 3.861a10.175 10.175 0 0 0-2.86-5.514A10.175 10.175 0 0 0 10.606.008a.54.54 0 0 0-.622.441.544.544 0 0 0 .445.626 9.111 9.111 0 0 1 4.929 2.554 9.084 9.084 0 0 1 2.554 4.929.539.539 0 0 0 .534.449c.032 0 .06-.004.092-.008a.531.531 0 0 0 .44-.618z"/></g><defs><clipPath id="axclip0"><path fill="#fff" d="M0 0h19v19H0z"/></clipPath></defs></symbol><symbol fill="none" stroke-miterlimit="10" viewBox="0 0 25 25" id="phone-mobile" xmlns="http://www.w3.org/2000/svg"><path d="M6.05 1.475a.975.975 0 0 1 .808.417c.667.912 2.33 3.233 2.7 4.266a1.762 1.762 0 0 1-.416 1.9c-.592.5-1.217.958-1.871 1.371a.93.93 0 0 0-.267.254 1.408 1.408 0 0 0-.125 1.471c.571 1.109 3.03 4.734 6.667 6.642 3.637 1.908 3.833-2.817 4.908-2.5 1.53.417 4.459 2.463 4.921 3.042.462.579.417 1.8-.446 2.837-.862 1.038-2.929 2.834-5.512 2.417-2.584-.417-7.15-2.3-10.688-6.092-3.537-3.79-5.062-7.85-5.167-10.512-.083-2.217.521-4.071 2.325-4.98a5 5 0 0 1 2.163-.533z"/></symbol><symbol fill="none" stroke-linecap="square" viewBox="0 0 26 26" id="search" xmlns="http://www.w3.org/2000/svg"><path d="M11.917 20.583a8.667 8.667 0 1 0 0-17.333 8.667 8.667 0 0 0 0 17.333zM22.75 22.75l-4.712-4.712"/></symbol><symbol viewBox="0 0 9 5" id="select" xmlns="http://www.w3.org/2000/svg"><path d="M4.167 3.844l.317.387a.5.5 0 0 1-.651-.015l.334-.372zM.666 1.365a.5.5 0 0 1 .668-.743l-.668.743zM7.334.607a.5.5 0 0 1 .634.774L7.334.607zM3.833 4.216L.666 1.366l.668-.744 3.168 2.85-.67.744zm.017-.759L7.334.607l.634.774-3.484 2.85-.634-.774z"/></symbol><symbol fill="none" stroke-width="1.5" stroke-linecap="square" viewBox="0 0 24 24" id="user" xmlns="http://www.w3.org/2000/svg"><path d="M4.89 19.7c.706-2.42 2.032-3.3 3.557-3.3h7.203c1.525 0 2.85.88 3.557 3.3m-7.159-6.6a3.307 3.307 0 0 0 3.315-3.3c0-1.823-1.484-3.3-3.315-3.3a3.307 3.307 0 0 0-3.314 3.3c0 1.822 1.484 3.3 3.314 3.3z"/><path d="M12.048 23c6.102 0 11.048-4.925 11.048-11S18.15 1 12.048 1 1 5.925 1 12s4.946 11 11.048 11z"/></symbol><symbol fill="none" viewBox="0 0 28 29" id="vk" xmlns="http://www.w3.org/2000/svg"><rect y=".479" width="27.189" height="27.601" rx="13.594" fill="#4C75A3"/><path d="M21.32 18.443a1.065 1.065 0 0 0-.06-.103c-.307-.497-.892-1.108-1.756-1.831l-.019-.017-.009-.008-.009-.009h-.01c-.391-.337-.64-.563-.744-.679-.19-.221-.233-.445-.129-.671.074-.171.35-.533.828-1.086.251-.292.45-.527.597-.704 1.06-1.27 1.52-2.082 1.38-2.436l-.056-.082c-.036-.05-.131-.096-.284-.137a1.602 1.602 0 0 0-.589-.021l-2.647.016a.38.38 0 0 0-.184.005l-.12.025-.046.02-.036.025a.396.396 0 0 0-.101.087.556.556 0 0 0-.092.145 12.98 12.98 0 0 1-.984 1.865c-.227.342-.435.639-.625.89-.19.252-.35.437-.478.555a3.232 3.232 0 0 1-.35.286c-.104.072-.183.103-.238.091a8.287 8.287 0 0 1-.157-.033.578.578 0 0 1-.206-.203.845.845 0 0 1-.106-.323 3.218 3.218 0 0 1-.032-.336 6.291 6.291 0 0 1 .004-.397c.007-.172.01-.288.01-.348 0-.21.004-.438.013-.684l.023-.584c.006-.144.01-.296.01-.456 0-.16-.011-.286-.033-.377a1.202 1.202 0 0 0-.096-.265.463.463 0 0 0-.189-.199 1.126 1.126 0 0 0-.307-.112 6.761 6.761 0 0 0-1.242-.107c-1.14-.011-1.872.055-2.196.199-.13.06-.246.143-.35.248-.11.122-.125.188-.046.199.368.05.628.168.782.356l.055.1c.043.071.086.199.128.38.043.183.071.385.083.605.03.404.03.749 0 1.036-.03.287-.06.511-.087.671-.028.16-.07.29-.124.39a1.6 1.6 0 0 1-.11.182.153.153 0 0 1-.046.041.756.756 0 0 1-.249.042.62.62 0 0 1-.312-.116 2.132 2.132 0 0 1-.382-.32 4.297 4.297 0 0 1-.446-.567 9.632 9.632 0 0 1-.514-.861l-.147-.24c-.092-.155-.218-.38-.377-.676-.16-.296-.3-.582-.423-.858a.556.556 0 0 0-.22-.265l-.047-.025a.658.658 0 0 0-.147-.07 1.061 1.061 0 0 0-.211-.054l-2.519.017c-.257 0-.432.052-.524.157l-.037.05a.246.246 0 0 0-.027.132.6.6 0 0 0 .055.224c.368.779.768 1.53 1.2 2.254.432.723.807 1.306 1.126 1.748.318.442.643.86.974 1.251.33.392.55.644.657.754.107.11.192.194.253.249l.23.199c.147.132.363.291.648.476.285.185.6.367.947.547.346.18.749.326 1.208.44.46.112.907.158 1.343.136h1.057c.214-.017.377-.078.487-.182l.037-.042a.52.52 0 0 0 .068-.153.764.764 0 0 0 .033-.228 2.47 2.47 0 0 1 .06-.642c.045-.19.097-.334.156-.43.058-.098.124-.179.197-.245a.79.79 0 0 1 .157-.12.626.626 0 0 1 .073-.03c.147-.044.32 0 .52.13.199.129.386.29.56.48.175.19.385.404.63.642.245.237.46.414.643.53l.184.1c.123.066.282.127.478.182.196.055.368.069.515.041l2.353-.033c.233 0 .414-.034.542-.103.13-.07.206-.145.23-.228a.58.58 0 0 0 .005-.282.962.962 0 0 0-.065-.22z" fill="#fff"/></symbol></svg>