<svg width="8" height="5" viewBox="0 0 8 5" fill="none" xmlns="http://www.w3.org/2000/svg">
<path d="M4 3.5L4.48014 4.07617C4.202 4.30794 3.798 4.30794 3.51986 4.07617L4 3.5ZM0.519862 1.57617C0.201654 1.31099 0.158661 0.838069 0.423834 0.519862C0.689007 0.201654 1.16193 0.158661 1.48014 0.423834L0.519862 1.57617ZM6.51986 0.423834C6.83807 0.158661 7.31099 0.201654 7.57617 0.519862C7.84134 0.838069 7.79835 1.31099 7.48014 1.57617L6.51986 0.423834ZM3.51986 4.07617L0.519862 1.57617L1.48014 0.423834L4.48014 2.92383L3.51986 4.07617ZM3.51986 2.92383L6.51986 0.423834L7.48014 1.57617L4.48014 4.07617L3.51986 2.92383Z" fill="black"/>
</svg>
