<svg width="18" height="18" viewBox="0 0 18 18" fill="none" xmlns="http://www.w3.org/2000/svg">
<path d="M1.34424 3.03555C1.24977 3.41974 0.532024 7.14239 5.22832 12.242C5.23719 12.2519 5.24475 12.2599 5.25005 12.2654C5.25032 12.2656 5.2506 12.2659 5.25087 12.2662C5.26633 12.2827 5.28873 12.3052 5.31765 12.3298C10.4177 17.0195 14.1363 16.2943 14.5103 16.2033C14.8081 16.1308 15.0625 15.9435 15.2208 15.6845L15.2213 15.6836L16.5811 13.4513C16.5813 13.4511 16.5814 13.4509 16.5815 13.4506C16.8593 12.9961 16.7872 12.4116 16.4129 12.0372L14.4944 10.1187L14.4934 10.1176C14.0949 9.72069 13.4666 9.66791 13.0076 9.9981L13.0071 9.99839L11.5298 11.0626C9.90166 10.717 8.69921 9.81241 8.24373 9.35645C7.78278 8.89502 6.83542 7.64566 6.48584 6.0169L7.54924 4.53988L7.54944 4.53959C7.87958 4.08059 7.82682 3.45231 7.42994 3.05381L7.4288 3.05266L5.50985 1.13418C5.50983 1.13415 5.5098 1.13413 5.50978 1.1341C5.13365 0.758024 4.54976 0.688837 4.09644 0.965169C4.09635 0.965225 4.09626 0.965281 4.09617 0.965337L1.86347 2.32588L1.86347 2.32588L1.86265 2.32638C1.60402 2.48444 1.41692 2.73829 1.34424 3.03555ZM1.34424 3.03555C1.34435 3.03511 1.34446 3.03467 1.34456 3.03424L2.07267 3.21414L1.34391 3.03689C1.34402 3.03644 1.34413 3.036 1.34424 3.03555Z" stroke="white" stroke-width="1.5"/>
</svg>
